<mxfile host="app.diagrams.net" modified="2024-01-28T22:28:48.725Z" agent="Mozilla/5.0 (Windows NT 10.0; Win64; x64) AppleWebKit/537.36 (KHTML, like Gecko) Chrome/120.0.0.0 Safari/537.36" etag="hnTfbOHuvr4EH_9WYSaP" version="23.0.2" type="device">
  <diagram name="ERD" id="ipbL7IFYzJRb-db6NpmL">
    <mxGraphModel dx="3167" dy="1419" grid="1" gridSize="15.748" guides="1" tooltips="0" connect="1" arrows="1" fold="1" page="0" pageScale="1" pageWidth="850" pageHeight="1100" background="none" math="1" shadow="0">
      <root>
        <mxCell id="0" />
        <mxCell id="1" parent="0" />
        <mxCell id="lqBJQqf9hlq6nbLFyA0Y-3" value="" style="endArrow=none;html=1;rounded=1;entryX=0.5;entryY=0;entryDx=0;entryDy=0;labelBackgroundColor=none;fontColor=default;strokeWidth=4;exitX=0.5;exitY=1;exitDx=0;exitDy=0;" edge="1" parent="1" source="tZtnKp5M03eyO23c1v6A-254" target="tZtnKp5M03eyO23c1v6A-284">
          <mxGeometry relative="1" as="geometry">
            <mxPoint x="1039" y="2189" as="sourcePoint" />
            <mxPoint x="692.748" y="2364.748" as="targetPoint" />
          </mxGeometry>
        </mxCell>
        <mxCell id="lqBJQqf9hlq6nbLFyA0Y-4" value="" style="endArrow=none;html=1;rounded=1;entryX=0.5;entryY=0;entryDx=0;entryDy=0;labelBackgroundColor=none;fontColor=default;strokeWidth=4;exitX=0.5;exitY=1;exitDx=0;exitDy=0;" edge="1" parent="1" source="tZtnKp5M03eyO23c1v6A-254" target="lqBJQqf9hlq6nbLFyA0Y-2">
          <mxGeometry relative="1" as="geometry">
            <mxPoint x="1066.496" y="2221.496" as="sourcePoint" />
            <mxPoint x="708.496" y="2380.496" as="targetPoint" />
          </mxGeometry>
        </mxCell>
        <mxCell id="tZtnKp5M03eyO23c1v6A-423" value="" style="endArrow=none;html=1;rounded=1;entryX=0.5;entryY=1;entryDx=0;entryDy=0;exitX=0.5;exitY=0;exitDx=0;exitDy=0;labelBackgroundColor=none;fontColor=default;strokeWidth=4;" parent="1" source="tZtnKp5M03eyO23c1v6A-410" target="tZtnKp5M03eyO23c1v6A-411" edge="1">
          <mxGeometry relative="1" as="geometry">
            <mxPoint x="2986.244" y="154.244" as="sourcePoint" />
            <mxPoint x="2939.244" y="-2.7560000000000002" as="targetPoint" />
          </mxGeometry>
        </mxCell>
        <mxCell id="tZtnKp5M03eyO23c1v6A-422" value="" style="endArrow=none;html=1;rounded=1;entryX=0.5;entryY=1;entryDx=0;entryDy=0;exitX=0.5;exitY=0;exitDx=0;exitDy=0;labelBackgroundColor=none;fontColor=default;strokeWidth=4;" parent="1" source="tZtnKp5M03eyO23c1v6A-410" target="tZtnKp5M03eyO23c1v6A-414" edge="1">
          <mxGeometry relative="1" as="geometry">
            <mxPoint x="2970.496" y="138.496" as="sourcePoint" />
            <mxPoint x="2923.496" y="-18.504" as="targetPoint" />
          </mxGeometry>
        </mxCell>
        <mxCell id="tZtnKp5M03eyO23c1v6A-420" value="" style="endArrow=none;html=1;rounded=1;entryX=0.5;entryY=1;entryDx=0;entryDy=0;exitX=0.5;exitY=0;exitDx=0;exitDy=0;labelBackgroundColor=none;fontColor=default;strokeWidth=4;" parent="1" source="tZtnKp5M03eyO23c1v6A-410" target="tZtnKp5M03eyO23c1v6A-415" edge="1">
          <mxGeometry relative="1" as="geometry">
            <mxPoint x="1650.748" y="22.747999999999998" as="sourcePoint" />
            <mxPoint x="1852.748" y="-129.252" as="targetPoint" />
          </mxGeometry>
        </mxCell>
        <mxCell id="tZtnKp5M03eyO23c1v6A-338" value="" style="endArrow=none;html=1;rounded=1;entryX=0.5;entryY=1;entryDx=0;entryDy=0;exitX=0.5;exitY=0;exitDx=0;exitDy=0;fontStyle=0;labelBackgroundColor=none;fontColor=default;strokeWidth=4;" parent="1" source="tZtnKp5M03eyO23c1v6A-311" target="tZtnKp5M03eyO23c1v6A-326" edge="1">
          <mxGeometry relative="1" as="geometry">
            <mxPoint x="1994.992" y="1705.032" as="sourcePoint" />
            <mxPoint x="1679.992" y="1705.032" as="targetPoint" />
          </mxGeometry>
        </mxCell>
        <mxCell id="tZtnKp5M03eyO23c1v6A-340" value="" style="endArrow=none;html=1;rounded=1;entryX=0.5;entryY=1;entryDx=0;entryDy=0;fontStyle=0;exitX=0.5;exitY=0;exitDx=0;exitDy=0;labelBackgroundColor=none;fontColor=default;strokeWidth=4;" parent="1" source="tZtnKp5M03eyO23c1v6A-311" target="tZtnKp5M03eyO23c1v6A-325" edge="1">
          <mxGeometry relative="1" as="geometry">
            <mxPoint x="2079" y="1638" as="sourcePoint" />
            <mxPoint x="1711.488" y="1736.528" as="targetPoint" />
          </mxGeometry>
        </mxCell>
        <mxCell id="tZtnKp5M03eyO23c1v6A-332" value="" style="endArrow=none;html=1;rounded=1;entryX=0.5;entryY=1;entryDx=0;entryDy=0;exitX=0.5;exitY=0;exitDx=0;exitDy=0;fontStyle=0;labelBackgroundColor=none;fontColor=default;strokeWidth=4;" parent="1" source="tZtnKp5M03eyO23c1v6A-311" target="tZtnKp5M03eyO23c1v6A-329" edge="1">
          <mxGeometry relative="1" as="geometry">
            <mxPoint x="1905.548" y="1646.768" as="sourcePoint" />
            <mxPoint x="1590.548" y="1646.768" as="targetPoint" />
          </mxGeometry>
        </mxCell>
        <mxCell id="tZtnKp5M03eyO23c1v6A-336" value="" style="endArrow=none;html=1;rounded=1;entryX=0.5;entryY=1;entryDx=0;entryDy=0;exitX=0.5;exitY=0;exitDx=0;exitDy=0;fontStyle=0;labelBackgroundColor=none;fontColor=default;strokeWidth=4;" parent="1" source="tZtnKp5M03eyO23c1v6A-311" target="tZtnKp5M03eyO23c1v6A-328" edge="1">
          <mxGeometry relative="1" as="geometry">
            <mxPoint x="1963.496" y="1673.536" as="sourcePoint" />
            <mxPoint x="1648.496" y="1673.536" as="targetPoint" />
          </mxGeometry>
        </mxCell>
        <mxCell id="tZtnKp5M03eyO23c1v6A-337" value="" style="endArrow=none;html=1;rounded=1;entryX=0.5;entryY=1;entryDx=0;entryDy=0;exitX=0.5;exitY=0;exitDx=0;exitDy=0;fontStyle=0;labelBackgroundColor=none;fontColor=default;strokeWidth=4;" parent="1" source="tZtnKp5M03eyO23c1v6A-311" target="tZtnKp5M03eyO23c1v6A-331" edge="1">
          <mxGeometry relative="1" as="geometry">
            <mxPoint x="1979.2440000000001" y="1689.284" as="sourcePoint" />
            <mxPoint x="1664.2440000000001" y="1689.284" as="targetPoint" />
          </mxGeometry>
        </mxCell>
        <mxCell id="tZtnKp5M03eyO23c1v6A-307" value="" style="endArrow=none;html=1;rounded=1;entryX=0.5;entryY=0;entryDx=0;entryDy=0;exitX=0.5;exitY=1;exitDx=0;exitDy=0;labelBackgroundColor=none;fontColor=default;strokeWidth=4;" parent="1" source="tZtnKp5M03eyO23c1v6A-254" target="tZtnKp5M03eyO23c1v6A-300" edge="1">
          <mxGeometry relative="1" as="geometry">
            <mxPoint x="1113.74" y="2268.74" as="sourcePoint" />
            <mxPoint x="975.74" y="2427.74" as="targetPoint" />
          </mxGeometry>
        </mxCell>
        <mxCell id="tZtnKp5M03eyO23c1v6A-117" value="" style="endArrow=none;html=1;rounded=1;entryX=0.5;entryY=0;entryDx=0;entryDy=0;exitX=0.5;exitY=1;exitDx=0;exitDy=0;labelBackgroundColor=none;fontColor=default;strokeWidth=4;" parent="1" source="tZtnKp5M03eyO23c1v6A-99" target="tZtnKp5M03eyO23c1v6A-108" edge="1">
          <mxGeometry relative="1" as="geometry">
            <mxPoint x="-135" y="1441" as="sourcePoint" />
            <mxPoint x="-155" y="1500" as="targetPoint" />
          </mxGeometry>
        </mxCell>
        <mxCell id="tZtnKp5M03eyO23c1v6A-116" value="" style="endArrow=none;html=1;rounded=1;entryX=0.5;entryY=0;entryDx=0;entryDy=0;exitX=0.5;exitY=1;exitDx=0;exitDy=0;labelBackgroundColor=none;fontColor=default;strokeWidth=4;" parent="1" source="tZtnKp5M03eyO23c1v6A-99" target="tZtnKp5M03eyO23c1v6A-103" edge="1">
          <mxGeometry relative="1" as="geometry">
            <mxPoint x="-145" y="1431" as="sourcePoint" />
            <mxPoint x="-165" y="1490" as="targetPoint" />
          </mxGeometry>
        </mxCell>
        <mxCell id="58sUtSx7XFqsdHOxAqbO-21" value="" style="endArrow=none;html=1;rounded=1;entryX=0.5;entryY=1;entryDx=0;entryDy=0;exitX=0.5;exitY=0;exitDx=0;exitDy=0;labelBackgroundColor=none;fontColor=default;strokeWidth=4;" parent="1" source="58sUtSx7XFqsdHOxAqbO-7" target="58sUtSx7XFqsdHOxAqbO-12" edge="1">
          <mxGeometry relative="1" as="geometry">
            <mxPoint x="495" y="550" as="sourcePoint" />
            <mxPoint x="495" y="280" as="targetPoint" />
          </mxGeometry>
        </mxCell>
        <mxCell id="58sUtSx7XFqsdHOxAqbO-20" value="" style="endArrow=none;html=1;rounded=1;entryX=0.294;entryY=0.865;entryDx=0;entryDy=0;entryPerimeter=0;labelBackgroundColor=none;fontColor=default;strokeWidth=4;" parent="1" target="58sUtSx7XFqsdHOxAqbO-14" edge="1">
          <mxGeometry relative="1" as="geometry">
            <mxPoint x="440" y="490" as="sourcePoint" />
            <mxPoint x="485" y="270" as="targetPoint" />
          </mxGeometry>
        </mxCell>
        <mxCell id="tZtnKp5M03eyO23c1v6A-198" value="" style="endArrow=none;html=1;rounded=1;entryX=0.5;entryY=0;entryDx=0;entryDy=0;exitX=0.5;exitY=1;exitDx=0;exitDy=0;labelBackgroundColor=none;fontColor=default;strokeWidth=4;" parent="1" source="tZtnKp5M03eyO23c1v6A-158" target="tZtnKp5M03eyO23c1v6A-197" edge="1">
          <mxGeometry relative="1" as="geometry">
            <mxPoint x="610.748" y="1605.748" as="sourcePoint" />
            <mxPoint x="416.748" y="1673.748" as="targetPoint" />
          </mxGeometry>
        </mxCell>
        <mxCell id="tZtnKp5M03eyO23c1v6A-199" value="" style="endArrow=none;html=1;rounded=1;entryX=0.5;entryY=0;entryDx=0;entryDy=0;exitX=0.5;exitY=1;exitDx=0;exitDy=0;labelBackgroundColor=none;fontColor=default;strokeWidth=4;" parent="1" source="tZtnKp5M03eyO23c1v6A-158" target="tZtnKp5M03eyO23c1v6A-196" edge="1">
          <mxGeometry relative="1" as="geometry">
            <mxPoint x="598" y="1591" as="sourcePoint" />
            <mxPoint x="432.496" y="1689.496" as="targetPoint" />
          </mxGeometry>
        </mxCell>
        <mxCell id="tZtnKp5M03eyO23c1v6A-194" value="" style="endArrow=none;html=1;rounded=1;entryX=0.5;entryY=0;entryDx=0;entryDy=0;exitX=0.5;exitY=1;exitDx=0;exitDy=0;labelBackgroundColor=none;fontColor=default;strokeWidth=4;" parent="1" source="tZtnKp5M03eyO23c1v6A-158" target="tZtnKp5M03eyO23c1v6A-174" edge="1">
          <mxGeometry relative="1" as="geometry">
            <mxPoint x="752.48" y="1747.48" as="sourcePoint" />
            <mxPoint x="558.48" y="1815.48" as="targetPoint" />
          </mxGeometry>
        </mxCell>
        <mxCell id="tZtnKp5M03eyO23c1v6A-195" value="" style="endArrow=none;html=1;rounded=1;entryX=0.5;entryY=0;entryDx=0;entryDy=0;exitX=0.5;exitY=1;exitDx=0;exitDy=0;labelBackgroundColor=none;fontColor=default;strokeWidth=4;" parent="1" source="tZtnKp5M03eyO23c1v6A-158" target="tZtnKp5M03eyO23c1v6A-181" edge="1">
          <mxGeometry relative="1" as="geometry">
            <mxPoint x="768.228" y="1763.228" as="sourcePoint" />
            <mxPoint x="574.228" y="1831.228" as="targetPoint" />
          </mxGeometry>
        </mxCell>
        <mxCell id="tZtnKp5M03eyO23c1v6A-193" value="" style="endArrow=none;html=1;rounded=1;entryX=0.5;entryY=0;entryDx=0;entryDy=0;exitX=0.5;exitY=1;exitDx=0;exitDy=0;labelBackgroundColor=none;fontColor=default;strokeWidth=4;" parent="1" source="tZtnKp5M03eyO23c1v6A-158" target="tZtnKp5M03eyO23c1v6A-175" edge="1">
          <mxGeometry relative="1" as="geometry">
            <mxPoint x="736.732" y="1731.732" as="sourcePoint" />
            <mxPoint x="542.732" y="1799.732" as="targetPoint" />
          </mxGeometry>
        </mxCell>
        <mxCell id="tZtnKp5M03eyO23c1v6A-190" value="" style="endArrow=none;html=1;rounded=1;entryX=0.497;entryY=0.154;entryDx=0;entryDy=0;exitX=0.5;exitY=1;exitDx=0;exitDy=0;entryPerimeter=0;labelBackgroundColor=none;fontColor=default;strokeWidth=4;" parent="1" source="tZtnKp5M03eyO23c1v6A-158" target="tZtnKp5M03eyO23c1v6A-182" edge="1">
          <mxGeometry relative="1" as="geometry">
            <mxPoint x="598" y="1591" as="sourcePoint" />
            <mxPoint x="495.488" y="1752.488" as="targetPoint" />
          </mxGeometry>
        </mxCell>
        <mxCell id="tZtnKp5M03eyO23c1v6A-192" value="" style="endArrow=none;html=1;rounded=1;entryX=0.5;entryY=0;entryDx=0;entryDy=0;exitX=0.5;exitY=1;exitDx=0;exitDy=0;labelBackgroundColor=none;fontColor=default;strokeWidth=4;" parent="1" source="tZtnKp5M03eyO23c1v6A-158" target="tZtnKp5M03eyO23c1v6A-178" edge="1">
          <mxGeometry relative="1" as="geometry">
            <mxPoint x="720.984" y="1715.984" as="sourcePoint" />
            <mxPoint x="526.984" y="1783.984" as="targetPoint" />
          </mxGeometry>
        </mxCell>
        <mxCell id="tZtnKp5M03eyO23c1v6A-191" value="" style="endArrow=none;html=1;rounded=1;entryX=0.5;entryY=0;entryDx=0;entryDy=0;exitX=0.5;exitY=1;exitDx=0;exitDy=0;labelBackgroundColor=none;fontColor=default;strokeWidth=4;" parent="1" source="tZtnKp5M03eyO23c1v6A-158" target="tZtnKp5M03eyO23c1v6A-173" edge="1">
          <mxGeometry relative="1" as="geometry">
            <mxPoint x="705.236" y="1700.2359999999999" as="sourcePoint" />
            <mxPoint x="511.236" y="1768.2359999999999" as="targetPoint" />
          </mxGeometry>
        </mxCell>
        <mxCell id="tZtnKp5M03eyO23c1v6A-189" value="" style="endArrow=none;html=1;rounded=1;entryX=0.5;entryY=0;entryDx=0;entryDy=0;exitX=0.5;exitY=1;exitDx=0;exitDy=0;labelBackgroundColor=none;fontColor=default;strokeWidth=4;" parent="1" source="tZtnKp5M03eyO23c1v6A-158" target="tZtnKp5M03eyO23c1v6A-179" edge="1">
          <mxGeometry relative="1" as="geometry">
            <mxPoint x="598" y="1591" as="sourcePoint" />
            <mxPoint x="479.74" y="1736.74" as="targetPoint" />
          </mxGeometry>
        </mxCell>
        <mxCell id="tZtnKp5M03eyO23c1v6A-185" value="" style="endArrow=none;html=1;rounded=1;entryX=0.5;entryY=0;entryDx=0;entryDy=0;exitX=0.5;exitY=1;exitDx=0;exitDy=0;labelBackgroundColor=none;fontColor=default;strokeWidth=4;" parent="1" source="tZtnKp5M03eyO23c1v6A-158" target="tZtnKp5M03eyO23c1v6A-177" edge="1">
          <mxGeometry relative="1" as="geometry">
            <mxPoint x="610.748" y="1605.748" as="sourcePoint" />
            <mxPoint x="416.748" y="1673.748" as="targetPoint" />
          </mxGeometry>
        </mxCell>
        <mxCell id="tZtnKp5M03eyO23c1v6A-118" value="" style="endArrow=none;html=1;rounded=1;entryX=0.5;entryY=0;entryDx=0;entryDy=0;exitX=0.5;exitY=1;exitDx=0;exitDy=0;labelBackgroundColor=none;fontColor=default;strokeWidth=4;" parent="1" source="tZtnKp5M03eyO23c1v6A-99" target="tZtnKp5M03eyO23c1v6A-104" edge="1">
          <mxGeometry relative="1" as="geometry">
            <mxPoint x="-125" y="1451" as="sourcePoint" />
            <mxPoint x="-145" y="1510" as="targetPoint" />
          </mxGeometry>
        </mxCell>
        <mxCell id="tZtnKp5M03eyO23c1v6A-115" value="" style="endArrow=none;html=1;rounded=1;entryX=0.5;entryY=0;entryDx=0;entryDy=0;exitX=0.5;exitY=1;exitDx=0;exitDy=0;labelBackgroundColor=none;fontColor=default;strokeWidth=4;" parent="1" source="tZtnKp5M03eyO23c1v6A-99" target="tZtnKp5M03eyO23c1v6A-107" edge="1">
          <mxGeometry relative="1" as="geometry">
            <mxPoint x="-190" y="1380" as="sourcePoint" />
            <mxPoint x="-175" y="1480" as="targetPoint" />
          </mxGeometry>
        </mxCell>
        <mxCell id="tZtnKp5M03eyO23c1v6A-114" value="" style="endArrow=none;html=1;rounded=1;entryX=0.5;entryY=0;entryDx=0;entryDy=0;exitX=0.5;exitY=1;exitDx=0;exitDy=0;labelBackgroundColor=none;fontColor=default;strokeWidth=4;" parent="1" source="tZtnKp5M03eyO23c1v6A-99" target="tZtnKp5M03eyO23c1v6A-102" edge="1">
          <mxGeometry relative="1" as="geometry">
            <mxPoint x="-165" y="1411" as="sourcePoint" />
            <mxPoint x="-185" y="1470" as="targetPoint" />
          </mxGeometry>
        </mxCell>
        <mxCell id="tZtnKp5M03eyO23c1v6A-80" value="" style="endArrow=none;html=1;rounded=1;entryX=1;entryY=0.5;entryDx=0;entryDy=0;exitX=0;exitY=0.5;exitDx=0;exitDy=0;labelBackgroundColor=none;fontColor=default;strokeWidth=4;" parent="1" source="tZtnKp5M03eyO23c1v6A-44" target="tZtnKp5M03eyO23c1v6A-72" edge="1">
          <mxGeometry relative="1" as="geometry">
            <mxPoint x="-105" y="737.5000000000002" as="sourcePoint" />
            <mxPoint x="-475" y="687.75" as="targetPoint" />
          </mxGeometry>
        </mxCell>
        <mxCell id="tZtnKp5M03eyO23c1v6A-78" value="" style="endArrow=none;html=1;rounded=1;entryX=0;entryY=0;entryDx=0;entryDy=0;exitX=0;exitY=0.5;exitDx=0;exitDy=0;labelBackgroundColor=none;fontColor=default;strokeWidth=4;" parent="1" source="tZtnKp5M03eyO23c1v6A-44" target="tZtnKp5M03eyO23c1v6A-71" edge="1">
          <mxGeometry relative="1" as="geometry">
            <mxPoint x="-105" y="737.5000000000002" as="sourcePoint" />
            <mxPoint x="-255" y="786.75" as="targetPoint" />
          </mxGeometry>
        </mxCell>
        <mxCell id="tZtnKp5M03eyO23c1v6A-77" value="" style="endArrow=none;html=1;rounded=1;entryX=0.934;entryY=0.452;entryDx=0;entryDy=0;exitX=0;exitY=0.5;exitDx=0;exitDy=0;entryPerimeter=0;labelBackgroundColor=none;fontColor=default;strokeWidth=4;" parent="1" source="tZtnKp5M03eyO23c1v6A-44" target="tZtnKp5M03eyO23c1v6A-63" edge="1">
          <mxGeometry relative="1" as="geometry">
            <mxPoint x="-105" y="737.5000000000002" as="sourcePoint" />
            <mxPoint x="-265" y="776.75" as="targetPoint" />
          </mxGeometry>
        </mxCell>
        <mxCell id="tZtnKp5M03eyO23c1v6A-75" value="" style="endArrow=none;html=1;rounded=1;entryX=1;entryY=0.5;entryDx=0;entryDy=0;exitX=0;exitY=0.5;exitDx=0;exitDy=0;labelBackgroundColor=none;fontColor=default;strokeWidth=4;" parent="1" source="tZtnKp5M03eyO23c1v6A-44" target="tZtnKp5M03eyO23c1v6A-64" edge="1">
          <mxGeometry relative="1" as="geometry">
            <mxPoint x="-105" y="737.5000000000002" as="sourcePoint" />
            <mxPoint x="-285" y="756.75" as="targetPoint" />
          </mxGeometry>
        </mxCell>
        <mxCell id="58sUtSx7XFqsdHOxAqbO-2" value="&lt;pre style=&quot;font-size: 36px;&quot;&gt;&lt;font style=&quot;font-size: 36px;&quot;&gt;&lt;b style=&quot;font-size: 36px;&quot;&gt;User&lt;/b&gt;&lt;/font&gt;&lt;/pre&gt;" style="whiteSpace=wrap;html=1;align=center;fontSize=11;rounded=1;labelBackgroundColor=none;endArrow=none;strokeWidth=4;" parent="1" vertex="1">
          <mxGeometry x="350" y="490" width="170" height="80" as="geometry" />
        </mxCell>
        <mxCell id="58sUtSx7XFqsdHOxAqbO-3" value="&lt;pre&gt;&lt;span style=&quot;font-size: 36px;&quot;&gt;&lt;b&gt;&lt;u&gt;User_id&lt;/u&gt;&lt;/b&gt;&lt;/span&gt;&lt;/pre&gt;" style="ellipse;whiteSpace=wrap;html=1;align=center;rounded=1;labelBackgroundColor=none;endArrow=none;fontSize=11;strokeWidth=4;" parent="1" vertex="1">
          <mxGeometry x="170" y="158.75" width="210" height="60" as="geometry" />
        </mxCell>
        <mxCell id="58sUtSx7XFqsdHOxAqbO-5" value="" style="endArrow=none;html=1;rounded=1;entryX=0.5;entryY=1;entryDx=0;entryDy=0;exitX=0.5;exitY=0;exitDx=0;exitDy=0;labelBackgroundColor=none;fontColor=default;strokeWidth=4;" parent="1" source="58sUtSx7XFqsdHOxAqbO-2" target="58sUtSx7XFqsdHOxAqbO-3" edge="1">
          <mxGeometry relative="1" as="geometry">
            <mxPoint x="390" y="590" as="sourcePoint" />
            <mxPoint x="550" y="590" as="targetPoint" />
          </mxGeometry>
        </mxCell>
        <mxCell id="58sUtSx7XFqsdHOxAqbO-8" value="" style="endArrow=none;html=1;rounded=1;entryX=0.5;entryY=1;entryDx=0;entryDy=0;exitX=0.5;exitY=0;exitDx=0;exitDy=0;labelBackgroundColor=none;fontColor=default;strokeWidth=4;" parent="1" source="58sUtSx7XFqsdHOxAqbO-2" target="58sUtSx7XFqsdHOxAqbO-7" edge="1">
          <mxGeometry relative="1" as="geometry">
            <mxPoint x="370" y="450" as="sourcePoint" />
            <mxPoint x="530" y="450" as="targetPoint" />
          </mxGeometry>
        </mxCell>
        <mxCell id="58sUtSx7XFqsdHOxAqbO-11" value="&lt;pre&gt;&lt;span style=&quot;font-size: 36px;&quot;&gt;&lt;b&gt;Email&lt;/b&gt;&lt;/span&gt;&lt;/pre&gt;" style="ellipse;whiteSpace=wrap;html=1;align=center;rounded=1;labelBackgroundColor=none;endArrow=none;fontSize=11;strokeWidth=4;" parent="1" vertex="1">
          <mxGeometry x="140" y="370" width="160" height="50" as="geometry" />
        </mxCell>
        <mxCell id="58sUtSx7XFqsdHOxAqbO-12" value="&lt;pre&gt;&lt;span style=&quot;font-size: 36px;&quot;&gt;&lt;b&gt;active&lt;/b&gt;&lt;/span&gt;&lt;/pre&gt;" style="ellipse;whiteSpace=wrap;html=1;align=center;rounded=1;labelBackgroundColor=none;endArrow=none;fontSize=11;strokeWidth=4;" parent="1" vertex="1">
          <mxGeometry x="300" y="235" width="150" height="40" as="geometry" />
        </mxCell>
        <mxCell id="58sUtSx7XFqsdHOxAqbO-13" value="&lt;pre&gt;&lt;span style=&quot;font-size: 36px;&quot;&gt;&lt;b&gt;Address&lt;/b&gt;&lt;/span&gt;&lt;/pre&gt;" style="ellipse;whiteSpace=wrap;html=1;align=center;rounded=1;labelBackgroundColor=none;endArrow=none;fontSize=11;strokeWidth=4;" parent="1" vertex="1">
          <mxGeometry x="401.58" y="275" width="170" height="50" as="geometry" />
        </mxCell>
        <mxCell id="58sUtSx7XFqsdHOxAqbO-15" value="" style="endArrow=none;html=1;rounded=1;entryX=0.5;entryY=1;entryDx=0;entryDy=0;exitX=0.5;exitY=0;exitDx=0;exitDy=0;labelBackgroundColor=none;fontColor=default;strokeWidth=4;" parent="1" source="58sUtSx7XFqsdHOxAqbO-2" target="58sUtSx7XFqsdHOxAqbO-10" edge="1">
          <mxGeometry relative="1" as="geometry">
            <mxPoint x="445" y="500" as="sourcePoint" />
            <mxPoint x="445" y="230" as="targetPoint" />
          </mxGeometry>
        </mxCell>
        <mxCell id="58sUtSx7XFqsdHOxAqbO-9" value="&lt;pre&gt;&lt;span style=&quot;font-size: 36px;&quot;&gt;&lt;b&gt;Password&lt;/b&gt;&lt;/span&gt;&lt;/pre&gt;" style="ellipse;whiteSpace=wrap;html=1;align=center;rounded=1;labelBackgroundColor=none;endArrow=none;fontSize=11;strokeWidth=4;" parent="1" vertex="1">
          <mxGeometry x="94.49" y="250" width="205.51" height="63.46" as="geometry" />
        </mxCell>
        <mxCell id="58sUtSx7XFqsdHOxAqbO-16" value="" style="endArrow=none;html=1;rounded=1;entryX=0.5;entryY=1;entryDx=0;entryDy=0;labelBackgroundColor=none;fontColor=default;strokeWidth=4;" parent="1" target="58sUtSx7XFqsdHOxAqbO-9" edge="1">
          <mxGeometry relative="1" as="geometry">
            <mxPoint x="440" y="490" as="sourcePoint" />
            <mxPoint x="455" y="240" as="targetPoint" />
          </mxGeometry>
        </mxCell>
        <mxCell id="58sUtSx7XFqsdHOxAqbO-17" value="" style="endArrow=none;html=1;rounded=1;entryX=0.5;entryY=1;entryDx=0;entryDy=0;exitX=0.5;exitY=0;exitDx=0;exitDy=0;labelBackgroundColor=none;fontColor=default;strokeWidth=4;" parent="1" source="58sUtSx7XFqsdHOxAqbO-2" target="58sUtSx7XFqsdHOxAqbO-10" edge="1">
          <mxGeometry relative="1" as="geometry">
            <mxPoint x="435" y="490" as="sourcePoint" />
            <mxPoint x="320" y="350" as="targetPoint" />
          </mxGeometry>
        </mxCell>
        <mxCell id="58sUtSx7XFqsdHOxAqbO-10" value="&lt;pre&gt;&lt;span style=&quot;font-size: 36px;&quot;&gt;&lt;b&gt;Token&lt;/b&gt;&lt;/span&gt;&lt;/pre&gt;" style="ellipse;whiteSpace=wrap;html=1;align=center;rounded=1;labelBackgroundColor=none;endArrow=none;fontSize=11;strokeWidth=4;" parent="1" vertex="1">
          <mxGeometry x="280" y="305" width="140" height="50" as="geometry" />
        </mxCell>
        <mxCell id="58sUtSx7XFqsdHOxAqbO-18" value="" style="endArrow=none;html=1;rounded=1;entryX=0.5;entryY=1;entryDx=0;entryDy=0;exitX=0.5;exitY=0;exitDx=0;exitDy=0;labelBackgroundColor=none;fontColor=default;strokeWidth=4;" parent="1" source="58sUtSx7XFqsdHOxAqbO-2" target="58sUtSx7XFqsdHOxAqbO-11" edge="1">
          <mxGeometry relative="1" as="geometry">
            <mxPoint x="465" y="520" as="sourcePoint" />
            <mxPoint x="465" y="250" as="targetPoint" />
          </mxGeometry>
        </mxCell>
        <mxCell id="58sUtSx7XFqsdHOxAqbO-19" value="" style="endArrow=none;html=1;rounded=1;entryX=0.5;entryY=1;entryDx=0;entryDy=0;exitX=0.5;exitY=0;exitDx=0;exitDy=0;labelBackgroundColor=none;fontColor=default;strokeWidth=4;" parent="1" source="58sUtSx7XFqsdHOxAqbO-2" target="58sUtSx7XFqsdHOxAqbO-13" edge="1">
          <mxGeometry relative="1" as="geometry">
            <mxPoint x="475" y="530" as="sourcePoint" />
            <mxPoint x="475" y="260" as="targetPoint" />
          </mxGeometry>
        </mxCell>
        <mxCell id="58sUtSx7XFqsdHOxAqbO-14" value="&lt;pre style=&quot;border-color: var(--border-color);&quot;&gt;&lt;b style=&quot;border-color: var(--border-color);&quot;&gt;&lt;font style=&quot;font-size: 35px;&quot;&gt;Role&lt;/font&gt;&lt;/b&gt;&lt;/pre&gt;" style="ellipse;shape=doubleEllipse;margin=3;whiteSpace=wrap;html=1;align=center;strokeWidth=4;perimeterSpacing=14;rounded=1;labelBackgroundColor=none;endArrow=none;fontSize=11;" parent="1" vertex="1">
          <mxGeometry x="386.22" y="168.75" width="120" height="50" as="geometry" />
        </mxCell>
        <mxCell id="58sUtSx7XFqsdHOxAqbO-23" value="&lt;pre style=&quot;font-size: 36px;&quot;&gt;&lt;font style=&quot;font-size: 36px;&quot;&gt;&lt;b style=&quot;font-size: 36px;&quot;&gt;Subscription&lt;/b&gt;&lt;/font&gt;&lt;/pre&gt;" style="whiteSpace=wrap;html=1;align=center;fontSize=11;rounded=1;labelBackgroundColor=none;endArrow=none;strokeWidth=4;" parent="1" vertex="1">
          <mxGeometry x="1170" y="495" width="290" height="80" as="geometry" />
        </mxCell>
        <mxCell id="58sUtSx7XFqsdHOxAqbO-24" value="&lt;pre&gt;&lt;pre style=&quot;border-color: var(--border-color);&quot;&gt;&lt;font size=&quot;1&quot; style=&quot;border-color: var(--border-color);&quot;&gt;&lt;b style=&quot;border-color: var(--border-color); font-size: 29px;&quot;&gt;&lt;u&gt;Subscription_id&lt;/u&gt;&lt;/b&gt;&lt;/font&gt;&lt;/pre&gt;&lt;/pre&gt;" style="ellipse;whiteSpace=wrap;html=1;align=center;rounded=1;labelBackgroundColor=none;endArrow=none;fontSize=11;strokeWidth=4;" parent="1" vertex="1">
          <mxGeometry x="1150" y="115" width="310" height="60" as="geometry" />
        </mxCell>
        <mxCell id="58sUtSx7XFqsdHOxAqbO-25" value="&lt;pre&gt;&lt;span style=&quot;font-size: 36px;&quot;&gt;&lt;b&gt;User_id&lt;/b&gt;&lt;/span&gt;&lt;/pre&gt;" style="ellipse;whiteSpace=wrap;html=1;align=center;rounded=1;labelBackgroundColor=none;endArrow=none;fontSize=11;strokeWidth=4;" parent="1" vertex="1">
          <mxGeometry x="1090" y="185" width="210" height="60" as="geometry" />
        </mxCell>
        <mxCell id="58sUtSx7XFqsdHOxAqbO-27" value="&lt;pre&gt;&lt;span style=&quot;font-size: 36px;&quot;&gt;&lt;b&gt;plan_id&lt;/b&gt;&lt;/span&gt;&lt;/pre&gt;" style="ellipse;whiteSpace=wrap;html=1;align=center;rounded=1;labelBackgroundColor=none;endArrow=none;fontSize=11;strokeWidth=4;" parent="1" vertex="1">
          <mxGeometry x="1320" y="185" width="210" height="50" as="geometry" />
        </mxCell>
        <mxCell id="58sUtSx7XFqsdHOxAqbO-28" value="" style="endArrow=none;html=1;rounded=1;entryX=0.5;entryY=1;entryDx=0;entryDy=0;exitX=0.489;exitY=-0.064;exitDx=0;exitDy=0;exitPerimeter=0;labelBackgroundColor=none;fontColor=default;strokeWidth=4;" parent="1" source="58sUtSx7XFqsdHOxAqbO-23" target="58sUtSx7XFqsdHOxAqbO-24" edge="1">
          <mxGeometry relative="1" as="geometry">
            <mxPoint x="1310" y="465" as="sourcePoint" />
            <mxPoint x="1270" y="175" as="targetPoint" />
          </mxGeometry>
        </mxCell>
        <mxCell id="58sUtSx7XFqsdHOxAqbO-34" value="" style="endArrow=none;html=1;rounded=1;entryX=0.5;entryY=1;entryDx=0;entryDy=0;exitX=0.5;exitY=0;exitDx=0;exitDy=0;labelBackgroundColor=none;fontColor=default;strokeWidth=4;" parent="1" source="58sUtSx7XFqsdHOxAqbO-23" target="58sUtSx7XFqsdHOxAqbO-32" edge="1">
          <mxGeometry relative="1" as="geometry">
            <mxPoint x="1332" y="510" as="sourcePoint" />
            <mxPoint x="1335" y="135" as="targetPoint" />
          </mxGeometry>
        </mxCell>
        <mxCell id="58sUtSx7XFqsdHOxAqbO-36" value="" style="endArrow=none;html=1;rounded=1;entryX=0.5;entryY=1;entryDx=0;entryDy=0;exitX=0.5;exitY=0;exitDx=0;exitDy=0;labelBackgroundColor=none;fontColor=default;strokeWidth=4;" parent="1" source="58sUtSx7XFqsdHOxAqbO-23" target="58sUtSx7XFqsdHOxAqbO-27" edge="1">
          <mxGeometry relative="1" as="geometry">
            <mxPoint x="1352" y="530" as="sourcePoint" />
            <mxPoint x="1355" y="155" as="targetPoint" />
          </mxGeometry>
        </mxCell>
        <mxCell id="58sUtSx7XFqsdHOxAqbO-38" value="" style="endArrow=none;html=1;rounded=1;entryX=0.539;entryY=1.086;entryDx=0;entryDy=0;exitX=0.5;exitY=0;exitDx=0;exitDy=0;entryPerimeter=0;labelBackgroundColor=none;fontColor=default;strokeWidth=4;" parent="1" source="58sUtSx7XFqsdHOxAqbO-23" target="58sUtSx7XFqsdHOxAqbO-31" edge="1">
          <mxGeometry relative="1" as="geometry">
            <mxPoint x="1372" y="550" as="sourcePoint" />
            <mxPoint x="1375" y="175" as="targetPoint" />
          </mxGeometry>
        </mxCell>
        <mxCell id="58sUtSx7XFqsdHOxAqbO-39" value="" style="endArrow=none;html=1;rounded=1;entryX=0.5;entryY=1;entryDx=0;entryDy=0;exitX=0.522;exitY=-0.047;exitDx=0;exitDy=0;exitPerimeter=0;labelBackgroundColor=none;fontColor=default;strokeWidth=4;" parent="1" source="58sUtSx7XFqsdHOxAqbO-23" target="58sUtSx7XFqsdHOxAqbO-30" edge="1">
          <mxGeometry relative="1" as="geometry">
            <mxPoint x="1382" y="560" as="sourcePoint" />
            <mxPoint x="1385" y="185" as="targetPoint" />
          </mxGeometry>
        </mxCell>
        <mxCell id="58sUtSx7XFqsdHOxAqbO-40" value="" style="endArrow=none;html=1;rounded=1;entryX=0.5;entryY=1;entryDx=0;entryDy=0;exitX=0.5;exitY=0;exitDx=0;exitDy=0;labelBackgroundColor=none;fontColor=default;strokeWidth=4;" parent="1" source="58sUtSx7XFqsdHOxAqbO-23" target="58sUtSx7XFqsdHOxAqbO-25" edge="1">
          <mxGeometry relative="1" as="geometry">
            <mxPoint x="1392" y="570" as="sourcePoint" />
            <mxPoint x="1395" y="195" as="targetPoint" />
          </mxGeometry>
        </mxCell>
        <mxCell id="58sUtSx7XFqsdHOxAqbO-31" value="&lt;pre&gt;&lt;span style=&quot;font-size: 36px;&quot;&gt;&lt;b&gt;last_edit&lt;/b&gt;&lt;/span&gt;&lt;/pre&gt;" style="ellipse;whiteSpace=wrap;html=1;align=center;rounded=1;labelBackgroundColor=none;endArrow=none;fontSize=11;strokeWidth=4;" parent="1" vertex="1">
          <mxGeometry x="1030" y="265" width="240" height="60" as="geometry" />
        </mxCell>
        <mxCell id="58sUtSx7XFqsdHOxAqbO-29" value="&lt;pre&gt;&lt;span style=&quot;font-size: 36px;&quot;&gt;&lt;b&gt;start_date&lt;/b&gt;&lt;/span&gt;&lt;/pre&gt;" style="ellipse;whiteSpace=wrap;html=1;align=center;rounded=1;labelBackgroundColor=none;endArrow=none;fontSize=11;strokeWidth=4;" parent="1" vertex="1">
          <mxGeometry x="1030" y="355" width="240" height="60" as="geometry" />
        </mxCell>
        <mxCell id="58sUtSx7XFqsdHOxAqbO-30" value="&lt;pre&gt;&lt;span style=&quot;font-size: 36px;&quot;&gt;&lt;b&gt;end_date&lt;/b&gt;&lt;/span&gt;&lt;/pre&gt;" style="ellipse;whiteSpace=wrap;html=1;align=center;rounded=1;labelBackgroundColor=none;endArrow=none;fontSize=11;strokeWidth=4;" parent="1" vertex="1">
          <mxGeometry x="1330" y="245" width="240" height="60" as="geometry" />
        </mxCell>
        <mxCell id="58sUtSx7XFqsdHOxAqbO-32" value="&lt;pre&gt;&lt;span style=&quot;font-size: 36px;&quot;&gt;&lt;b&gt;created_on&lt;/b&gt;&lt;/span&gt;&lt;/pre&gt;" style="ellipse;whiteSpace=wrap;html=1;align=center;rounded=1;labelBackgroundColor=none;endArrow=none;fontSize=11;strokeWidth=4;" parent="1" vertex="1">
          <mxGeometry x="1350" y="355" width="240" height="60" as="geometry" />
        </mxCell>
        <mxCell id="58sUtSx7XFqsdHOxAqbO-41" value="&lt;pre&gt;&lt;b&gt;&lt;font style=&quot;font-size: 38px;&quot;&gt;Has&lt;/font&gt;&lt;/b&gt;&lt;/pre&gt;" style="shape=rhombus;perimeter=rhombusPerimeter;whiteSpace=wrap;html=1;align=center;verticalAlign=middle;fontFamily=Helvetica;fontSize=11;rounded=1;labelBackgroundColor=none;endArrow=none;strokeWidth=4;" parent="1" vertex="1">
          <mxGeometry x="780" y="487.5" width="170" height="95" as="geometry" />
        </mxCell>
        <mxCell id="58sUtSx7XFqsdHOxAqbO-42" value="" style="endArrow=none;html=1;rounded=1;fontFamily=Helvetica;fontSize=11;fontColor=default;exitX=1.002;exitY=0.577;exitDx=0;exitDy=0;exitPerimeter=0;labelBackgroundColor=none;strokeWidth=4;" parent="1" source="58sUtSx7XFqsdHOxAqbO-2" target="58sUtSx7XFqsdHOxAqbO-41" edge="1">
          <mxGeometry relative="1" as="geometry">
            <mxPoint x="860" y="430" as="sourcePoint" />
            <mxPoint x="1020" y="430" as="targetPoint" />
          </mxGeometry>
        </mxCell>
        <mxCell id="58sUtSx7XFqsdHOxAqbO-44" value="1" style="edgeLabel;html=1;align=center;verticalAlign=middle;resizable=0;points=[];fontSize=11;fontFamily=Helvetica;rounded=1;labelBackgroundColor=none;endArrow=none;strokeWidth=4;" parent="58sUtSx7XFqsdHOxAqbO-42" vertex="1" connectable="0">
          <mxGeometry x="-0.8258" y="2" relative="1" as="geometry">
            <mxPoint as="offset" />
          </mxGeometry>
        </mxCell>
        <mxCell id="58sUtSx7XFqsdHOxAqbO-43" value="" style="endArrow=none;html=1;rounded=1;fontFamily=Helvetica;fontSize=11;fontColor=default;exitX=1;exitY=0.5;exitDx=0;exitDy=0;entryX=0;entryY=0.5;entryDx=0;entryDy=0;labelBackgroundColor=none;strokeWidth=4;" parent="1" source="58sUtSx7XFqsdHOxAqbO-41" target="58sUtSx7XFqsdHOxAqbO-23" edge="1">
          <mxGeometry relative="1" as="geometry">
            <mxPoint x="530" y="546" as="sourcePoint" />
            <mxPoint x="791" y="545" as="targetPoint" />
          </mxGeometry>
        </mxCell>
        <mxCell id="58sUtSx7XFqsdHOxAqbO-45" value="1" style="edgeLabel;html=1;align=center;verticalAlign=middle;resizable=0;points=[];fontSize=11;fontFamily=Helvetica;rounded=1;labelBackgroundColor=none;endArrow=none;strokeWidth=4;" parent="58sUtSx7XFqsdHOxAqbO-43" vertex="1" connectable="0">
          <mxGeometry x="0.8065" relative="1" as="geometry">
            <mxPoint as="offset" />
          </mxGeometry>
        </mxCell>
        <mxCell id="tZtnKp5M03eyO23c1v6A-3" value="&lt;pre style=&quot;font-size: 36px;&quot;&gt;&lt;font style=&quot;font-size: 36px;&quot;&gt;&lt;b style=&quot;font-size: 36px;&quot;&gt;Plans&lt;/b&gt;&lt;/font&gt;&lt;/pre&gt;" style="whiteSpace=wrap;html=1;align=center;fontSize=11;rounded=1;labelBackgroundColor=none;endArrow=none;strokeWidth=4;" parent="1" vertex="1">
          <mxGeometry x="2210" y="495" width="170" height="80" as="geometry" />
        </mxCell>
        <mxCell id="tZtnKp5M03eyO23c1v6A-4" value="&lt;pre&gt;&lt;b&gt;&lt;font style=&quot;font-size: 34px;&quot;&gt; subscribe to &lt;/font&gt;&lt;/b&gt;&lt;/pre&gt;" style="shape=rhombus;perimeter=rhombusPerimeter;whiteSpace=wrap;html=1;align=center;verticalAlign=middle;fontFamily=Helvetica;fontSize=11;rounded=1;labelBackgroundColor=none;endArrow=none;strokeWidth=4;" parent="1" vertex="1">
          <mxGeometry x="1670" y="480" width="320" height="110" as="geometry" />
        </mxCell>
        <mxCell id="tZtnKp5M03eyO23c1v6A-5" value="" style="endArrow=none;html=1;rounded=1;entryX=0;entryY=0.5;entryDx=0;entryDy=0;exitX=1;exitY=0.5;exitDx=0;exitDy=0;labelBackgroundColor=none;fontColor=default;strokeWidth=4;" parent="1" source="58sUtSx7XFqsdHOxAqbO-23" target="tZtnKp5M03eyO23c1v6A-4" edge="1">
          <mxGeometry relative="1" as="geometry">
            <mxPoint x="1325" y="505" as="sourcePoint" />
            <mxPoint x="1160" y="425" as="targetPoint" />
          </mxGeometry>
        </mxCell>
        <mxCell id="tZtnKp5M03eyO23c1v6A-29" value="&lt;b&gt;&lt;font style=&quot;font-size: 30px;&quot;&gt;1&lt;/font&gt;&lt;/b&gt;" style="edgeLabel;html=1;align=center;verticalAlign=middle;resizable=0;points=[];rounded=1;labelBackgroundColor=none;endArrow=none;strokeWidth=4;" parent="tZtnKp5M03eyO23c1v6A-5" vertex="1" connectable="0">
          <mxGeometry x="-0.8134" y="2" relative="1" as="geometry">
            <mxPoint as="offset" />
          </mxGeometry>
        </mxCell>
        <mxCell id="tZtnKp5M03eyO23c1v6A-6" value="" style="endArrow=none;html=1;rounded=1;entryX=1;entryY=0.5;entryDx=0;entryDy=0;exitX=0;exitY=0.5;exitDx=0;exitDy=0;labelBackgroundColor=none;fontColor=default;strokeWidth=4;" parent="1" source="tZtnKp5M03eyO23c1v6A-3" target="tZtnKp5M03eyO23c1v6A-4" edge="1">
          <mxGeometry relative="1" as="geometry">
            <mxPoint x="1335" y="515" as="sourcePoint" />
            <mxPoint x="1170" y="435" as="targetPoint" />
          </mxGeometry>
        </mxCell>
        <mxCell id="tZtnKp5M03eyO23c1v6A-30" value="&lt;b&gt;&lt;font style=&quot;font-size: 29px;&quot;&gt;1&lt;/font&gt;&lt;/b&gt;" style="edgeLabel;html=1;align=center;verticalAlign=middle;resizable=0;points=[];rounded=1;labelBackgroundColor=none;endArrow=none;strokeWidth=4;" parent="tZtnKp5M03eyO23c1v6A-6" vertex="1" connectable="0">
          <mxGeometry x="-0.8711" y="1" relative="1" as="geometry">
            <mxPoint as="offset" />
          </mxGeometry>
        </mxCell>
        <mxCell id="tZtnKp5M03eyO23c1v6A-15" value="&lt;pre&gt;&lt;span style=&quot;font-size: 36px;&quot;&gt;&lt;b&gt;&lt;u&gt;plan_id&lt;/u&gt;&lt;/b&gt;&lt;/span&gt;&lt;/pre&gt;" style="ellipse;whiteSpace=wrap;html=1;align=center;rounded=1;labelBackgroundColor=none;endArrow=none;fontSize=11;strokeWidth=4;" parent="1" vertex="1">
          <mxGeometry x="2190" y="173" width="210" height="60" as="geometry" />
        </mxCell>
        <mxCell id="tZtnKp5M03eyO23c1v6A-17" value="&lt;pre&gt;&lt;span style=&quot;font-size: 36px;&quot;&gt;&lt;b&gt;Name&lt;/b&gt;&lt;/span&gt;&lt;/pre&gt;" style="ellipse;whiteSpace=wrap;html=1;align=center;rounded=1;labelBackgroundColor=none;endArrow=none;fontSize=11;strokeWidth=4;" parent="1" vertex="1">
          <mxGeometry x="2380" y="305" width="130" height="60" as="geometry" />
        </mxCell>
        <mxCell id="tZtnKp5M03eyO23c1v6A-18" value="&lt;pre&gt;&lt;span style=&quot;font-size: 36px;&quot;&gt;&lt;b&gt;price&lt;/b&gt;&lt;/span&gt;&lt;/pre&gt;" style="ellipse;whiteSpace=wrap;html=1;align=center;rounded=1;labelBackgroundColor=none;endArrow=none;fontSize=11;strokeWidth=4;" parent="1" vertex="1">
          <mxGeometry x="2400" y="380" width="150" height="60" as="geometry" />
        </mxCell>
        <mxCell id="tZtnKp5M03eyO23c1v6A-19" value="&lt;pre&gt;&lt;span style=&quot;font-size: 36px;&quot;&gt;&lt;b&gt;Description&lt;/b&gt;&lt;/span&gt;&lt;/pre&gt;" style="ellipse;whiteSpace=wrap;html=1;align=center;rounded=1;labelBackgroundColor=none;endArrow=none;fontSize=11;strokeWidth=4;" parent="1" vertex="1">
          <mxGeometry x="2300" y="235" width="260" height="60" as="geometry" />
        </mxCell>
        <mxCell id="tZtnKp5M03eyO23c1v6A-20" value="&lt;pre&gt;&lt;span style=&quot;font-size: 36px;&quot;&gt;&lt;b&gt;last_edit&lt;/b&gt;&lt;/span&gt;&lt;/pre&gt;" style="ellipse;whiteSpace=wrap;html=1;align=center;rounded=1;labelBackgroundColor=none;endArrow=none;fontSize=11;strokeWidth=4;" parent="1" vertex="1">
          <mxGeometry x="2030" y="250" width="240" height="60" as="geometry" />
        </mxCell>
        <mxCell id="tZtnKp5M03eyO23c1v6A-22" value="&lt;pre&gt;&lt;span style=&quot;font-size: 36px;&quot;&gt;&lt;b&gt;created_on&lt;/b&gt;&lt;/span&gt;&lt;/pre&gt;" style="ellipse;whiteSpace=wrap;html=1;align=center;rounded=1;labelBackgroundColor=none;endArrow=none;fontSize=11;strokeWidth=4;" parent="1" vertex="1">
          <mxGeometry x="1980" y="330" width="240" height="60" as="geometry" />
        </mxCell>
        <mxCell id="tZtnKp5M03eyO23c1v6A-23" value="" style="endArrow=none;html=1;rounded=1;entryX=0.5;entryY=1;entryDx=0;entryDy=0;labelBackgroundColor=none;fontColor=default;strokeWidth=4;" parent="1" source="tZtnKp5M03eyO23c1v6A-3" target="tZtnKp5M03eyO23c1v6A-15" edge="1">
          <mxGeometry relative="1" as="geometry">
            <mxPoint x="2220" y="545" as="sourcePoint" />
            <mxPoint x="2000" y="545" as="targetPoint" />
          </mxGeometry>
        </mxCell>
        <mxCell id="tZtnKp5M03eyO23c1v6A-24" value="" style="endArrow=none;html=1;rounded=1;entryX=0.32;entryY=0.999;entryDx=0;entryDy=0;entryPerimeter=0;exitX=0.5;exitY=0;exitDx=0;exitDy=0;labelBackgroundColor=none;fontColor=default;strokeWidth=4;" parent="1" source="tZtnKp5M03eyO23c1v6A-3" target="tZtnKp5M03eyO23c1v6A-19" edge="1">
          <mxGeometry relative="1" as="geometry">
            <mxPoint x="2305" y="505" as="sourcePoint" />
            <mxPoint x="2305" y="243" as="targetPoint" />
          </mxGeometry>
        </mxCell>
        <mxCell id="tZtnKp5M03eyO23c1v6A-25" value="" style="endArrow=none;html=1;rounded=1;exitX=0.525;exitY=-0.038;exitDx=0;exitDy=0;exitPerimeter=0;labelBackgroundColor=none;fontColor=default;strokeWidth=4;" parent="1" source="tZtnKp5M03eyO23c1v6A-3" target="tZtnKp5M03eyO23c1v6A-17" edge="1">
          <mxGeometry relative="1" as="geometry">
            <mxPoint x="2305" y="505" as="sourcePoint" />
            <mxPoint x="2480" y="370" as="targetPoint" />
          </mxGeometry>
        </mxCell>
        <mxCell id="tZtnKp5M03eyO23c1v6A-26" value="" style="endArrow=none;html=1;rounded=1;entryX=0.5;entryY=1;entryDx=0;entryDy=0;exitX=0.5;exitY=0;exitDx=0;exitDy=0;labelBackgroundColor=none;fontColor=default;strokeWidth=4;" parent="1" source="tZtnKp5M03eyO23c1v6A-3" target="tZtnKp5M03eyO23c1v6A-18" edge="1">
          <mxGeometry relative="1" as="geometry">
            <mxPoint x="2315" y="515" as="sourcePoint" />
            <mxPoint x="2414" y="320" as="targetPoint" />
          </mxGeometry>
        </mxCell>
        <mxCell id="tZtnKp5M03eyO23c1v6A-27" value="" style="endArrow=none;html=1;rounded=1;entryX=0.5;entryY=0;entryDx=0;entryDy=0;exitX=0.5;exitY=1;exitDx=0;exitDy=0;labelBackgroundColor=none;fontColor=default;strokeWidth=4;" parent="1" source="tZtnKp5M03eyO23c1v6A-379" target="tZtnKp5M03eyO23c1v6A-377" edge="1">
          <mxGeometry relative="1" as="geometry">
            <mxPoint x="2325" y="525" as="sourcePoint" />
            <mxPoint x="2424" y="330" as="targetPoint" />
          </mxGeometry>
        </mxCell>
        <mxCell id="tZtnKp5M03eyO23c1v6A-28" value="" style="endArrow=none;html=1;rounded=1;exitX=0.5;exitY=0;exitDx=0;exitDy=0;entryX=0.849;entryY=0.929;entryDx=0;entryDy=0;entryPerimeter=0;labelBackgroundColor=none;fontColor=default;strokeWidth=4;" parent="1" source="tZtnKp5M03eyO23c1v6A-3" target="tZtnKp5M03eyO23c1v6A-20" edge="1">
          <mxGeometry relative="1" as="geometry">
            <mxPoint x="2335" y="535" as="sourcePoint" />
            <mxPoint x="2434" y="340" as="targetPoint" />
          </mxGeometry>
        </mxCell>
        <mxCell id="tZtnKp5M03eyO23c1v6A-31" value="" style="endArrow=none;html=1;rounded=1;entryX=0.5;entryY=1;entryDx=0;entryDy=0;exitX=0.5;exitY=0;exitDx=0;exitDy=0;labelBackgroundColor=none;fontColor=default;strokeWidth=4;" parent="1" source="tZtnKp5M03eyO23c1v6A-32" target="58sUtSx7XFqsdHOxAqbO-2" edge="1">
          <mxGeometry relative="1" as="geometry">
            <mxPoint x="435" y="790" as="sourcePoint" />
            <mxPoint x="529" y="620" as="targetPoint" />
          </mxGeometry>
        </mxCell>
        <mxCell id="tZtnKp5M03eyO23c1v6A-47" value="&lt;b&gt;&lt;font style=&quot;font-size: 22px;&quot;&gt;1&lt;/font&gt;&lt;/b&gt;" style="edgeLabel;html=1;align=center;verticalAlign=middle;resizable=0;points=[];rounded=1;labelBackgroundColor=none;endArrow=none;strokeWidth=4;" parent="tZtnKp5M03eyO23c1v6A-31" vertex="1" connectable="0">
          <mxGeometry x="0.7417" y="2" relative="1" as="geometry">
            <mxPoint y="1" as="offset" />
          </mxGeometry>
        </mxCell>
        <mxCell id="tZtnKp5M03eyO23c1v6A-32" value="&lt;pre&gt;&lt;b&gt;&lt;font style=&quot;font-size: 38px;&quot;&gt;Has&lt;/font&gt;&lt;/b&gt;&lt;/pre&gt;" style="shape=rhombus;perimeter=rhombusPerimeter;whiteSpace=wrap;html=1;align=center;verticalAlign=middle;fontFamily=Helvetica;fontSize=11;rounded=1;labelBackgroundColor=none;endArrow=none;strokeWidth=4;" parent="1" vertex="1">
          <mxGeometry x="350" y="690" width="170" height="95" as="geometry" />
        </mxCell>
        <mxCell id="tZtnKp5M03eyO23c1v6A-34" value="" style="endArrow=none;html=1;rounded=1;entryX=0.5;entryY=1;entryDx=0;entryDy=0;exitX=0.5;exitY=0;exitDx=0;exitDy=0;labelBackgroundColor=none;fontColor=default;strokeWidth=4;" parent="1" source="tZtnKp5M03eyO23c1v6A-35" target="tZtnKp5M03eyO23c1v6A-32" edge="1">
          <mxGeometry relative="1" as="geometry">
            <mxPoint x="435" y="890" as="sourcePoint" />
            <mxPoint x="445" y="580" as="targetPoint" />
          </mxGeometry>
        </mxCell>
        <mxCell id="tZtnKp5M03eyO23c1v6A-48" value="&lt;b&gt;&lt;font style=&quot;font-size: 27px;&quot;&gt;1&lt;/font&gt;&lt;/b&gt;" style="edgeLabel;html=1;align=center;verticalAlign=middle;resizable=0;points=[];rounded=1;labelBackgroundColor=none;endArrow=none;strokeWidth=4;" parent="tZtnKp5M03eyO23c1v6A-34" vertex="1" connectable="0">
          <mxGeometry x="-0.4963" y="-1" relative="1" as="geometry">
            <mxPoint as="offset" />
          </mxGeometry>
        </mxCell>
        <mxCell id="tZtnKp5M03eyO23c1v6A-35" value="&lt;pre style=&quot;font-size: 36px;&quot;&gt;&lt;font style=&quot;font-size: 36px;&quot;&gt;&lt;b style=&quot;font-size: 36px;&quot;&gt;Wallet&lt;/b&gt;&lt;/font&gt;&lt;/pre&gt;" style="whiteSpace=wrap;html=1;align=center;fontSize=11;rounded=1;labelBackgroundColor=none;endArrow=none;strokeWidth=4;" parent="1" vertex="1">
          <mxGeometry x="350" y="920" width="170" height="80" as="geometry" />
        </mxCell>
        <mxCell id="tZtnKp5M03eyO23c1v6A-39" value="&lt;pre&gt;&lt;span style=&quot;font-size: 36px;&quot;&gt;&lt;b&gt;total_credit&lt;/b&gt;&lt;/span&gt;&lt;/pre&gt;" style="ellipse;whiteSpace=wrap;html=1;align=center;rounded=1;labelBackgroundColor=none;endArrow=none;fontSize=11;strokeWidth=4;" parent="1" vertex="1">
          <mxGeometry x="540" y="1049.37" width="320" height="50" as="geometry" />
        </mxCell>
        <mxCell id="tZtnKp5M03eyO23c1v6A-41" value="" style="endArrow=none;html=1;rounded=1;entryX=0.5;entryY=1;entryDx=0;entryDy=0;exitX=0.533;exitY=-0.06;exitDx=0;exitDy=0;exitPerimeter=0;labelBackgroundColor=none;fontColor=default;strokeWidth=4;" parent="1" source="tZtnKp5M03eyO23c1v6A-37" target="tZtnKp5M03eyO23c1v6A-35" edge="1">
          <mxGeometry relative="1" as="geometry">
            <mxPoint x="445" y="930" as="sourcePoint" />
            <mxPoint x="445" y="795" as="targetPoint" />
          </mxGeometry>
        </mxCell>
        <mxCell id="tZtnKp5M03eyO23c1v6A-42" value="" style="endArrow=none;html=1;rounded=1;entryX=0.5;entryY=1;entryDx=0;entryDy=0;labelBackgroundColor=none;fontColor=default;strokeWidth=4;" parent="1" source="tZtnKp5M03eyO23c1v6A-39" target="tZtnKp5M03eyO23c1v6A-35" edge="1">
          <mxGeometry relative="1" as="geometry">
            <mxPoint x="455" y="940" as="sourcePoint" />
            <mxPoint x="455" y="805" as="targetPoint" />
          </mxGeometry>
        </mxCell>
        <mxCell id="tZtnKp5M03eyO23c1v6A-43" value="" style="endArrow=none;html=1;rounded=1;entryX=0.5;entryY=0;entryDx=0;entryDy=0;labelBackgroundColor=none;fontColor=default;strokeWidth=4;" parent="1" source="tZtnKp5M03eyO23c1v6A-35" target="tZtnKp5M03eyO23c1v6A-36" edge="1">
          <mxGeometry relative="1" as="geometry">
            <mxPoint x="465" y="950" as="sourcePoint" />
            <mxPoint x="465" y="815" as="targetPoint" />
          </mxGeometry>
        </mxCell>
        <mxCell id="tZtnKp5M03eyO23c1v6A-36" value="&lt;pre&gt;&lt;span style=&quot;font-size: 36px;&quot;&gt;&lt;b&gt;&lt;u&gt;Wallet_id&lt;/u&gt;&lt;/b&gt;&lt;/span&gt;&lt;/pre&gt;" style="ellipse;whiteSpace=wrap;html=1;align=center;rounded=1;labelBackgroundColor=none;endArrow=none;fontSize=11;strokeWidth=4;" parent="1" vertex="1">
          <mxGeometry x="200" y="1009.9999999999999" width="240" height="60" as="geometry" />
        </mxCell>
        <mxCell id="tZtnKp5M03eyO23c1v6A-37" value="&lt;pre&gt;&lt;span style=&quot;font-size: 36px;&quot;&gt;&lt;b&gt;cashout_option&lt;/b&gt;&lt;/span&gt;&lt;/pre&gt;" style="ellipse;whiteSpace=wrap;html=1;align=center;rounded=1;labelBackgroundColor=none;endArrow=none;fontSize=11;strokeWidth=4;" parent="1" vertex="1">
          <mxGeometry x="220" y="1115" width="350" height="50" as="geometry" />
        </mxCell>
        <mxCell id="tZtnKp5M03eyO23c1v6A-44" value="&lt;pre style=&quot;font-size: 36px;&quot;&gt;&lt;font style=&quot;font-size: 36px;&quot;&gt;&lt;b style=&quot;font-size: 36px;&quot;&gt;Bill&lt;/b&gt;&lt;/font&gt;&lt;/pre&gt;" style="whiteSpace=wrap;html=1;align=center;fontSize=11;rounded=1;labelBackgroundColor=none;endArrow=none;strokeWidth=4;" parent="1" vertex="1">
          <mxGeometry x="50" y="700" width="264.96" height="77.5" as="geometry" />
        </mxCell>
        <mxCell id="tZtnKp5M03eyO23c1v6A-45" value="&lt;pre&gt;&lt;b&gt;&lt;font style=&quot;font-size: 38px;&quot;&gt;uses&lt;/font&gt;&lt;/b&gt;&lt;/pre&gt;" style="shape=rhombus;perimeter=rhombusPerimeter;whiteSpace=wrap;html=1;align=center;verticalAlign=middle;fontFamily=Helvetica;fontSize=11;rounded=1;labelBackgroundColor=none;endArrow=none;strokeWidth=4;" parent="1" vertex="1">
          <mxGeometry x="190" y="825" width="170" height="95" as="geometry" />
        </mxCell>
        <mxCell id="tZtnKp5M03eyO23c1v6A-52" value="" style="endArrow=none;html=1;rounded=1;exitX=0.5;exitY=0;exitDx=0;exitDy=0;entryX=0.847;entryY=1.005;entryDx=0;entryDy=0;entryPerimeter=0;labelBackgroundColor=none;fontColor=default;strokeWidth=4;" parent="1" source="tZtnKp5M03eyO23c1v6A-45" target="tZtnKp5M03eyO23c1v6A-44" edge="1">
          <mxGeometry relative="1" as="geometry">
            <mxPoint x="252" y="702" as="sourcePoint" />
            <mxPoint x="235" y="780" as="targetPoint" />
          </mxGeometry>
        </mxCell>
        <mxCell id="tZtnKp5M03eyO23c1v6A-53" value="" style="endArrow=none;html=1;rounded=1;entryX=0.5;entryY=1;entryDx=0;entryDy=0;exitX=0;exitY=0.5;exitDx=0;exitDy=0;labelBackgroundColor=none;fontColor=default;strokeWidth=4;" parent="1" source="tZtnKp5M03eyO23c1v6A-35" target="tZtnKp5M03eyO23c1v6A-45" edge="1">
          <mxGeometry relative="1" as="geometry">
            <mxPoint x="627" y="1147" as="sourcePoint" />
            <mxPoint x="455" y="1020" as="targetPoint" />
            <Array as="points">
              <mxPoint x="275" y="960" />
            </Array>
          </mxGeometry>
        </mxCell>
        <mxCell id="tZtnKp5M03eyO23c1v6A-54" value="" style="endArrow=none;html=1;rounded=1;entryX=0.373;entryY=-0.002;entryDx=0;entryDy=0;exitX=0.5;exitY=1;exitDx=0;exitDy=0;entryPerimeter=0;labelBackgroundColor=none;fontColor=default;strokeWidth=4;" parent="1" source="tZtnKp5M03eyO23c1v6A-55" target="tZtnKp5M03eyO23c1v6A-44" edge="1">
          <mxGeometry relative="1" as="geometry">
            <mxPoint x="135" y="640" as="sourcePoint" />
            <mxPoint x="465" y="1030" as="targetPoint" />
          </mxGeometry>
        </mxCell>
        <mxCell id="tZtnKp5M03eyO23c1v6A-69" value="&lt;b&gt;&lt;font style=&quot;font-size: 21px;&quot;&gt;N&lt;/font&gt;&lt;/b&gt;" style="edgeLabel;html=1;align=center;verticalAlign=middle;resizable=0;points=[];rounded=1;labelBackgroundColor=none;endArrow=none;strokeWidth=4;" parent="tZtnKp5M03eyO23c1v6A-54" vertex="1" connectable="0">
          <mxGeometry x="-0.2182" y="-2" relative="1" as="geometry">
            <mxPoint x="2" y="14" as="offset" />
          </mxGeometry>
        </mxCell>
        <mxCell id="tZtnKp5M03eyO23c1v6A-55" value="&lt;pre&gt;&lt;b&gt;&lt;font style=&quot;font-size: 38px;&quot;&gt;Makes&lt;/font&gt;&lt;/b&gt;&lt;/pre&gt;" style="shape=rhombus;perimeter=rhombusPerimeter;whiteSpace=wrap;html=1;align=center;verticalAlign=middle;fontFamily=Helvetica;fontSize=11;rounded=1;labelBackgroundColor=none;endArrow=none;strokeWidth=4;" parent="1" vertex="1">
          <mxGeometry x="49.97" y="565.04" width="190" height="79.92" as="geometry" />
        </mxCell>
        <mxCell id="tZtnKp5M03eyO23c1v6A-58" value="" style="endArrow=none;html=1;rounded=1;entryX=0.5;entryY=0;entryDx=0;entryDy=0;exitX=-0.013;exitY=0.662;exitDx=0;exitDy=0;exitPerimeter=0;labelBackgroundColor=none;fontColor=default;strokeWidth=4;" parent="1" source="58sUtSx7XFqsdHOxAqbO-2" target="tZtnKp5M03eyO23c1v6A-55" edge="1">
          <mxGeometry relative="1" as="geometry">
            <mxPoint x="145" y="635" as="sourcePoint" />
            <mxPoint x="145" y="708" as="targetPoint" />
            <Array as="points">
              <mxPoint x="142" y="543" />
            </Array>
          </mxGeometry>
        </mxCell>
        <mxCell id="tZtnKp5M03eyO23c1v6A-70" value="&lt;b&gt;&lt;font style=&quot;font-size: 30px;&quot;&gt;1&lt;/font&gt;&lt;/b&gt;" style="edgeLabel;html=1;align=center;verticalAlign=middle;resizable=0;points=[];rounded=1;labelBackgroundColor=none;endArrow=none;strokeWidth=4;" parent="tZtnKp5M03eyO23c1v6A-58" vertex="1" connectable="0">
          <mxGeometry x="-0.7723" y="-3" relative="1" as="geometry">
            <mxPoint x="-2" as="offset" />
          </mxGeometry>
        </mxCell>
        <mxCell id="tZtnKp5M03eyO23c1v6A-59" value="&lt;pre&gt;&lt;span style=&quot;font-size: 36px;&quot;&gt;&lt;b&gt;&lt;u&gt;Bill_id&lt;/u&gt;&lt;/b&gt;&lt;/span&gt;&lt;/pre&gt;" style="ellipse;whiteSpace=wrap;html=1;align=center;rounded=1;labelBackgroundColor=none;endArrow=none;fontSize=11;strokeWidth=4;" parent="1" vertex="1">
          <mxGeometry x="-497.4" y="707.5" width="190" height="60" as="geometry" />
        </mxCell>
        <mxCell id="tZtnKp5M03eyO23c1v6A-60" value="" style="endArrow=none;html=1;rounded=1;entryX=1;entryY=0.5;entryDx=0;entryDy=0;exitX=0;exitY=0.5;exitDx=0;exitDy=0;labelBackgroundColor=none;fontColor=default;strokeWidth=4;" parent="1" source="tZtnKp5M03eyO23c1v6A-44" target="tZtnKp5M03eyO23c1v6A-59" edge="1">
          <mxGeometry relative="1" as="geometry">
            <mxPoint x="-105" y="737.1271929824563" as="sourcePoint" />
            <mxPoint x="95" y="378.75" as="targetPoint" />
          </mxGeometry>
        </mxCell>
        <mxCell id="tZtnKp5M03eyO23c1v6A-61" value="&lt;pre&gt;&lt;span style=&quot;font-size: 36px;&quot;&gt;&lt;b&gt;Payment_option&lt;/b&gt;&lt;/span&gt;&lt;/pre&gt;" style="ellipse;whiteSpace=wrap;html=1;align=center;rounded=1;labelBackgroundColor=none;endArrow=none;fontSize=11;strokeWidth=4;" parent="1" vertex="1">
          <mxGeometry x="-457.4" y="627.5" width="380" height="60" as="geometry" />
        </mxCell>
        <mxCell id="tZtnKp5M03eyO23c1v6A-62" value="&lt;pre&gt;&lt;span style=&quot;font-size: 36px;&quot;&gt;&lt;b&gt;Bill_date&lt;/b&gt;&lt;/span&gt;&lt;/pre&gt;" style="ellipse;whiteSpace=wrap;html=1;align=center;rounded=1;labelBackgroundColor=none;endArrow=none;fontSize=11;strokeWidth=4;" parent="1" vertex="1">
          <mxGeometry x="-708.4" y="650" width="221" height="57.5" as="geometry" />
        </mxCell>
        <mxCell id="tZtnKp5M03eyO23c1v6A-63" value="&lt;pre style=&quot;border-color: var(--border-color);&quot;&gt;&lt;b style=&quot;border-color: var(--border-color);&quot;&gt;&lt;font style=&quot;font-size: 35px;&quot;&gt;Status&lt;/font&gt;&lt;/b&gt;&lt;/pre&gt;" style="ellipse;shape=doubleEllipse;margin=3;whiteSpace=wrap;html=1;align=center;strokeWidth=4;perimeterSpacing=14;rounded=1;labelBackgroundColor=none;endArrow=none;fontSize=11;" parent="1" vertex="1">
          <mxGeometry x="-657.4" y="775" width="170" height="50" as="geometry" />
        </mxCell>
        <mxCell id="tZtnKp5M03eyO23c1v6A-64" value="&lt;pre&gt;&lt;span style=&quot;font-size: 36px;&quot;&gt;&lt;b&gt;Promocode_id&lt;/b&gt;&lt;/span&gt;&lt;/pre&gt;" style="ellipse;whiteSpace=wrap;html=1;align=center;rounded=1;labelBackgroundColor=none;endArrow=none;fontSize=11;strokeWidth=4;" parent="1" vertex="1">
          <mxGeometry x="-787.4" y="567.5" width="300" height="60" as="geometry" />
        </mxCell>
        <mxCell id="tZtnKp5M03eyO23c1v6A-65" value="&lt;pre&gt;&lt;b style=&quot;&quot;&gt;&lt;font style=&quot;font-size: 32px;&quot;&gt;shopping_cart_id&lt;/font&gt;&lt;/b&gt;&lt;/pre&gt;" style="ellipse;whiteSpace=wrap;html=1;align=center;rounded=1;labelBackgroundColor=none;endArrow=none;fontSize=11;strokeWidth=4;" parent="1" vertex="1">
          <mxGeometry x="-357.4" y="782.5" width="330" height="67.5" as="geometry" />
        </mxCell>
        <mxCell id="tZtnKp5M03eyO23c1v6A-71" value="&lt;pre&gt;&lt;span style=&quot;font-size: 36px;&quot;&gt;&lt;b&gt;last_edit&lt;/b&gt;&lt;/span&gt;&lt;/pre&gt;" style="ellipse;whiteSpace=wrap;html=1;align=center;rounded=1;labelBackgroundColor=none;endArrow=none;fontSize=11;strokeWidth=4;" parent="1" vertex="1">
          <mxGeometry x="-517.4" y="850" width="240" height="60" as="geometry" />
        </mxCell>
        <mxCell id="tZtnKp5M03eyO23c1v6A-72" value="&lt;pre&gt;&lt;span style=&quot;font-size: 36px;&quot;&gt;&lt;b&gt;created_on&lt;/b&gt;&lt;/span&gt;&lt;/pre&gt;" style="ellipse;whiteSpace=wrap;html=1;align=center;rounded=1;labelBackgroundColor=none;endArrow=none;fontSize=11;strokeWidth=4;" parent="1" vertex="1">
          <mxGeometry x="-777.4" y="825" width="240" height="60" as="geometry" />
        </mxCell>
        <mxCell id="tZtnKp5M03eyO23c1v6A-74" value="" style="endArrow=none;html=1;rounded=1;entryX=0.5;entryY=1;entryDx=0;entryDy=0;exitX=0;exitY=0.5;exitDx=0;exitDy=0;labelBackgroundColor=none;fontColor=default;strokeWidth=4;" parent="1" source="tZtnKp5M03eyO23c1v6A-44" target="tZtnKp5M03eyO23c1v6A-61" edge="1">
          <mxGeometry relative="1" as="geometry">
            <mxPoint x="-105" y="737.5000000000002" as="sourcePoint" />
            <mxPoint x="-295" y="746.75" as="targetPoint" />
          </mxGeometry>
        </mxCell>
        <mxCell id="tZtnKp5M03eyO23c1v6A-76" value="" style="endArrow=none;html=1;rounded=1;entryX=0.5;entryY=0;entryDx=0;entryDy=0;exitX=0;exitY=0.5;exitDx=0;exitDy=0;labelBackgroundColor=none;fontColor=default;strokeWidth=4;" parent="1" source="tZtnKp5M03eyO23c1v6A-44" target="tZtnKp5M03eyO23c1v6A-65" edge="1">
          <mxGeometry relative="1" as="geometry">
            <mxPoint x="-105" y="737.5000000000002" as="sourcePoint" />
            <mxPoint x="-275" y="766.75" as="targetPoint" />
          </mxGeometry>
        </mxCell>
        <mxCell id="tZtnKp5M03eyO23c1v6A-79" value="" style="endArrow=none;html=1;rounded=1;entryX=1;entryY=0.5;entryDx=0;entryDy=0;exitX=0;exitY=0.5;exitDx=0;exitDy=0;labelBackgroundColor=none;fontColor=default;strokeWidth=4;" parent="1" source="tZtnKp5M03eyO23c1v6A-44" target="tZtnKp5M03eyO23c1v6A-62" edge="1">
          <mxGeometry relative="1" as="geometry">
            <mxPoint x="-105" y="737.5000000000002" as="sourcePoint" />
            <mxPoint x="-245" y="796.75" as="targetPoint" />
          </mxGeometry>
        </mxCell>
        <mxCell id="tZtnKp5M03eyO23c1v6A-81" value="&lt;pre&gt;&lt;b&gt;&lt;font style=&quot;font-size: 38px;&quot;&gt;uses&lt;/font&gt;&lt;/b&gt;&lt;/pre&gt;" style="shape=rhombus;perimeter=rhombusPerimeter;whiteSpace=wrap;html=1;align=center;verticalAlign=middle;fontFamily=Helvetica;fontSize=11;rounded=1;labelBackgroundColor=none;endArrow=none;strokeWidth=4;" parent="1" vertex="1">
          <mxGeometry x="-277.4" y="1010" width="170" height="95" as="geometry" />
        </mxCell>
        <mxCell id="tZtnKp5M03eyO23c1v6A-82" value="" style="endArrow=none;html=1;rounded=1;entryX=0.5;entryY=0;entryDx=0;entryDy=0;labelBackgroundColor=none;fontColor=default;strokeWidth=4;" parent="1" target="tZtnKp5M03eyO23c1v6A-81" edge="1">
          <mxGeometry relative="1" as="geometry">
            <mxPoint x="50" y="740" as="sourcePoint" />
            <mxPoint x="-440" y="580" as="targetPoint" />
            <Array as="points">
              <mxPoint y="740" />
              <mxPoint y="930" />
              <mxPoint x="-195" y="930" />
            </Array>
          </mxGeometry>
        </mxCell>
        <mxCell id="tZtnKp5M03eyO23c1v6A-99" value="&lt;pre style=&quot;font-size: 36px;&quot;&gt;&lt;font style=&quot;font-size: 36px;&quot;&gt;&lt;b style=&quot;font-size: 36px;&quot;&gt;promocode&lt;/b&gt;&lt;/font&gt;&lt;/pre&gt;" style="whiteSpace=wrap;html=1;align=center;fontSize=11;rounded=1;labelBackgroundColor=none;endArrow=none;strokeWidth=4;" parent="1" vertex="1">
          <mxGeometry x="-645.6700000000001" y="1165" width="230" height="80" as="geometry" />
        </mxCell>
        <mxCell id="tZtnKp5M03eyO23c1v6A-100" value="" style="endArrow=none;html=1;rounded=1;entryX=0.5;entryY=0;entryDx=0;entryDy=0;labelBackgroundColor=none;fontColor=default;strokeWidth=4;" parent="1" source="tZtnKp5M03eyO23c1v6A-81" target="tZtnKp5M03eyO23c1v6A-99" edge="1">
          <mxGeometry relative="1" as="geometry">
            <mxPoint x="60" y="749" as="sourcePoint" />
            <mxPoint x="-640" y="848" as="targetPoint" />
            <Array as="points">
              <mxPoint x="-192" y="1134" />
              <mxPoint x="-531" y="1134" />
            </Array>
          </mxGeometry>
        </mxCell>
        <mxCell id="tZtnKp5M03eyO23c1v6A-102" value="&lt;pre&gt;&lt;span style=&quot;font-size: 36px;&quot;&gt;&lt;b&gt;amount&lt;/b&gt;&lt;/span&gt;&lt;/pre&gt;" style="ellipse;whiteSpace=wrap;html=1;align=center;rounded=1;labelBackgroundColor=none;endArrow=none;fontSize=11;strokeWidth=4;" parent="1" vertex="1">
          <mxGeometry x="-881.89" y="1540" width="150" height="60" as="geometry" />
        </mxCell>
        <mxCell id="tZtnKp5M03eyO23c1v6A-103" value="&lt;pre&gt;&lt;b style=&quot;&quot;&gt;&lt;font style=&quot;font-size: 32px;&quot;&gt;precentage&lt;/font&gt;&lt;/b&gt;&lt;/pre&gt;" style="ellipse;whiteSpace=wrap;html=1;align=center;rounded=1;labelBackgroundColor=none;endArrow=none;fontSize=11;strokeWidth=4;" parent="1" vertex="1">
          <mxGeometry x="-855.67" y="1706.77" width="230" height="60" as="geometry" />
        </mxCell>
        <mxCell id="tZtnKp5M03eyO23c1v6A-104" value="&lt;pre&gt;&lt;b style=&quot;&quot;&gt;&lt;font style=&quot;font-size: 32px;&quot;&gt;&lt;u&gt;promocode_id&lt;/u&gt;&lt;/font&gt;&lt;/b&gt;&lt;/pre&gt;" style="ellipse;whiteSpace=wrap;html=1;align=center;rounded=1;labelBackgroundColor=none;endArrow=none;fontSize=11;strokeWidth=4;" parent="1" vertex="1">
          <mxGeometry x="-717.4" y="1559.05" width="260" height="60" as="geometry" />
        </mxCell>
        <mxCell id="tZtnKp5M03eyO23c1v6A-106" value="&lt;pre&gt;&lt;span style=&quot;font-size: 36px;&quot;&gt;&lt;b&gt;exp_date&lt;/b&gt;&lt;/span&gt;&lt;/pre&gt;" style="ellipse;whiteSpace=wrap;html=1;align=center;rounded=1;labelBackgroundColor=none;endArrow=none;fontSize=11;strokeWidth=4;" parent="1" vertex="1">
          <mxGeometry x="-855.6700000000001" y="1420" width="210" height="60" as="geometry" />
        </mxCell>
        <mxCell id="tZtnKp5M03eyO23c1v6A-107" value="&lt;pre&gt;&lt;span style=&quot;font-size: 36px;&quot;&gt;&lt;b&gt;last_edit&lt;/b&gt;&lt;/span&gt;&lt;/pre&gt;" style="ellipse;whiteSpace=wrap;html=1;align=center;rounded=1;labelBackgroundColor=none;endArrow=none;fontSize=11;strokeWidth=4;" parent="1" vertex="1">
          <mxGeometry x="-881.89" y="1610" width="240" height="60" as="geometry" />
        </mxCell>
        <mxCell id="tZtnKp5M03eyO23c1v6A-108" value="&lt;pre&gt;&lt;span style=&quot;font-size: 36px;&quot;&gt;&lt;b&gt;created_on&lt;/b&gt;&lt;/span&gt;&lt;/pre&gt;" style="ellipse;whiteSpace=wrap;html=1;align=center;rounded=1;labelBackgroundColor=none;endArrow=none;fontSize=11;strokeWidth=4;" parent="1" vertex="1">
          <mxGeometry x="-657.4" y="1646.77" width="240" height="60" as="geometry" />
        </mxCell>
        <mxCell id="tZtnKp5M03eyO23c1v6A-110" value="" style="endArrow=none;html=1;rounded=1;entryX=0.5;entryY=0;entryDx=0;entryDy=0;exitX=0.5;exitY=1;exitDx=0;exitDy=0;labelBackgroundColor=none;fontColor=default;strokeWidth=4;" parent="1" source="tZtnKp5M03eyO23c1v6A-99" target="tZtnKp5M03eyO23c1v6A-101" edge="1">
          <mxGeometry relative="1" as="geometry">
            <mxPoint x="-185" y="1175" as="sourcePoint" />
            <mxPoint x="-185" y="1311" as="targetPoint" />
          </mxGeometry>
        </mxCell>
        <mxCell id="tZtnKp5M03eyO23c1v6A-113" value="" style="endArrow=none;html=1;rounded=1;entryX=0.5;entryY=0;entryDx=0;entryDy=0;exitX=0.5;exitY=1;exitDx=0;exitDy=0;labelBackgroundColor=none;fontColor=default;strokeWidth=4;" parent="1" source="tZtnKp5M03eyO23c1v6A-99" target="tZtnKp5M03eyO23c1v6A-106" edge="1">
          <mxGeometry relative="1" as="geometry">
            <mxPoint x="-195" y="1380" as="sourcePoint" />
            <mxPoint x="-195" y="1460" as="targetPoint" />
          </mxGeometry>
        </mxCell>
        <mxCell id="tZtnKp5M03eyO23c1v6A-119" value="" style="endArrow=none;html=1;rounded=1;entryX=0.75;entryY=1;entryDx=0;entryDy=0;exitX=0;exitY=0.5;exitDx=0;exitDy=0;labelBackgroundColor=none;fontColor=default;strokeWidth=4;" parent="1" source="tZtnKp5M03eyO23c1v6A-122" target="58sUtSx7XFqsdHOxAqbO-2" edge="1">
          <mxGeometry relative="1" as="geometry">
            <mxPoint x="780" y="720" as="sourcePoint" />
            <mxPoint x="490" y="670" as="targetPoint" />
            <Array as="points">
              <mxPoint x="600" y="720" />
              <mxPoint x="600" y="670" />
              <mxPoint x="478" y="670" />
            </Array>
          </mxGeometry>
        </mxCell>
        <mxCell id="tZtnKp5M03eyO23c1v6A-121" value="&lt;b&gt;&lt;font style=&quot;font-size: 26px;&quot;&gt;1&lt;/font&gt;&lt;/b&gt;" style="edgeLabel;html=1;align=center;verticalAlign=middle;resizable=0;points=[];rounded=1;labelBackgroundColor=none;endArrow=none;strokeWidth=4;" parent="tZtnKp5M03eyO23c1v6A-119" vertex="1" connectable="0">
          <mxGeometry x="0.8563" y="-2" relative="1" as="geometry">
            <mxPoint y="-1" as="offset" />
          </mxGeometry>
        </mxCell>
        <mxCell id="tZtnKp5M03eyO23c1v6A-122" value="&lt;pre&gt;&lt;b&gt;&lt;font style=&quot;font-size: 38px;&quot;&gt;Has&lt;/font&gt;&lt;/b&gt;&lt;/pre&gt;" style="shape=rhombus;perimeter=rhombusPerimeter;whiteSpace=wrap;html=1;align=center;verticalAlign=middle;fontFamily=Helvetica;fontSize=11;rounded=1;labelBackgroundColor=none;endArrow=none;strokeWidth=4;" parent="1" vertex="1">
          <mxGeometry x="690" y="672.5" width="170" height="95" as="geometry" />
        </mxCell>
        <mxCell id="tZtnKp5M03eyO23c1v6A-124" value="" style="endArrow=none;html=1;rounded=1;entryX=1;entryY=0.5;entryDx=0;entryDy=0;exitX=0;exitY=0.5;exitDx=0;exitDy=0;labelBackgroundColor=none;fontColor=default;strokeWidth=4;" parent="1" source="tZtnKp5M03eyO23c1v6A-125" target="tZtnKp5M03eyO23c1v6A-122" edge="1">
          <mxGeometry relative="1" as="geometry">
            <mxPoint x="1050" y="720" as="sourcePoint" />
            <mxPoint x="600" y="767.5" as="targetPoint" />
          </mxGeometry>
        </mxCell>
        <mxCell id="tZtnKp5M03eyO23c1v6A-126" value="&lt;b&gt;&lt;font style=&quot;font-size: 29px;&quot;&gt;N&lt;/font&gt;&lt;/b&gt;" style="edgeLabel;html=1;align=center;verticalAlign=middle;resizable=0;points=[];rounded=1;labelBackgroundColor=none;endArrow=none;strokeWidth=4;" parent="tZtnKp5M03eyO23c1v6A-124" vertex="1" connectable="0">
          <mxGeometry x="-0.5984" y="3" relative="1" as="geometry">
            <mxPoint x="1" y="-3" as="offset" />
          </mxGeometry>
        </mxCell>
        <mxCell id="tZtnKp5M03eyO23c1v6A-125" value="&lt;pre style=&quot;font-size: 36px;&quot;&gt;&lt;b&gt;Bill_Hisory&lt;/b&gt;&lt;/pre&gt;" style="whiteSpace=wrap;html=1;align=center;fontSize=11;rounded=1;labelBackgroundColor=none;endArrow=none;strokeWidth=4;" parent="1" vertex="1">
          <mxGeometry x="1080" y="680" width="290" height="80" as="geometry" />
        </mxCell>
        <mxCell id="tZtnKp5M03eyO23c1v6A-127" value="" style="endArrow=none;html=1;rounded=1;entryX=0.5;entryY=1;entryDx=0;entryDy=0;exitX=0.5;exitY=0;exitDx=0;exitDy=0;labelBackgroundColor=none;fontColor=default;strokeWidth=4;" parent="1" source="tZtnKp5M03eyO23c1v6A-128" target="tZtnKp5M03eyO23c1v6A-125" edge="1">
          <mxGeometry relative="1" as="geometry">
            <mxPoint x="1225" y="840" as="sourcePoint" />
            <mxPoint x="1160" y="425" as="targetPoint" />
          </mxGeometry>
        </mxCell>
        <mxCell id="tZtnKp5M03eyO23c1v6A-128" value="&lt;pre&gt;&lt;span style=&quot;font-size: 36px;&quot;&gt;&lt;b&gt;&lt;u&gt;history_id&lt;/u&gt;&lt;/b&gt;&lt;/span&gt;&lt;/pre&gt;" style="ellipse;whiteSpace=wrap;html=1;align=center;rounded=1;labelBackgroundColor=none;endArrow=none;fontSize=11;strokeWidth=4;" parent="1" vertex="1">
          <mxGeometry x="1320" y="902.5" width="275" height="60" as="geometry" />
        </mxCell>
        <mxCell id="tZtnKp5M03eyO23c1v6A-129" value="&lt;pre&gt;&lt;span style=&quot;font-size: 36px;&quot;&gt;&lt;b&gt;user_id&lt;/b&gt;&lt;/span&gt;&lt;/pre&gt;" style="ellipse;whiteSpace=wrap;html=1;align=center;rounded=1;labelBackgroundColor=none;endArrow=none;fontSize=11;strokeWidth=4;" parent="1" vertex="1">
          <mxGeometry x="1130" y="842.5" width="240" height="60" as="geometry" />
        </mxCell>
        <mxCell id="tZtnKp5M03eyO23c1v6A-130" value="" style="endArrow=none;html=1;rounded=1;entryX=0.5;entryY=1;entryDx=0;entryDy=0;exitX=0.5;exitY=0;exitDx=0;exitDy=0;labelBackgroundColor=none;fontColor=default;strokeWidth=4;" parent="1" source="tZtnKp5M03eyO23c1v6A-129" target="tZtnKp5M03eyO23c1v6A-125" edge="1">
          <mxGeometry relative="1" as="geometry">
            <mxPoint x="1235" y="860" as="sourcePoint" />
            <mxPoint x="1235" y="770" as="targetPoint" />
          </mxGeometry>
        </mxCell>
        <mxCell id="tZtnKp5M03eyO23c1v6A-131" value="&lt;pre&gt;&lt;b&gt;&lt;font style=&quot;font-size: 38px;&quot;&gt;Has&lt;/font&gt;&lt;/b&gt;&lt;/pre&gt;" style="shape=rhombus;perimeter=rhombusPerimeter;whiteSpace=wrap;html=1;align=center;verticalAlign=middle;fontFamily=Helvetica;fontSize=11;rounded=1;labelBackgroundColor=none;endArrow=none;strokeWidth=4;" parent="1" vertex="1">
          <mxGeometry x="940" y="867.5" width="170" height="95" as="geometry" />
        </mxCell>
        <mxCell id="tZtnKp5M03eyO23c1v6A-132" value="" style="endArrow=none;html=1;rounded=1;entryX=0.25;entryY=1;entryDx=0;entryDy=0;exitX=0.5;exitY=0;exitDx=0;exitDy=0;labelBackgroundColor=none;fontColor=default;strokeWidth=4;" parent="1" source="tZtnKp5M03eyO23c1v6A-131" target="tZtnKp5M03eyO23c1v6A-125" edge="1">
          <mxGeometry relative="1" as="geometry">
            <mxPoint x="1370" y="1209" as="sourcePoint" />
            <mxPoint x="870" y="1040" as="targetPoint" />
            <Array as="points">
              <mxPoint x="1025" y="800" />
              <mxPoint x="1153" y="800" />
            </Array>
          </mxGeometry>
        </mxCell>
        <mxCell id="tZtnKp5M03eyO23c1v6A-134" value="&lt;b&gt;&lt;font style=&quot;font-size: 24px;&quot;&gt;1&lt;/font&gt;&lt;/b&gt;" style="edgeLabel;html=1;align=center;verticalAlign=middle;resizable=0;points=[];rounded=1;labelBackgroundColor=none;endArrow=none;strokeWidth=4;" parent="tZtnKp5M03eyO23c1v6A-132" vertex="1" connectable="0">
          <mxGeometry x="0.7949" y="1" relative="1" as="geometry">
            <mxPoint y="-1" as="offset" />
          </mxGeometry>
        </mxCell>
        <mxCell id="tZtnKp5M03eyO23c1v6A-133" value="" style="endArrow=none;html=1;rounded=1;entryX=0.5;entryY=1;entryDx=0;entryDy=0;exitX=0.5;exitY=1;exitDx=0;exitDy=0;labelBackgroundColor=none;fontColor=default;strokeWidth=4;" parent="1" source="tZtnKp5M03eyO23c1v6A-44" target="tZtnKp5M03eyO23c1v6A-131" edge="1">
          <mxGeometry relative="1" as="geometry">
            <mxPoint x="1040" y="1202" as="sourcePoint" />
            <mxPoint x="540" y="1033" as="targetPoint" />
            <Array as="points">
              <mxPoint x="189" y="1276" />
              <mxPoint x="1025" y="1280" />
            </Array>
          </mxGeometry>
        </mxCell>
        <mxCell id="tZtnKp5M03eyO23c1v6A-135" value="&lt;b&gt;&lt;font style=&quot;font-size: 34px;&quot;&gt;N&lt;/font&gt;&lt;/b&gt;" style="edgeLabel;html=1;align=center;verticalAlign=middle;resizable=0;points=[];rounded=1;labelBackgroundColor=none;endArrow=none;strokeWidth=4;" parent="tZtnKp5M03eyO23c1v6A-133" vertex="1" connectable="0">
          <mxGeometry x="-0.9654" y="-2" relative="1" as="geometry">
            <mxPoint y="-1" as="offset" />
          </mxGeometry>
        </mxCell>
        <mxCell id="tZtnKp5M03eyO23c1v6A-136" value="" style="endArrow=none;html=1;rounded=1;exitX=0;exitY=0.25;exitDx=0;exitDy=0;labelBackgroundColor=none;fontColor=default;strokeWidth=4;" parent="1" source="58sUtSx7XFqsdHOxAqbO-2" target="tZtnKp5M03eyO23c1v6A-138" edge="1">
          <mxGeometry relative="1" as="geometry">
            <mxPoint x="330" y="510" as="sourcePoint" />
            <mxPoint x="137" y="480" as="targetPoint" />
            <Array as="points">
              <mxPoint x="-5" y="510" />
            </Array>
          </mxGeometry>
        </mxCell>
        <mxCell id="tZtnKp5M03eyO23c1v6A-137" value="&lt;b&gt;&lt;font style=&quot;font-size: 30px;&quot;&gt;1&lt;/font&gt;&lt;/b&gt;" style="edgeLabel;html=1;align=center;verticalAlign=middle;resizable=0;points=[];rounded=1;labelBackgroundColor=none;endArrow=none;strokeWidth=4;" parent="tZtnKp5M03eyO23c1v6A-136" vertex="1" connectable="0">
          <mxGeometry x="-0.7723" y="-3" relative="1" as="geometry">
            <mxPoint x="-2" as="offset" />
          </mxGeometry>
        </mxCell>
        <mxCell id="tZtnKp5M03eyO23c1v6A-138" value="&lt;pre&gt;&lt;b&gt;&lt;font style=&quot;font-size: 38px;&quot;&gt;has&lt;/font&gt;&lt;/b&gt;&lt;/pre&gt;" style="shape=rhombus;perimeter=rhombusPerimeter;whiteSpace=wrap;html=1;align=center;verticalAlign=middle;fontFamily=Helvetica;fontSize=11;rounded=1;labelBackgroundColor=none;endArrow=none;strokeWidth=4;" parent="1" vertex="1">
          <mxGeometry x="-100" y="370" width="190" height="95" as="geometry" />
        </mxCell>
        <mxCell id="tZtnKp5M03eyO23c1v6A-139" value="&lt;pre style=&quot;font-size: 36px;&quot;&gt;&lt;font style=&quot;font-size: 36px;&quot;&gt;&lt;b style=&quot;font-size: 36px;&quot;&gt;search hisory&lt;/b&gt;&lt;/font&gt;&lt;/pre&gt;" style="whiteSpace=wrap;html=1;align=center;fontSize=11;rounded=1;labelBackgroundColor=none;endArrow=none;strokeWidth=4;" parent="1" vertex="1">
          <mxGeometry x="-150" y="150" width="290" height="77.5" as="geometry" />
        </mxCell>
        <mxCell id="tZtnKp5M03eyO23c1v6A-140" value="" style="endArrow=none;html=1;rounded=1;exitX=0.5;exitY=0;exitDx=0;exitDy=0;entryX=0.5;entryY=1;entryDx=0;entryDy=0;labelBackgroundColor=none;fontColor=default;strokeWidth=4;" parent="1" source="tZtnKp5M03eyO23c1v6A-138" target="tZtnKp5M03eyO23c1v6A-139" edge="1">
          <mxGeometry relative="1" as="geometry">
            <mxPoint x="-1" y="370" as="sourcePoint" />
            <mxPoint x="-5" y="240" as="targetPoint" />
          </mxGeometry>
        </mxCell>
        <mxCell id="tZtnKp5M03eyO23c1v6A-141" value="&lt;b&gt;&lt;font style=&quot;font-size: 22px;&quot;&gt;1&lt;/font&gt;&lt;/b&gt;" style="edgeLabel;html=1;align=center;verticalAlign=middle;resizable=0;points=[];rounded=1;labelBackgroundColor=none;endArrow=none;strokeWidth=4;" parent="tZtnKp5M03eyO23c1v6A-140" vertex="1" connectable="0">
          <mxGeometry x="0.6551" relative="1" as="geometry">
            <mxPoint as="offset" />
          </mxGeometry>
        </mxCell>
        <mxCell id="tZtnKp5M03eyO23c1v6A-143" value="&lt;pre&gt;&lt;span style=&quot;font-size: 36px;&quot;&gt;&lt;b&gt;query&lt;/b&gt;&lt;/span&gt;&lt;/pre&gt;" style="ellipse;whiteSpace=wrap;html=1;align=center;rounded=1;labelBackgroundColor=none;endArrow=none;fontSize=11;strokeWidth=4;" parent="1" vertex="1">
          <mxGeometry x="-260" y="10" width="200" height="60" as="geometry" />
        </mxCell>
        <mxCell id="tZtnKp5M03eyO23c1v6A-144" value="&lt;pre&gt;&lt;span style=&quot;font-size: 36px;&quot;&gt;&lt;b&gt;date&lt;/b&gt;&lt;/span&gt;&lt;/pre&gt;" style="ellipse;whiteSpace=wrap;html=1;align=center;rounded=1;labelBackgroundColor=none;endArrow=none;fontSize=11;strokeWidth=4;" parent="1" vertex="1">
          <mxGeometry x="-190" y="-110" width="200" height="60" as="geometry" />
        </mxCell>
        <mxCell id="tZtnKp5M03eyO23c1v6A-145" value="&lt;pre&gt;&lt;span style=&quot;font-size: 36px;&quot;&gt;&lt;b&gt;&lt;u&gt;search_id&lt;/u&gt;&lt;/b&gt;&lt;/span&gt;&lt;/pre&gt;" style="ellipse;whiteSpace=wrap;html=1;align=center;rounded=1;labelBackgroundColor=none;endArrow=none;fontSize=11;strokeWidth=4;" parent="1" vertex="1">
          <mxGeometry x="-40" y="-60" width="240" height="60" as="geometry" />
        </mxCell>
        <mxCell id="tZtnKp5M03eyO23c1v6A-147" value="" style="endArrow=none;html=1;rounded=1;entryX=0.5;entryY=1;entryDx=0;entryDy=0;exitX=0.5;exitY=0;exitDx=0;exitDy=0;labelBackgroundColor=none;fontColor=default;strokeWidth=4;" parent="1" source="tZtnKp5M03eyO23c1v6A-139" target="tZtnKp5M03eyO23c1v6A-145" edge="1">
          <mxGeometry relative="1" as="geometry">
            <mxPoint y="150" as="sourcePoint" />
            <mxPoint x="250" y="380" as="targetPoint" />
          </mxGeometry>
        </mxCell>
        <mxCell id="tZtnKp5M03eyO23c1v6A-148" value="" style="endArrow=none;html=1;rounded=1;entryX=0.5;entryY=1;entryDx=0;entryDy=0;exitX=0.5;exitY=0;exitDx=0;exitDy=0;labelBackgroundColor=none;fontColor=default;strokeWidth=4;" parent="1" source="tZtnKp5M03eyO23c1v6A-139" target="tZtnKp5M03eyO23c1v6A-146" edge="1">
          <mxGeometry relative="1" as="geometry">
            <mxPoint x="455" y="510" as="sourcePoint" />
            <mxPoint x="260" y="390" as="targetPoint" />
          </mxGeometry>
        </mxCell>
        <mxCell id="tZtnKp5M03eyO23c1v6A-149" value="" style="endArrow=none;html=1;rounded=1;entryX=0.5;entryY=1;entryDx=0;entryDy=0;exitX=0.5;exitY=0;exitDx=0;exitDy=0;labelBackgroundColor=none;fontColor=default;strokeWidth=4;" parent="1" source="tZtnKp5M03eyO23c1v6A-139" target="tZtnKp5M03eyO23c1v6A-144" edge="1">
          <mxGeometry relative="1" as="geometry">
            <mxPoint x="465" y="520" as="sourcePoint" />
            <mxPoint x="270" y="400" as="targetPoint" />
          </mxGeometry>
        </mxCell>
        <mxCell id="tZtnKp5M03eyO23c1v6A-146" value="&lt;pre&gt;&lt;span style=&quot;font-size: 36px;&quot;&gt;&lt;b&gt;user_id&lt;/b&gt;&lt;/span&gt;&lt;/pre&gt;" style="ellipse;whiteSpace=wrap;html=1;align=center;rounded=1;labelBackgroundColor=none;endArrow=none;fontSize=11;strokeWidth=4;" parent="1" vertex="1">
          <mxGeometry x="70" y="30" width="200" height="60" as="geometry" />
        </mxCell>
        <mxCell id="tZtnKp5M03eyO23c1v6A-150" value="" style="endArrow=none;html=1;rounded=1;entryX=0.5;entryY=1;entryDx=0;entryDy=0;exitX=0.5;exitY=0;exitDx=0;exitDy=0;labelBackgroundColor=none;fontColor=default;strokeWidth=4;" parent="1" source="tZtnKp5M03eyO23c1v6A-139" target="tZtnKp5M03eyO23c1v6A-143" edge="1">
          <mxGeometry relative="1" as="geometry">
            <mxPoint y="150" as="sourcePoint" />
            <mxPoint x="-130" y="110" as="targetPoint" />
          </mxGeometry>
        </mxCell>
        <mxCell id="tZtnKp5M03eyO23c1v6A-151" value="&lt;pre&gt;&lt;b&gt;&lt;font style=&quot;font-size: 38px;&quot;&gt;has&lt;/font&gt;&lt;/b&gt;&lt;/pre&gt;" style="shape=rhombus;perimeter=rhombusPerimeter;whiteSpace=wrap;html=1;align=center;verticalAlign=middle;fontFamily=Helvetica;fontSize=11;rounded=1;labelBackgroundColor=none;endArrow=none;strokeWidth=4;" parent="1" vertex="1">
          <mxGeometry x="-320" y="357.5" width="190" height="95" as="geometry" />
        </mxCell>
        <mxCell id="tZtnKp5M03eyO23c1v6A-152" value="" style="endArrow=none;html=1;rounded=1;entryX=0.5;entryY=1;entryDx=0;entryDy=0;exitX=0;exitY=0.25;exitDx=0;exitDy=0;labelBackgroundColor=none;fontColor=default;strokeWidth=4;" parent="1" source="tZtnKp5M03eyO23c1v6A-44" target="tZtnKp5M03eyO23c1v6A-151" edge="1">
          <mxGeometry relative="1" as="geometry">
            <mxPoint x="20" y="780" as="sourcePoint" />
            <mxPoint x="250" y="380" as="targetPoint" />
            <Array as="points">
              <mxPoint x="-10" y="719" />
              <mxPoint x="-10" y="570" />
              <mxPoint x="-225" y="570" />
            </Array>
          </mxGeometry>
        </mxCell>
        <mxCell id="tZtnKp5M03eyO23c1v6A-153" value="" style="endArrow=none;html=1;rounded=1;entryX=0.538;entryY=-0.019;entryDx=0;entryDy=0;exitX=0;exitY=0.5;exitDx=0;exitDy=0;entryPerimeter=0;labelBackgroundColor=none;fontColor=default;strokeWidth=4;" parent="1" source="tZtnKp5M03eyO23c1v6A-139" target="tZtnKp5M03eyO23c1v6A-151" edge="1">
          <mxGeometry relative="1" as="geometry">
            <mxPoint x="5" y="160" as="sourcePoint" />
            <mxPoint x="-150" y="80" as="targetPoint" />
            <Array as="points">
              <mxPoint x="-218" y="189" />
            </Array>
          </mxGeometry>
        </mxCell>
        <mxCell id="tZtnKp5M03eyO23c1v6A-154" value="&lt;pre&gt;&lt;b&gt;&lt;font style=&quot;font-size: 38px;&quot;&gt;contains&lt;/font&gt;&lt;/b&gt;&lt;/pre&gt;" style="shape=rhombus;perimeter=rhombusPerimeter;whiteSpace=wrap;html=1;align=center;verticalAlign=middle;fontFamily=Helvetica;fontSize=11;rounded=1;labelBackgroundColor=none;endArrow=none;strokeWidth=4;" parent="1" vertex="1">
          <mxGeometry x="-110.24" y="975" width="260.23" height="95" as="geometry" />
        </mxCell>
        <mxCell id="tZtnKp5M03eyO23c1v6A-155" value="" style="endArrow=none;html=1;rounded=1;exitX=0.5;exitY=0;exitDx=0;exitDy=0;entryX=0.25;entryY=1;entryDx=0;entryDy=0;labelBackgroundColor=none;fontColor=default;strokeWidth=4;" parent="1" source="tZtnKp5M03eyO23c1v6A-154" target="tZtnKp5M03eyO23c1v6A-44" edge="1">
          <mxGeometry relative="1" as="geometry">
            <mxPoint x="290.748" y="840.748" as="sourcePoint" />
            <mxPoint x="289.748" y="793.748" as="targetPoint" />
            <Array as="points">
              <mxPoint x="20" y="882" />
              <mxPoint x="116" y="882" />
            </Array>
          </mxGeometry>
        </mxCell>
        <mxCell id="tZtnKp5M03eyO23c1v6A-161" value="&lt;b&gt;&lt;font style=&quot;font-size: 32px;&quot;&gt;1&lt;/font&gt;&lt;/b&gt;" style="edgeLabel;html=1;align=center;verticalAlign=middle;resizable=0;points=[];fontSize=11;fontFamily=Helvetica;labelBackgroundColor=none;endArrow=none;rounded=1;strokeWidth=4;" parent="tZtnKp5M03eyO23c1v6A-155" vertex="1" connectable="0">
          <mxGeometry x="0.8505" y="1" relative="1" as="geometry">
            <mxPoint as="offset" />
          </mxGeometry>
        </mxCell>
        <mxCell id="tZtnKp5M03eyO23c1v6A-156" value="" style="endArrow=none;html=1;rounded=1;entryX=0.5;entryY=1;entryDx=0;entryDy=0;exitX=0.5;exitY=0;exitDx=0;exitDy=0;labelBackgroundColor=none;fontColor=default;strokeWidth=4;" parent="1" source="tZtnKp5M03eyO23c1v6A-158" target="tZtnKp5M03eyO23c1v6A-154" edge="1">
          <mxGeometry relative="1" as="geometry">
            <mxPoint x="583" y="1496" as="sourcePoint" />
            <mxPoint x="305.496" y="809.496" as="targetPoint" />
            <Array as="points">
              <mxPoint x="598" y="1323" />
              <mxPoint x="16" y="1323" />
            </Array>
          </mxGeometry>
        </mxCell>
        <mxCell id="tZtnKp5M03eyO23c1v6A-162" value="&lt;b&gt;&lt;font style=&quot;font-size: 30px;&quot;&gt;N&lt;/font&gt;&lt;/b&gt;" style="edgeLabel;html=1;align=center;verticalAlign=middle;resizable=0;points=[];fontSize=11;fontFamily=Helvetica;labelBackgroundColor=none;endArrow=none;rounded=1;strokeWidth=4;" parent="tZtnKp5M03eyO23c1v6A-156" vertex="1" connectable="0">
          <mxGeometry x="-0.9425" relative="1" as="geometry">
            <mxPoint as="offset" />
          </mxGeometry>
        </mxCell>
        <mxCell id="tZtnKp5M03eyO23c1v6A-158" value="&lt;pre style=&quot;font-size: 36px;&quot;&gt;&lt;font style=&quot;font-size: 36px;&quot;&gt;&lt;span style=&quot;font-size: 36px;&quot;&gt;&lt;b&gt;Product&lt;/b&gt;&lt;/span&gt;&lt;/font&gt;&lt;/pre&gt;" style="whiteSpace=wrap;html=1;align=center;fontSize=11;rounded=1;labelBackgroundColor=none;endArrow=none;strokeWidth=4;" parent="1" vertex="1">
          <mxGeometry x="516.2180000000001" y="1529.998" width="170" height="80" as="geometry" />
        </mxCell>
        <mxCell id="tZtnKp5M03eyO23c1v6A-172" value="&lt;pre&gt;&lt;span style=&quot;font-size: 36px;&quot;&gt;&lt;b&gt;Category_id&lt;/b&gt;&lt;/span&gt;&lt;/pre&gt;" style="ellipse;whiteSpace=wrap;html=1;align=center;rounded=1;labelBackgroundColor=none;endArrow=none;fontSize=11;strokeWidth=4;" parent="1" vertex="1">
          <mxGeometry x="263.51000000000005" y="1657.79" width="275.43" height="60" as="geometry" />
        </mxCell>
        <mxCell id="tZtnKp5M03eyO23c1v6A-173" value="&lt;pre&gt;&lt;span style=&quot;font-size: 36px;&quot;&gt;&lt;b&gt;last_edit&lt;/b&gt;&lt;/span&gt;&lt;/pre&gt;" style="ellipse;whiteSpace=wrap;html=1;align=center;rounded=1;labelBackgroundColor=none;endArrow=none;fontSize=11;strokeWidth=4;" parent="1" vertex="1">
          <mxGeometry x="326.216" y="1906.056" width="240" height="60" as="geometry" />
        </mxCell>
        <mxCell id="tZtnKp5M03eyO23c1v6A-174" value="&lt;pre&gt;&lt;span style=&quot;font-size: 36px;&quot;&gt;&lt;b&gt;created_on&lt;/b&gt;&lt;/span&gt;&lt;/pre&gt;" style="ellipse;whiteSpace=wrap;html=1;align=center;rounded=1;labelBackgroundColor=none;endArrow=none;fontSize=11;strokeWidth=4;" parent="1" vertex="1">
          <mxGeometry x="651.2180000000001" y="1766.768" width="240" height="60" as="geometry" />
        </mxCell>
        <mxCell id="tZtnKp5M03eyO23c1v6A-175" value="&lt;pre&gt;&lt;span style=&quot;font-size: 36px;&quot;&gt;&lt;b&gt;Name&lt;/b&gt;&lt;/span&gt;&lt;/pre&gt;" style="ellipse;whiteSpace=wrap;html=1;align=center;rounded=1;labelBackgroundColor=none;endArrow=none;fontSize=11;strokeWidth=4;" parent="1" vertex="1">
          <mxGeometry x="469.99800000000016" y="1984.248" width="150" height="60" as="geometry" />
        </mxCell>
        <mxCell id="tZtnKp5M03eyO23c1v6A-177" value="&lt;pre&gt;&lt;span style=&quot;font-size: 36px;&quot;&gt;&lt;b&gt;img&lt;/b&gt;&lt;/span&gt;&lt;/pre&gt;" style="ellipse;whiteSpace=wrap;html=1;align=center;rounded=1;labelBackgroundColor=none;endArrow=none;fontSize=11;strokeWidth=4;" parent="1" vertex="1">
          <mxGeometry x="246.2240000000002" y="1741.804" width="150" height="60" as="geometry" />
        </mxCell>
        <mxCell id="tZtnKp5M03eyO23c1v6A-178" value="&lt;pre&gt;&lt;span style=&quot;font-size: 36px;&quot;&gt;&lt;b&gt;Price&lt;/b&gt;&lt;/span&gt;&lt;/pre&gt;" style="ellipse;whiteSpace=wrap;html=1;align=center;rounded=1;labelBackgroundColor=none;endArrow=none;fontSize=11;strokeWidth=4;" parent="1" vertex="1">
          <mxGeometry x="530.0020000000001" y="1817.7820000000002" width="150" height="60" as="geometry" />
        </mxCell>
        <mxCell id="tZtnKp5M03eyO23c1v6A-179" value="&lt;pre&gt;&lt;span style=&quot;font-size: 36px;&quot;&gt;&lt;b&gt;brand_id&lt;/b&gt;&lt;/span&gt;&lt;/pre&gt;" style="ellipse;whiteSpace=wrap;html=1;align=center;rounded=1;labelBackgroundColor=none;endArrow=none;fontSize=11;strokeWidth=4;" parent="1" vertex="1">
          <mxGeometry x="202.55999999999997" y="1826.77" width="227.44" height="60" as="geometry" />
        </mxCell>
        <mxCell id="tZtnKp5M03eyO23c1v6A-180" value="&lt;pre&gt;&lt;b style=&quot;&quot;&gt;&lt;font style=&quot;font-size: 32px;&quot;&gt;&lt;u&gt;product_id&lt;/u&gt;&lt;/font&gt;&lt;/b&gt;&lt;/pre&gt;" style="ellipse;whiteSpace=wrap;html=1;align=center;rounded=1;labelBackgroundColor=none;endArrow=none;fontSize=11;strokeWidth=4;" parent="1" vertex="1">
          <mxGeometry x="570" y="1687.79" width="223.7" height="60" as="geometry" />
        </mxCell>
        <mxCell id="tZtnKp5M03eyO23c1v6A-181" value="&lt;pre&gt;&lt;span style=&quot;font-size: 36px;&quot;&gt;&lt;b&gt;Description&lt;/b&gt;&lt;/span&gt;&lt;/pre&gt;" style="ellipse;whiteSpace=wrap;html=1;align=center;rounded=1;labelBackgroundColor=none;endArrow=none;fontSize=11;strokeWidth=4;" parent="1" vertex="1">
          <mxGeometry x="584.02" y="1886.77" width="275.98" height="60" as="geometry" />
        </mxCell>
        <mxCell id="tZtnKp5M03eyO23c1v6A-182" value="&lt;pre&gt;&lt;b&gt;&lt;font style=&quot;font-size: 36px;&quot;&gt;Rate&lt;/font&gt;&lt;/b&gt;&lt;/pre&gt;" style="ellipse;whiteSpace=wrap;html=1;align=center;dashed=1;hachureGap=4;fontFamily=Helvetica;fontSource=https%3A%2F%2Ffonts.googleapis.com%2Fcss%3Ffamily%3DArchitects%2BDaughter;fontSize=11;strokeWidth=4;perimeterSpacing=13;labelBackgroundColor=none;endArrow=none;rounded=1;" parent="1" vertex="1">
          <mxGeometry x="401.58000000000004" y="1741.8" width="168.42" height="75.98" as="geometry" />
        </mxCell>
        <mxCell id="tZtnKp5M03eyO23c1v6A-183" value="&lt;pre style=&quot;border-color: var(--border-color);&quot;&gt;&lt;b style=&quot;border-color: var(--border-color);&quot;&gt;&lt;font style=&quot;font-size: 35px;&quot;&gt;Tag&lt;/font&gt;&lt;/b&gt;&lt;/pre&gt;" style="ellipse;shape=doubleEllipse;margin=3;whiteSpace=wrap;html=1;align=center;strokeWidth=4;perimeterSpacing=14;rounded=1;labelBackgroundColor=none;endArrow=none;fontSize=11;" parent="1" vertex="1">
          <mxGeometry x="686.2180000000001" y="1637.788" width="170" height="50" as="geometry" />
        </mxCell>
        <mxCell id="tZtnKp5M03eyO23c1v6A-184" value="" style="endArrow=none;html=1;rounded=1;entryX=0.5;entryY=0;entryDx=0;entryDy=0;exitX=0.5;exitY=1;exitDx=0;exitDy=0;labelBackgroundColor=none;fontColor=default;strokeWidth=4;" parent="1" source="tZtnKp5M03eyO23c1v6A-158" target="tZtnKp5M03eyO23c1v6A-172" edge="1">
          <mxGeometry relative="1" as="geometry">
            <mxPoint x="601.2180000000005" y="1637.788" as="sourcePoint" />
            <mxPoint x="-353.032" y="1483.538" as="targetPoint" />
          </mxGeometry>
        </mxCell>
        <mxCell id="tZtnKp5M03eyO23c1v6A-186" value="" style="endArrow=none;html=1;rounded=1;entryX=0.52;entryY=0.208;entryDx=0;entryDy=0;exitX=0.5;exitY=1;exitDx=0;exitDy=0;entryPerimeter=0;labelBackgroundColor=none;fontColor=default;strokeWidth=4;" parent="1" source="tZtnKp5M03eyO23c1v6A-158" target="tZtnKp5M03eyO23c1v6A-183" edge="1">
          <mxGeometry relative="1" as="geometry">
            <mxPoint x="626.496" y="1621.496" as="sourcePoint" />
            <mxPoint x="432.496" y="1689.496" as="targetPoint" />
          </mxGeometry>
        </mxCell>
        <mxCell id="tZtnKp5M03eyO23c1v6A-187" value="" style="endArrow=none;html=1;rounded=1;exitX=0.5;exitY=1;exitDx=0;exitDy=0;labelBackgroundColor=none;fontColor=default;strokeWidth=4;" parent="1" source="tZtnKp5M03eyO23c1v6A-158" target="tZtnKp5M03eyO23c1v6A-180" edge="1">
          <mxGeometry relative="1" as="geometry">
            <mxPoint x="642.244" y="1637.244" as="sourcePoint" />
            <mxPoint x="448.244" y="1705.244" as="targetPoint" />
          </mxGeometry>
        </mxCell>
        <mxCell id="tZtnKp5M03eyO23c1v6A-196" value="&lt;pre&gt;&lt;span style=&quot;font-size: 36px;&quot;&gt;&lt;b&gt;color&lt;/b&gt;&lt;/span&gt;&lt;/pre&gt;" style="ellipse;whiteSpace=wrap;html=1;align=center;rounded=1;labelBackgroundColor=none;endArrow=none;fontSize=11;strokeWidth=4;" parent="1" vertex="1">
          <mxGeometry x="160.0020000000002" y="1966.0520000000001" width="150" height="60" as="geometry" />
        </mxCell>
        <mxCell id="tZtnKp5M03eyO23c1v6A-197" value="&lt;pre&gt;&lt;span style=&quot;font-size: 36px;&quot;&gt;&lt;b&gt;Size&lt;/b&gt;&lt;/span&gt;&lt;/pre&gt;" style="ellipse;whiteSpace=wrap;html=1;align=center;rounded=1;labelBackgroundColor=none;endArrow=none;fontSize=11;strokeWidth=4;" parent="1" vertex="1">
          <mxGeometry x="625.0000000000002" y="2000.0000000000002" width="150" height="60" as="geometry" />
        </mxCell>
        <mxCell id="tZtnKp5M03eyO23c1v6A-200" value="&lt;pre&gt;&lt;b&gt;&lt;font style=&quot;font-size: 38px;&quot;&gt;Has&lt;/font&gt;&lt;/b&gt;&lt;/pre&gt;" style="shape=rhombus;perimeter=rhombusPerimeter;whiteSpace=wrap;html=1;align=center;verticalAlign=middle;fontFamily=Helvetica;fontSize=11;rounded=1;labelBackgroundColor=none;endArrow=none;strokeWidth=4;" parent="1" vertex="1">
          <mxGeometry x="569.998" y="154.998" width="170" height="95" as="geometry" />
        </mxCell>
        <mxCell id="tZtnKp5M03eyO23c1v6A-201" value="" style="endArrow=none;html=1;rounded=1;fontFamily=Helvetica;fontSize=11;fontColor=default;exitX=0.993;exitY=0.111;exitDx=0;exitDy=0;exitPerimeter=0;labelBackgroundColor=none;strokeWidth=4;" parent="1" source="58sUtSx7XFqsdHOxAqbO-2" target="tZtnKp5M03eyO23c1v6A-200" edge="1">
          <mxGeometry relative="1" as="geometry">
            <mxPoint x="530" y="436.25" as="sourcePoint" />
            <mxPoint x="1029.998" y="96.24799999999999" as="targetPoint" />
            <Array as="points">
              <mxPoint x="614" y="499" />
              <mxPoint x="614" y="441" />
              <mxPoint x="655" y="441" />
            </Array>
          </mxGeometry>
        </mxCell>
        <mxCell id="tZtnKp5M03eyO23c1v6A-202" value="1" style="edgeLabel;html=1;align=center;verticalAlign=middle;resizable=0;points=[];fontSize=11;fontFamily=Helvetica;rounded=1;labelBackgroundColor=none;endArrow=none;strokeWidth=4;" parent="tZtnKp5M03eyO23c1v6A-201" vertex="1" connectable="0">
          <mxGeometry x="-0.8258" y="2" relative="1" as="geometry">
            <mxPoint as="offset" />
          </mxGeometry>
        </mxCell>
        <mxCell id="tZtnKp5M03eyO23c1v6A-203" value="&lt;pre style=&quot;font-size: 36px;&quot;&gt;&lt;font style=&quot;font-size: 36px;&quot;&gt;&lt;b style=&quot;font-size: 36px;&quot;&gt;Shopping Cart&lt;/b&gt;&lt;/font&gt;&lt;/pre&gt;" style="whiteSpace=wrap;html=1;align=center;fontSize=11;rounded=1;labelBackgroundColor=none;endArrow=none;strokeWidth=4;" parent="1" vertex="1">
          <mxGeometry x="509.998" y="-267.712" width="290" height="77.5" as="geometry" />
        </mxCell>
        <mxCell id="tZtnKp5M03eyO23c1v6A-204" value="" style="endArrow=none;html=1;rounded=1;entryX=0.5;entryY=1;entryDx=0;entryDy=0;exitX=0.5;exitY=0;exitDx=0;exitDy=0;labelBackgroundColor=none;fontColor=default;strokeWidth=4;" parent="1" source="tZtnKp5M03eyO23c1v6A-200" target="tZtnKp5M03eyO23c1v6A-203" edge="1">
          <mxGeometry relative="1" as="geometry">
            <mxPoint x="10.748" y="165.748" as="sourcePoint" />
            <mxPoint x="185.748" y="105.748" as="targetPoint" />
            <Array as="points">
              <mxPoint x="655" />
              <mxPoint x="655" y="-63" />
            </Array>
          </mxGeometry>
        </mxCell>
        <mxCell id="tZtnKp5M03eyO23c1v6A-213" value="&lt;b&gt;&lt;font style=&quot;font-size: 35px;&quot;&gt;1&lt;/font&gt;&lt;/b&gt;" style="edgeLabel;html=1;align=center;verticalAlign=middle;resizable=0;points=[];fontSize=11;fontFamily=Helvetica;labelBackgroundColor=none;endArrow=none;rounded=1;strokeWidth=4;" parent="tZtnKp5M03eyO23c1v6A-204" vertex="1" connectable="0">
          <mxGeometry x="0.8815" y="-1" relative="1" as="geometry">
            <mxPoint x="-1" y="13" as="offset" />
          </mxGeometry>
        </mxCell>
        <mxCell id="tZtnKp5M03eyO23c1v6A-205" value="&lt;pre&gt;&lt;span style=&quot;font-size: 36px;&quot;&gt;&lt;b&gt;user_id&lt;/b&gt;&lt;/span&gt;&lt;/pre&gt;" style="ellipse;whiteSpace=wrap;html=1;align=center;rounded=1;labelBackgroundColor=none;endArrow=none;fontSize=11;strokeWidth=4;" parent="1" vertex="1">
          <mxGeometry x="599.998" y="-453.702" width="200" height="60" as="geometry" />
        </mxCell>
        <mxCell id="tZtnKp5M03eyO23c1v6A-206" value="&lt;pre&gt;&lt;span style=&quot;font-size: 36px;&quot;&gt;&lt;b&gt;cart_id&lt;/b&gt;&lt;/span&gt;&lt;/pre&gt;" style="ellipse;whiteSpace=wrap;html=1;align=center;rounded=1;labelBackgroundColor=none;endArrow=none;fontSize=11;strokeWidth=4;" parent="1" vertex="1">
          <mxGeometry x="469.99600000000015" y="-377.72400000000005" width="200" height="60" as="geometry" />
        </mxCell>
        <mxCell id="tZtnKp5M03eyO23c1v6A-209" value="&lt;pre&gt;&lt;b&gt;&lt;font style=&quot;font-size: 36px;&quot;&gt;total_price&lt;/font&gt;&lt;/b&gt;&lt;/pre&gt;" style="ellipse;whiteSpace=wrap;html=1;align=center;dashed=1;hachureGap=4;fontFamily=Helvetica;fontSource=https%3A%2F%2Ffonts.googleapis.com%2Fcss%3Ffamily%3DArchitects%2BDaughter;fontSize=11;strokeWidth=4;perimeterSpacing=13;labelBackgroundColor=none;endArrow=none;rounded=1;" parent="1" vertex="1">
          <mxGeometry x="708.66" y="-393.7" width="283.47" height="75.98" as="geometry" />
        </mxCell>
        <mxCell id="tZtnKp5M03eyO23c1v6A-210" value="" style="endArrow=none;html=1;rounded=1;exitX=0.5;exitY=0;exitDx=0;exitDy=0;labelBackgroundColor=none;fontColor=default;strokeWidth=4;" parent="1" source="tZtnKp5M03eyO23c1v6A-203" target="tZtnKp5M03eyO23c1v6A-209" edge="1">
          <mxGeometry relative="1" as="geometry">
            <mxPoint x="10.748" y="165.748" as="sourcePoint" />
            <mxPoint x="185.748" y="105.748" as="targetPoint" />
          </mxGeometry>
        </mxCell>
        <mxCell id="tZtnKp5M03eyO23c1v6A-211" value="" style="endArrow=none;html=1;rounded=1;exitX=0.5;exitY=0;exitDx=0;exitDy=0;entryX=0.5;entryY=1;entryDx=0;entryDy=0;labelBackgroundColor=none;fontColor=default;strokeWidth=4;" parent="1" source="tZtnKp5M03eyO23c1v6A-203" target="tZtnKp5M03eyO23c1v6A-205" edge="1">
          <mxGeometry relative="1" as="geometry">
            <mxPoint x="670.748" y="-252.252" as="sourcePoint" />
            <mxPoint x="774.748" y="-299.252" as="targetPoint" />
          </mxGeometry>
        </mxCell>
        <mxCell id="tZtnKp5M03eyO23c1v6A-212" value="" style="endArrow=none;html=1;rounded=1;exitX=0.5;exitY=0;exitDx=0;exitDy=0;entryX=0.5;entryY=1;entryDx=0;entryDy=0;labelBackgroundColor=none;fontColor=default;strokeWidth=4;" parent="1" source="tZtnKp5M03eyO23c1v6A-203" target="tZtnKp5M03eyO23c1v6A-206" edge="1">
          <mxGeometry relative="1" as="geometry">
            <mxPoint x="686.496" y="-236.504" as="sourcePoint" />
            <mxPoint x="790.496" y="-283.504" as="targetPoint" />
          </mxGeometry>
        </mxCell>
        <mxCell id="tZtnKp5M03eyO23c1v6A-214" value="&lt;pre&gt;&lt;b&gt;&lt;font style=&quot;font-size: 38px;&quot;&gt;containts&lt;/font&gt;&lt;/b&gt;&lt;/pre&gt;" style="shape=rhombus;perimeter=rhombusPerimeter;whiteSpace=wrap;html=1;align=center;verticalAlign=middle;fontFamily=Helvetica;fontSize=11;rounded=1;labelBackgroundColor=none;endArrow=none;strokeWidth=4;" parent="1" vertex="1">
          <mxGeometry x="-257.71999999999997" y="-285.21" width="285.44" height="95" as="geometry" />
        </mxCell>
        <mxCell id="tZtnKp5M03eyO23c1v6A-215" value="" style="endArrow=none;html=1;rounded=1;exitX=0;exitY=0.5;exitDx=0;exitDy=0;entryX=1;entryY=0.5;entryDx=0;entryDy=0;labelBackgroundColor=none;fontColor=default;strokeWidth=4;" parent="1" source="tZtnKp5M03eyO23c1v6A-203" target="tZtnKp5M03eyO23c1v6A-214" edge="1">
          <mxGeometry relative="1" as="geometry">
            <mxPoint x="670.748" y="-252.252" as="sourcePoint" />
            <mxPoint x="715.748" y="-378.252" as="targetPoint" />
          </mxGeometry>
        </mxCell>
        <mxCell id="tZtnKp5M03eyO23c1v6A-216" value="" style="endArrow=none;html=1;rounded=1;exitX=0;exitY=0.5;exitDx=0;exitDy=0;entryX=0.335;entryY=-0.068;entryDx=0;entryDy=0;entryPerimeter=0;labelBackgroundColor=none;fontColor=default;strokeWidth=4;" parent="1" source="tZtnKp5M03eyO23c1v6A-214" target="tZtnKp5M03eyO23c1v6A-217" edge="1">
          <mxGeometry relative="1" as="geometry">
            <mxPoint x="-60.00199999999995" y="-293.262" as="sourcePoint" />
            <mxPoint x="-1228" y="299" as="targetPoint" />
            <Array as="points">
              <mxPoint x="-1087" y="-238" />
            </Array>
          </mxGeometry>
        </mxCell>
        <mxCell id="tZtnKp5M03eyO23c1v6A-218" value="&lt;b&gt;&lt;font style=&quot;font-size: 38px;&quot;&gt;N&lt;/font&gt;&lt;/b&gt;" style="edgeLabel;html=1;align=center;verticalAlign=middle;resizable=0;points=[];fontSize=11;fontFamily=Helvetica;labelBackgroundColor=none;endArrow=none;rounded=1;strokeWidth=4;" parent="tZtnKp5M03eyO23c1v6A-216" vertex="1" connectable="0">
          <mxGeometry x="0.9334" y="-1" relative="1" as="geometry">
            <mxPoint as="offset" />
          </mxGeometry>
        </mxCell>
        <mxCell id="tZtnKp5M03eyO23c1v6A-217" value="&lt;pre style=&quot;font-size: 36px;&quot;&gt;&lt;b&gt;item &lt;/b&gt;&lt;/pre&gt;" style="whiteSpace=wrap;html=1;align=center;fontSize=11;rounded=1;labelBackgroundColor=none;endArrow=none;strokeWidth=4;" parent="1" vertex="1">
          <mxGeometry x="-1181.1019999999999" y="497.49800000000005" width="290" height="77.5" as="geometry" />
        </mxCell>
        <mxCell id="tZtnKp5M03eyO23c1v6A-219" value="&lt;pre&gt;&lt;b&gt;&lt;font style=&quot;font-size: 38px;&quot;&gt;includes&lt;/font&gt;&lt;/b&gt;&lt;/pre&gt;" style="shape=rhombus;perimeter=rhombusPerimeter;whiteSpace=wrap;html=1;align=center;verticalAlign=middle;fontFamily=Helvetica;fontSize=11;rounded=1;labelBackgroundColor=none;endArrow=none;strokeWidth=4;" parent="1" vertex="1">
          <mxGeometry x="-1169.9599999999998" y="1228.34" width="267.72" height="95" as="geometry" />
        </mxCell>
        <mxCell id="tZtnKp5M03eyO23c1v6A-220" value="" style="endArrow=none;html=1;rounded=1;entryX=0.5;entryY=0;entryDx=0;entryDy=0;exitX=0.5;exitY=1;exitDx=0;exitDy=0;labelBackgroundColor=none;fontColor=default;strokeWidth=4;" parent="1" source="tZtnKp5M03eyO23c1v6A-217" target="tZtnKp5M03eyO23c1v6A-219" edge="1">
          <mxGeometry relative="1" as="geometry">
            <mxPoint x="65.748" y="754.748" as="sourcePoint" />
            <mxPoint x="-470.252" y="811.748" as="targetPoint" />
          </mxGeometry>
        </mxCell>
        <mxCell id="tZtnKp5M03eyO23c1v6A-221" value="" style="endArrow=none;html=1;rounded=1;entryX=0.5;entryY=1;entryDx=0;entryDy=0;exitX=0;exitY=0.25;exitDx=0;exitDy=0;labelBackgroundColor=none;fontColor=default;strokeWidth=4;" parent="1" source="tZtnKp5M03eyO23c1v6A-158" target="tZtnKp5M03eyO23c1v6A-219" edge="1">
          <mxGeometry relative="1" as="geometry">
            <mxPoint x="-1020.252" y="590.748" as="sourcePoint" />
            <mxPoint x="-1020.252" y="823.748" as="targetPoint" />
            <Array as="points">
              <mxPoint x="-409" y="1550" />
              <mxPoint x="-409" y="1827" />
              <mxPoint x="-1036" y="1827" />
            </Array>
          </mxGeometry>
        </mxCell>
        <mxCell id="tZtnKp5M03eyO23c1v6A-222" value="&lt;b&gt;&lt;font style=&quot;font-size: 35px;&quot;&gt;N&lt;/font&gt;&lt;/b&gt;" style="edgeLabel;html=1;align=center;verticalAlign=middle;resizable=0;points=[];fontSize=11;fontFamily=Helvetica;labelBackgroundColor=none;endArrow=none;rounded=1;strokeWidth=4;" parent="tZtnKp5M03eyO23c1v6A-221" vertex="1" connectable="0">
          <mxGeometry x="-0.9705" relative="1" as="geometry">
            <mxPoint as="offset" />
          </mxGeometry>
        </mxCell>
        <mxCell id="tZtnKp5M03eyO23c1v6A-231" value="&lt;pre&gt;&lt;span style=&quot;font-size: 36px;&quot;&gt;&lt;b&gt;quantity&lt;/b&gt;&lt;/span&gt;&lt;/pre&gt;" style="ellipse;whiteSpace=wrap;html=1;align=center;rounded=1;labelBackgroundColor=none;endArrow=none;fontSize=11;strokeWidth=4;" parent="1" vertex="1">
          <mxGeometry x="-1559.05" y="310" width="215.75" height="70.43" as="geometry" />
        </mxCell>
        <mxCell id="tZtnKp5M03eyO23c1v6A-232" value="&lt;pre&gt;&lt;span style=&quot;font-size: 36px;&quot;&gt;&lt;b&gt;&lt;u&gt;item_id&lt;/u&gt;&lt;/b&gt;&lt;/span&gt;&lt;/pre&gt;" style="ellipse;whiteSpace=wrap;html=1;align=center;rounded=1;labelBackgroundColor=none;endArrow=none;fontSize=11;strokeWidth=4;" parent="1" vertex="1">
          <mxGeometry x="-1732.2839999999999" y="507.496" width="200" height="60" as="geometry" />
        </mxCell>
        <mxCell id="tZtnKp5M03eyO23c1v6A-233" value="&lt;pre&gt;&lt;span style=&quot;font-size: 36px;&quot;&gt;&lt;b&gt;shopping_cart_id &lt;/b&gt;&lt;/span&gt;&lt;/pre&gt;" style="ellipse;whiteSpace=wrap;html=1;align=center;rounded=1;labelBackgroundColor=none;endArrow=none;fontSize=11;strokeWidth=4;" parent="1" vertex="1">
          <mxGeometry x="-1858.26" y="420" width="425.2" height="60" as="geometry" />
        </mxCell>
        <mxCell id="tZtnKp5M03eyO23c1v6A-234" value="&lt;pre&gt;&lt;span style=&quot;font-size: 36px;&quot;&gt;&lt;b&gt;product_id&lt;/b&gt;&lt;/span&gt;&lt;/pre&gt;" style="ellipse;whiteSpace=wrap;html=1;align=center;rounded=1;labelBackgroundColor=none;endArrow=none;fontSize=11;strokeWidth=4;" parent="1" vertex="1">
          <mxGeometry x="-1559.05" y="575" width="267.72" height="60" as="geometry" />
        </mxCell>
        <mxCell id="tZtnKp5M03eyO23c1v6A-235" value="" style="endArrow=none;html=1;rounded=1;entryX=0;entryY=0.5;entryDx=0;entryDy=0;exitX=1;exitY=0.5;exitDx=0;exitDy=0;labelBackgroundColor=none;fontColor=default;strokeWidth=4;" parent="1" source="tZtnKp5M03eyO23c1v6A-233" target="tZtnKp5M03eyO23c1v6A-217" edge="1">
          <mxGeometry relative="1" as="geometry">
            <mxPoint x="10.748" y="165.748" as="sourcePoint" />
            <mxPoint x="-144.252" y="85.748" as="targetPoint" />
          </mxGeometry>
        </mxCell>
        <mxCell id="tZtnKp5M03eyO23c1v6A-237" value="" style="endArrow=none;html=1;rounded=1;entryX=1;entryY=0.5;entryDx=0;entryDy=0;exitX=0;exitY=0.5;exitDx=0;exitDy=0;labelBackgroundColor=none;fontColor=default;strokeWidth=4;" parent="1" source="tZtnKp5M03eyO23c1v6A-217" target="tZtnKp5M03eyO23c1v6A-231" edge="1">
          <mxGeometry relative="1" as="geometry">
            <mxPoint x="26.496" y="181.496" as="sourcePoint" />
            <mxPoint x="-128.504" y="101.496" as="targetPoint" />
          </mxGeometry>
        </mxCell>
        <mxCell id="tZtnKp5M03eyO23c1v6A-238" value="" style="endArrow=none;html=1;rounded=1;entryX=1;entryY=0.5;entryDx=0;entryDy=0;exitX=0;exitY=0.5;exitDx=0;exitDy=0;labelBackgroundColor=none;fontColor=default;strokeWidth=4;" parent="1" source="tZtnKp5M03eyO23c1v6A-217" target="tZtnKp5M03eyO23c1v6A-232" edge="1">
          <mxGeometry relative="1" as="geometry">
            <mxPoint x="-1181" y="537" as="sourcePoint" />
            <mxPoint x="-1327.252" y="360.748" as="targetPoint" />
          </mxGeometry>
        </mxCell>
        <mxCell id="tZtnKp5M03eyO23c1v6A-239" value="" style="endArrow=none;html=1;rounded=1;entryX=1;entryY=0.5;entryDx=0;entryDy=0;exitX=0;exitY=0.5;exitDx=0;exitDy=0;labelBackgroundColor=none;fontColor=default;strokeWidth=4;" parent="1" source="tZtnKp5M03eyO23c1v6A-217" target="tZtnKp5M03eyO23c1v6A-234" edge="1">
          <mxGeometry relative="1" as="geometry">
            <mxPoint x="-1149.504" y="567.496" as="sourcePoint" />
            <mxPoint x="-1311.504" y="376.496" as="targetPoint" />
          </mxGeometry>
        </mxCell>
        <mxCell id="tZtnKp5M03eyO23c1v6A-240" value="" style="endArrow=none;html=1;rounded=1;entryX=0.5;entryY=1;entryDx=0;entryDy=0;exitX=0.5;exitY=0;exitDx=0;exitDy=0;labelBackgroundColor=none;fontColor=default;strokeWidth=4;" parent="1" source="58sUtSx7XFqsdHOxAqbO-2" target="58sUtSx7XFqsdHOxAqbO-7" edge="1">
          <mxGeometry relative="1" as="geometry">
            <mxPoint x="435" y="490" as="sourcePoint" />
            <mxPoint x="375" y="275" as="targetPoint" />
          </mxGeometry>
        </mxCell>
        <mxCell id="58sUtSx7XFqsdHOxAqbO-7" value="&lt;pre&gt;&lt;span style=&quot;font-size: 36px;&quot;&gt;&lt;b&gt;Username&lt;/b&gt;&lt;/span&gt;&lt;/pre&gt;" style="ellipse;whiteSpace=wrap;html=1;align=center;rounded=1;labelBackgroundColor=none;endArrow=none;fontSize=11;strokeWidth=4;" parent="1" vertex="1">
          <mxGeometry x="301.22" y="365" width="200" height="50" as="geometry" />
        </mxCell>
        <mxCell id="tZtnKp5M03eyO23c1v6A-241" value="" style="endArrow=none;html=1;rounded=1;entryX=0.5;entryY=0;entryDx=0;entryDy=0;exitX=0.5;exitY=1;exitDx=0;exitDy=0;labelBackgroundColor=none;fontColor=default;strokeWidth=4;" parent="1" source="tZtnKp5M03eyO23c1v6A-99" target="tZtnKp5M03eyO23c1v6A-101" edge="1">
          <mxGeometry relative="1" as="geometry">
            <mxPoint x="-531" y="1245" as="sourcePoint" />
            <mxPoint x="-587" y="1530" as="targetPoint" />
          </mxGeometry>
        </mxCell>
        <mxCell id="tZtnKp5M03eyO23c1v6A-101" value="&lt;pre&gt;&lt;span style=&quot;font-size: 36px;&quot;&gt;&lt;b&gt;type&lt;/b&gt;&lt;/span&gt;&lt;/pre&gt;" style="ellipse;whiteSpace=wrap;html=1;align=center;rounded=1;labelBackgroundColor=none;endArrow=none;fontSize=11;strokeWidth=4;" parent="1" vertex="1">
          <mxGeometry x="-662.9" y="1448.82" width="130" height="60" as="geometry" />
        </mxCell>
        <mxCell id="tZtnKp5M03eyO23c1v6A-244" value="&lt;pre&gt;&lt;b&gt;&lt;font style=&quot;font-size: 38px;&quot;&gt;Categorized as&lt;/font&gt;&lt;/b&gt;&lt;/pre&gt;" style="shape=rhombus;perimeter=rhombusPerimeter;whiteSpace=wrap;html=1;align=center;verticalAlign=middle;fontFamily=Helvetica;fontSize=11;rounded=1;labelBackgroundColor=none;endArrow=none;strokeWidth=4;" parent="1" vertex="1">
          <mxGeometry x="-290.07" y="1727.14" width="450.07" height="115.38" as="geometry" />
        </mxCell>
        <mxCell id="tZtnKp5M03eyO23c1v6A-245" value="" style="endArrow=none;html=1;rounded=1;entryX=0.5;entryY=0;entryDx=0;entryDy=0;exitX=0.005;exitY=0.549;exitDx=0;exitDy=0;exitPerimeter=0;labelBackgroundColor=none;fontColor=default;strokeWidth=4;" parent="1" source="tZtnKp5M03eyO23c1v6A-158" target="tZtnKp5M03eyO23c1v6A-244" edge="1">
          <mxGeometry relative="1" as="geometry">
            <mxPoint x="616.748" y="1625.748" as="sourcePoint" />
            <mxPoint x="416.748" y="1673.748" as="targetPoint" />
            <Array as="points">
              <mxPoint x="-63" y="1575" />
            </Array>
          </mxGeometry>
        </mxCell>
        <mxCell id="tZtnKp5M03eyO23c1v6A-246" value="&lt;pre style=&quot;&quot;&gt;&lt;font size=&quot;1&quot; style=&quot;&quot;&gt;&lt;b style=&quot;font-size: 37px;&quot;&gt;Category&lt;/b&gt;&lt;/font&gt;&lt;/pre&gt;" style="whiteSpace=wrap;html=1;align=center;fontSize=11;rounded=1;labelBackgroundColor=none;endArrow=none;strokeWidth=4;" parent="1" vertex="1">
          <mxGeometry x="-180.032" y="2110.228" width="230" height="80" as="geometry" />
        </mxCell>
        <mxCell id="tZtnKp5M03eyO23c1v6A-247" value="" style="endArrow=none;html=1;rounded=1;entryX=0.5;entryY=0;entryDx=0;entryDy=0;exitX=0.5;exitY=1;exitDx=0;exitDy=0;labelBackgroundColor=none;fontColor=default;strokeWidth=4;" parent="1" source="tZtnKp5M03eyO23c1v6A-244" target="tZtnKp5M03eyO23c1v6A-246" edge="1">
          <mxGeometry relative="1" as="geometry">
            <mxPoint x="616.748" y="1625.748" as="sourcePoint" />
            <mxPoint x="416.748" y="1673.748" as="targetPoint" />
          </mxGeometry>
        </mxCell>
        <mxCell id="tZtnKp5M03eyO23c1v6A-248" value="&lt;pre&gt;&lt;span style=&quot;font-size: 36px;&quot;&gt;&lt;b&gt;Name&lt;/b&gt;&lt;/span&gt;&lt;/pre&gt;" style="ellipse;whiteSpace=wrap;html=1;align=center;rounded=1;labelBackgroundColor=none;endArrow=none;fontSize=11;strokeWidth=4;" parent="1" vertex="1">
          <mxGeometry x="-210.00399999999985" y="2267.7160000000003" width="150" height="60" as="geometry" />
        </mxCell>
        <mxCell id="tZtnKp5M03eyO23c1v6A-249" value="&lt;pre&gt;&lt;span style=&quot;font-size: 36px;&quot;&gt;&lt;b&gt;&lt;u&gt;category_id&lt;/u&gt;&lt;/b&gt;&lt;/span&gt;&lt;/pre&gt;" style="ellipse;whiteSpace=wrap;html=1;align=center;rounded=1;labelBackgroundColor=none;endArrow=none;fontSize=11;strokeWidth=4;" parent="1" vertex="1">
          <mxGeometry x="-134.69000000000003" y="2330.7000000000003" width="284.68" height="78.74" as="geometry" />
        </mxCell>
        <mxCell id="tZtnKp5M03eyO23c1v6A-250" value="" style="endArrow=none;html=1;rounded=1;entryX=0.5;entryY=1;entryDx=0;entryDy=0;exitX=0.5;exitY=0;exitDx=0;exitDy=0;labelBackgroundColor=none;fontColor=default;strokeWidth=4;" parent="1" source="tZtnKp5M03eyO23c1v6A-249" target="tZtnKp5M03eyO23c1v6A-246" edge="1">
          <mxGeometry relative="1" as="geometry">
            <mxPoint x="-49.252" y="1858.748" as="sourcePoint" />
            <mxPoint x="-49.252" y="2125.748" as="targetPoint" />
          </mxGeometry>
        </mxCell>
        <mxCell id="tZtnKp5M03eyO23c1v6A-251" value="" style="endArrow=none;html=1;rounded=1;entryX=0.5;entryY=0;entryDx=0;entryDy=0;exitX=0.5;exitY=1;exitDx=0;exitDy=0;labelBackgroundColor=none;fontColor=default;strokeWidth=4;" parent="1" source="tZtnKp5M03eyO23c1v6A-246" target="tZtnKp5M03eyO23c1v6A-248" edge="1">
          <mxGeometry relative="1" as="geometry">
            <mxPoint x="-33.504000000000005" y="1874.496" as="sourcePoint" />
            <mxPoint x="-33.504000000000005" y="2141.496" as="targetPoint" />
          </mxGeometry>
        </mxCell>
        <mxCell id="tZtnKp5M03eyO23c1v6A-252" value="&lt;pre&gt;&lt;b&gt;&lt;font style=&quot;font-size: 38px;&quot;&gt;containts&lt;/font&gt;&lt;/b&gt;&lt;/pre&gt;" style="shape=rhombus;perimeter=rhombusPerimeter;whiteSpace=wrap;html=1;align=center;verticalAlign=middle;fontFamily=Helvetica;fontSize=11;rounded=1;labelBackgroundColor=none;endArrow=none;strokeWidth=4;" parent="1" vertex="1">
          <mxGeometry x="449.9980000000003" y="2102.728" width="267.72" height="95" as="geometry" />
        </mxCell>
        <mxCell id="tZtnKp5M03eyO23c1v6A-253" value="" style="endArrow=none;html=1;rounded=1;entryX=0;entryY=0.5;entryDx=0;entryDy=0;exitX=1;exitY=0.5;exitDx=0;exitDy=0;labelBackgroundColor=none;fontColor=default;strokeWidth=4;" parent="1" source="tZtnKp5M03eyO23c1v6A-246" target="tZtnKp5M03eyO23c1v6A-252" edge="1">
          <mxGeometry relative="1" as="geometry">
            <mxPoint x="-49.252" y="2205.748" as="sourcePoint" />
            <mxPoint x="-119.252" y="2283.748" as="targetPoint" />
          </mxGeometry>
        </mxCell>
        <mxCell id="tZtnKp5M03eyO23c1v6A-257" value="&lt;b&gt;&lt;font style=&quot;font-size: 28px;&quot;&gt;N&lt;/font&gt;&lt;/b&gt;" style="edgeLabel;html=1;align=center;verticalAlign=middle;resizable=0;points=[];fontSize=11;fontFamily=Helvetica;labelBackgroundColor=none;endArrow=none;rounded=1;strokeWidth=4;" parent="tZtnKp5M03eyO23c1v6A-253" vertex="1" connectable="0">
          <mxGeometry x="-0.9235" relative="1" as="geometry">
            <mxPoint as="offset" />
          </mxGeometry>
        </mxCell>
        <mxCell id="tZtnKp5M03eyO23c1v6A-254" value="&lt;pre style=&quot;font-size: 36px;&quot;&gt;&lt;font style=&quot;font-size: 36px;&quot;&gt;&lt;b style=&quot;font-size: 36px;&quot;&gt;Brand&lt;/b&gt;&lt;/font&gt;&lt;/pre&gt;" style="whiteSpace=wrap;html=1;align=center;fontSize=11;rounded=1;labelBackgroundColor=none;endArrow=none;strokeWidth=4;" parent="1" vertex="1">
          <mxGeometry x="919.9959999999999" y="2110.226" width="230" height="80" as="geometry" />
        </mxCell>
        <mxCell id="tZtnKp5M03eyO23c1v6A-255" value="" style="endArrow=none;html=1;rounded=1;entryX=1;entryY=0.5;entryDx=0;entryDy=0;exitX=0;exitY=0.5;exitDx=0;exitDy=0;labelBackgroundColor=none;fontColor=default;strokeWidth=4;" parent="1" source="tZtnKp5M03eyO23c1v6A-254" target="tZtnKp5M03eyO23c1v6A-252" edge="1">
          <mxGeometry relative="1" as="geometry">
            <mxPoint x="65.748" y="2165.748" as="sourcePoint" />
            <mxPoint x="465.748" y="2165.748" as="targetPoint" />
          </mxGeometry>
        </mxCell>
        <mxCell id="tZtnKp5M03eyO23c1v6A-256" value="&lt;b&gt;&lt;font style=&quot;font-size: 34px;&quot;&gt;1&lt;/font&gt;&lt;/b&gt;" style="edgeLabel;html=1;align=center;verticalAlign=middle;resizable=0;points=[];fontSize=11;fontFamily=Helvetica;labelBackgroundColor=none;endArrow=none;rounded=1;strokeWidth=4;" parent="tZtnKp5M03eyO23c1v6A-255" vertex="1" connectable="0">
          <mxGeometry x="-0.6869" relative="1" as="geometry">
            <mxPoint as="offset" />
          </mxGeometry>
        </mxCell>
        <mxCell id="tZtnKp5M03eyO23c1v6A-258" value="&lt;pre&gt;&lt;b&gt;&lt;font style=&quot;font-size: 38px;&quot;&gt;produces&lt;/font&gt;&lt;/b&gt;&lt;/pre&gt;" style="shape=rhombus;perimeter=rhombusPerimeter;whiteSpace=wrap;html=1;align=center;verticalAlign=middle;fontFamily=Helvetica;fontSize=11;rounded=1;labelBackgroundColor=none;endArrow=none;strokeWidth=4;" parent="1" vertex="1">
          <mxGeometry x="893.26" y="1798.82" width="283.47" height="107.24" as="geometry" />
        </mxCell>
        <mxCell id="tZtnKp5M03eyO23c1v6A-259" value="" style="endArrow=none;html=1;rounded=1;entryX=0.5;entryY=1;entryDx=0;entryDy=0;exitX=0.5;exitY=0;exitDx=0;exitDy=0;labelBackgroundColor=none;fontColor=default;strokeWidth=4;" parent="1" source="tZtnKp5M03eyO23c1v6A-254" target="tZtnKp5M03eyO23c1v6A-258" edge="1">
          <mxGeometry relative="1" as="geometry">
            <mxPoint x="616.748" y="1625.748" as="sourcePoint" />
            <mxPoint x="620.748" y="1833.748" as="targetPoint" />
          </mxGeometry>
        </mxCell>
        <mxCell id="tZtnKp5M03eyO23c1v6A-261" value="&lt;b&gt;&lt;font style=&quot;font-size: 26px;&quot;&gt;1&lt;/font&gt;&lt;/b&gt;" style="edgeLabel;html=1;align=center;verticalAlign=middle;resizable=0;points=[];fontSize=11;fontFamily=Helvetica;labelBackgroundColor=none;endArrow=none;rounded=1;strokeWidth=4;" parent="tZtnKp5M03eyO23c1v6A-259" vertex="1" connectable="0">
          <mxGeometry x="-0.8456" y="1" relative="1" as="geometry">
            <mxPoint x="1" y="-15" as="offset" />
          </mxGeometry>
        </mxCell>
        <mxCell id="tZtnKp5M03eyO23c1v6A-260" value="" style="endArrow=none;html=1;rounded=1;exitX=0.5;exitY=0;exitDx=0;exitDy=0;entryX=1;entryY=0.5;entryDx=0;entryDy=0;labelBackgroundColor=none;fontColor=default;strokeWidth=4;" parent="1" source="tZtnKp5M03eyO23c1v6A-258" target="tZtnKp5M03eyO23c1v6A-158" edge="1">
          <mxGeometry relative="1" as="geometry">
            <mxPoint x="1007.868" y="1669.998" as="sourcePoint" />
            <mxPoint x="1035" y="1559" as="targetPoint" />
            <Array as="points">
              <mxPoint x="1035" y="1570" />
            </Array>
          </mxGeometry>
        </mxCell>
        <mxCell id="tZtnKp5M03eyO23c1v6A-262" value="&lt;b style=&quot;font-size: 27px;&quot;&gt;N&lt;/b&gt;" style="edgeLabel;html=1;align=center;verticalAlign=middle;resizable=0;points=[];fontSize=11;fontFamily=Helvetica;labelBackgroundColor=none;endArrow=none;rounded=1;strokeWidth=4;" parent="tZtnKp5M03eyO23c1v6A-260" vertex="1" connectable="0">
          <mxGeometry x="0.9284" y="-1" relative="1" as="geometry">
            <mxPoint x="33" y="1" as="offset" />
          </mxGeometry>
        </mxCell>
        <mxCell id="tZtnKp5M03eyO23c1v6A-283" value="&lt;pre&gt;&lt;b style=&quot;&quot;&gt;&lt;font style=&quot;font-size: 32px;&quot;&gt;&lt;u&gt;Brand_id&lt;/u&gt;&lt;/font&gt;&lt;/b&gt;&lt;/pre&gt;" style="ellipse;whiteSpace=wrap;html=1;align=center;rounded=1;labelBackgroundColor=none;endArrow=none;fontSize=11;strokeWidth=4;" parent="1" vertex="1">
          <mxGeometry x="609.6080000000001" y="2220.4680000000003" width="223.7" height="60" as="geometry" />
        </mxCell>
        <mxCell id="tZtnKp5M03eyO23c1v6A-284" value="&lt;pre&gt;&lt;span style=&quot;font-size: 36px;&quot;&gt;&lt;b&gt;most_recent&lt;/b&gt;&lt;/span&gt;&lt;/pre&gt;" style="ellipse;whiteSpace=wrap;html=1;align=center;rounded=1;labelBackgroundColor=none;endArrow=none;fontSize=11;strokeWidth=4;" parent="1" vertex="1">
          <mxGeometry x="617.0400000000001" y="2425.1899999999996" width="308.35" height="60" as="geometry" />
        </mxCell>
        <mxCell id="tZtnKp5M03eyO23c1v6A-285" value="&lt;pre&gt;&lt;span style=&quot;font-size: 36px;&quot;&gt;&lt;b&gt;Name&lt;/b&gt;&lt;/span&gt;&lt;/pre&gt;" style="ellipse;whiteSpace=wrap;html=1;align=center;rounded=1;labelBackgroundColor=none;endArrow=none;fontSize=11;strokeWidth=4;" parent="1" vertex="1">
          <mxGeometry x="821.5260000000001" y="2349.436" width="150" height="60" as="geometry" />
        </mxCell>
        <mxCell id="tZtnKp5M03eyO23c1v6A-286" value="&lt;pre&gt;&lt;span style=&quot;font-size: 36px;&quot;&gt;&lt;b&gt;best_seller&lt;/b&gt;&lt;/span&gt;&lt;/pre&gt;" style="ellipse;whiteSpace=wrap;html=1;align=center;rounded=1;labelBackgroundColor=none;endArrow=none;fontSize=11;strokeWidth=4;" parent="1" vertex="1">
          <mxGeometry x="1095.828" y="2365.1879999999996" width="308.35" height="60" as="geometry" />
        </mxCell>
        <mxCell id="tZtnKp5M03eyO23c1v6A-287" value="&lt;pre&gt;&lt;span style=&quot;font-size: 36px;&quot;&gt;&lt;b&gt;Description&lt;/b&gt;&lt;/span&gt;&lt;/pre&gt;" style="ellipse;whiteSpace=wrap;html=1;align=center;rounded=1;labelBackgroundColor=none;endArrow=none;fontSize=11;strokeWidth=4;" parent="1" vertex="1">
          <mxGeometry x="1176.728" y="2239.208" width="275.98" height="60" as="geometry" />
        </mxCell>
        <mxCell id="tZtnKp5M03eyO23c1v6A-288" value="&lt;pre&gt;&lt;span style=&quot;font-size: 36px;&quot;&gt;&lt;b&gt;twitter&lt;/b&gt;&lt;/span&gt;&lt;/pre&gt;" style="ellipse;whiteSpace=wrap;html=1;align=center;rounded=1;labelBackgroundColor=none;endArrow=none;fontSize=11;strokeWidth=4;" parent="1" vertex="1">
          <mxGeometry x="799.07" y="2695.9" width="193.06" height="60" as="geometry" />
        </mxCell>
        <mxCell id="tZtnKp5M03eyO23c1v6A-289" value="&lt;pre&gt;&lt;span style=&quot;font-size: 36px;&quot;&gt;&lt;b&gt;instagram&lt;/b&gt;&lt;/span&gt;&lt;/pre&gt;" style="ellipse;whiteSpace=wrap;html=1;align=center;rounded=1;labelBackgroundColor=none;endArrow=none;fontSize=11;strokeWidth=4;" parent="1" vertex="1">
          <mxGeometry x="1079.9999999999998" y="2661.41" width="233.69" height="60" as="geometry" />
        </mxCell>
        <mxCell id="tZtnKp5M03eyO23c1v6A-290" value="&lt;pre&gt;&lt;span style=&quot;font-size: 36px;&quot;&gt;&lt;b&gt;tik tok&lt;/b&gt;&lt;/span&gt;&lt;/pre&gt;" style="ellipse;whiteSpace=wrap;html=1;align=center;rounded=1;labelBackgroundColor=none;endArrow=none;fontSize=11;strokeWidth=4;" parent="1" vertex="1">
          <mxGeometry x="988.3199999999999" y="2740.1499999999996" width="181.68" height="60" as="geometry" />
        </mxCell>
        <mxCell id="tZtnKp5M03eyO23c1v6A-291" value="&lt;pre&gt;&lt;span style=&quot;font-size: 36px;&quot;&gt;&lt;b&gt;facebook&lt;/b&gt;&lt;/span&gt;&lt;/pre&gt;" style="ellipse;whiteSpace=wrap;html=1;align=center;rounded=1;labelBackgroundColor=none;endArrow=none;fontSize=11;strokeWidth=4;" parent="1" vertex="1">
          <mxGeometry x="677.36" y="2629.92" width="213.86" height="60" as="geometry" />
        </mxCell>
        <mxCell id="tZtnKp5M03eyO23c1v6A-292" value="&lt;pre&gt;&lt;span style=&quot;font-size: 36px;&quot;&gt;&lt;b&gt;social media links&lt;/b&gt;&lt;/span&gt;&lt;/pre&gt;" style="ellipse;whiteSpace=wrap;html=1;align=center;rounded=1;labelBackgroundColor=none;endArrow=none;fontSize=11;strokeWidth=4;" parent="1" vertex="1">
          <mxGeometry x="775" y="2500.9400000000005" width="436.69" height="60" as="geometry" />
        </mxCell>
        <mxCell id="tZtnKp5M03eyO23c1v6A-294" value="" style="endArrow=none;html=1;rounded=1;entryX=0.529;entryY=-0.068;entryDx=0;entryDy=0;exitX=0.5;exitY=1;exitDx=0;exitDy=0;entryPerimeter=0;labelBackgroundColor=none;fontColor=default;strokeWidth=4;" parent="1" source="tZtnKp5M03eyO23c1v6A-254" target="tZtnKp5M03eyO23c1v6A-292" edge="1">
          <mxGeometry relative="1" as="geometry">
            <mxPoint x="960.628" y="2026.048" as="sourcePoint" />
            <mxPoint x="1059.6280000000002" y="2416.0480000000002" as="targetPoint" />
          </mxGeometry>
        </mxCell>
        <mxCell id="tZtnKp5M03eyO23c1v6A-295" value="" style="endArrow=none;html=1;rounded=1;entryX=0.5;entryY=0;entryDx=0;entryDy=0;exitX=0.5;exitY=1;exitDx=0;exitDy=0;labelBackgroundColor=none;fontColor=default;strokeWidth=4;" parent="1" source="tZtnKp5M03eyO23c1v6A-254" target="tZtnKp5M03eyO23c1v6A-283" edge="1">
          <mxGeometry relative="1" as="geometry">
            <mxPoint x="1039" y="2315" as="sourcePoint" />
            <mxPoint x="1079.748" y="2531.748" as="targetPoint" />
          </mxGeometry>
        </mxCell>
        <mxCell id="tZtnKp5M03eyO23c1v6A-296" value="" style="endArrow=none;html=1;rounded=1;entryX=0.5;entryY=0;entryDx=0;entryDy=0;exitX=0.5;exitY=1;exitDx=0;exitDy=0;labelBackgroundColor=none;fontColor=default;strokeWidth=4;" parent="1" source="tZtnKp5M03eyO23c1v6A-254" target="tZtnKp5M03eyO23c1v6A-301" edge="1">
          <mxGeometry relative="1" as="geometry">
            <mxPoint x="1066.496" y="2221.496" as="sourcePoint" />
            <mxPoint x="1095.496" y="2547.496" as="targetPoint" />
          </mxGeometry>
        </mxCell>
        <mxCell id="tZtnKp5M03eyO23c1v6A-297" value="" style="endArrow=none;html=1;rounded=1;entryX=0.5;entryY=0;entryDx=0;entryDy=0;exitX=0.5;exitY=1;exitDx=0;exitDy=0;labelBackgroundColor=none;fontColor=default;strokeWidth=4;" parent="1" source="tZtnKp5M03eyO23c1v6A-254" target="tZtnKp5M03eyO23c1v6A-287" edge="1">
          <mxGeometry relative="1" as="geometry">
            <mxPoint x="1082.244" y="2237.244" as="sourcePoint" />
            <mxPoint x="1111.244" y="2563.244" as="targetPoint" />
          </mxGeometry>
        </mxCell>
        <mxCell id="tZtnKp5M03eyO23c1v6A-298" value="" style="endArrow=none;html=1;rounded=1;entryX=0.5;entryY=0;entryDx=0;entryDy=0;exitX=0.5;exitY=1;exitDx=0;exitDy=0;labelBackgroundColor=none;fontColor=default;strokeWidth=4;" parent="1" source="tZtnKp5M03eyO23c1v6A-254" target="tZtnKp5M03eyO23c1v6A-286" edge="1">
          <mxGeometry relative="1" as="geometry">
            <mxPoint x="1582.01" y="2055.47" as="sourcePoint" />
            <mxPoint x="1670.002" y="2445.462" as="targetPoint" />
          </mxGeometry>
        </mxCell>
        <mxCell id="tZtnKp5M03eyO23c1v6A-299" value="" style="endArrow=none;html=1;rounded=1;entryX=0.5;entryY=0;entryDx=0;entryDy=0;exitX=0.5;exitY=1;exitDx=0;exitDy=0;fontStyle=0;labelBackgroundColor=none;fontColor=default;strokeWidth=4;" parent="1" source="tZtnKp5M03eyO23c1v6A-254" target="tZtnKp5M03eyO23c1v6A-285" edge="1">
          <mxGeometry relative="1" as="geometry">
            <mxPoint x="1113.74" y="2268.74" as="sourcePoint" />
            <mxPoint x="1142.74" y="2594.74" as="targetPoint" />
          </mxGeometry>
        </mxCell>
        <mxCell id="tZtnKp5M03eyO23c1v6A-300" value="&lt;pre&gt;&lt;span style=&quot;font-size: 36px;&quot;&gt;&lt;b&gt;Password&lt;/b&gt;&lt;/span&gt;&lt;/pre&gt;" style="ellipse;whiteSpace=wrap;html=1;align=center;rounded=1;labelBackgroundColor=none;endArrow=none;fontSize=11;strokeWidth=4;" parent="1" vertex="1">
          <mxGeometry x="1102.4" y="2440.94" width="217.6" height="60" as="geometry" />
        </mxCell>
        <mxCell id="tZtnKp5M03eyO23c1v6A-301" value="&lt;pre&gt;&lt;span style=&quot;font-size: 36px;&quot;&gt;&lt;b&gt;username&lt;/b&gt;&lt;/span&gt;&lt;/pre&gt;" style="ellipse;whiteSpace=wrap;html=1;align=center;rounded=1;labelBackgroundColor=none;endArrow=none;fontSize=11;strokeWidth=4;" parent="1" vertex="1">
          <mxGeometry x="560.3499999999999" y="2349.44" width="233.35" height="60" as="geometry" />
        </mxCell>
        <mxCell id="tZtnKp5M03eyO23c1v6A-303" value="" style="endArrow=none;html=1;rounded=1;entryX=0.5;entryY=0;entryDx=0;entryDy=0;exitX=0.5;exitY=1;exitDx=0;exitDy=0;labelBackgroundColor=none;fontColor=default;strokeWidth=4;" parent="1" source="tZtnKp5M03eyO23c1v6A-292" target="tZtnKp5M03eyO23c1v6A-289" edge="1">
          <mxGeometry relative="1" as="geometry">
            <mxPoint x="1050.748" y="2205.748" as="sourcePoint" />
            <mxPoint x="912.748" y="2364.748" as="targetPoint" />
          </mxGeometry>
        </mxCell>
        <mxCell id="tZtnKp5M03eyO23c1v6A-304" value="" style="endArrow=none;html=1;rounded=1;entryX=0.5;entryY=0;entryDx=0;entryDy=0;exitX=0.53;exitY=1.063;exitDx=0;exitDy=0;exitPerimeter=0;labelBackgroundColor=none;fontColor=default;strokeWidth=4;" parent="1" source="tZtnKp5M03eyO23c1v6A-292" target="tZtnKp5M03eyO23c1v6A-290" edge="1">
          <mxGeometry relative="1" as="geometry">
            <mxPoint x="1066.496" y="2221.496" as="sourcePoint" />
            <mxPoint x="928.496" y="2380.496" as="targetPoint" />
          </mxGeometry>
        </mxCell>
        <mxCell id="tZtnKp5M03eyO23c1v6A-305" value="" style="endArrow=none;html=1;rounded=1;entryX=0.5;entryY=0;entryDx=0;entryDy=0;exitX=0.535;exitY=1.006;exitDx=0;exitDy=0;exitPerimeter=0;labelBackgroundColor=none;fontColor=default;strokeWidth=4;" parent="1" source="tZtnKp5M03eyO23c1v6A-292" target="tZtnKp5M03eyO23c1v6A-288" edge="1">
          <mxGeometry relative="1" as="geometry">
            <mxPoint x="1082.244" y="2237.244" as="sourcePoint" />
            <mxPoint x="944.244" y="2396.244" as="targetPoint" />
          </mxGeometry>
        </mxCell>
        <mxCell id="tZtnKp5M03eyO23c1v6A-306" value="" style="endArrow=none;html=1;rounded=1;entryX=0.5;entryY=0;entryDx=0;entryDy=0;exitX=0.525;exitY=1.044;exitDx=0;exitDy=0;exitPerimeter=0;labelBackgroundColor=none;fontColor=default;strokeWidth=4;" parent="1" source="tZtnKp5M03eyO23c1v6A-292" target="tZtnKp5M03eyO23c1v6A-291" edge="1">
          <mxGeometry relative="1" as="geometry">
            <mxPoint x="1097.992" y="2252.992" as="sourcePoint" />
            <mxPoint x="959.992" y="2411.992" as="targetPoint" />
          </mxGeometry>
        </mxCell>
        <mxCell id="tZtnKp5M03eyO23c1v6A-309" value="&lt;pre&gt;&lt;b&gt;&lt;font style=&quot;font-size: 38px;&quot;&gt;is reviewd in&lt;/font&gt;&lt;/b&gt;&lt;/pre&gt;" style="shape=rhombus;perimeter=rhombusPerimeter;whiteSpace=wrap;html=1;align=center;verticalAlign=middle;fontFamily=Helvetica;fontSize=11;rounded=1;labelBackgroundColor=none;endArrow=none;strokeWidth=4;" parent="1" vertex="1">
          <mxGeometry x="1464.56" y="2087.61" width="440.95" height="125.24" as="geometry" />
        </mxCell>
        <mxCell id="tZtnKp5M03eyO23c1v6A-310" value="" style="endArrow=none;html=1;rounded=1;entryX=1;entryY=0.5;entryDx=0;entryDy=0;exitX=0;exitY=0.5;exitDx=0;exitDy=0;fontStyle=0;labelBackgroundColor=none;fontColor=default;strokeWidth=4;" parent="1" source="tZtnKp5M03eyO23c1v6A-309" target="tZtnKp5M03eyO23c1v6A-254" edge="1">
          <mxGeometry relative="1" as="geometry">
            <mxPoint x="1050.748" y="2205.748" as="sourcePoint" />
            <mxPoint x="912.748" y="2364.748" as="targetPoint" />
          </mxGeometry>
        </mxCell>
        <mxCell id="tZtnKp5M03eyO23c1v6A-311" value="&lt;pre style=&quot;font-size: 36px;&quot;&gt;&lt;font style=&quot;font-size: 36px;&quot;&gt;&lt;b style=&quot;font-size: 36px;&quot;&gt;Reviews&lt;/b&gt;&lt;/font&gt;&lt;/pre&gt;" style="whiteSpace=wrap;html=1;align=center;fontSize=11;rounded=1;labelBackgroundColor=none;endArrow=none;strokeWidth=4;" parent="1" vertex="1">
          <mxGeometry x="1952.754" y="1637.794" width="230" height="80" as="geometry" />
        </mxCell>
        <mxCell id="tZtnKp5M03eyO23c1v6A-312" value="" style="endArrow=none;html=1;rounded=1;entryX=0.983;entryY=0.495;entryDx=0;entryDy=0;exitX=0.5;exitY=1;exitDx=0;exitDy=0;fontStyle=0;entryPerimeter=0;labelBackgroundColor=none;fontColor=default;strokeWidth=4;" parent="1" source="tZtnKp5M03eyO23c1v6A-311" target="tZtnKp5M03eyO23c1v6A-309" edge="1">
          <mxGeometry relative="1" as="geometry">
            <mxPoint x="1564.748" y="2165.748" as="sourcePoint" />
            <mxPoint x="1165.748" y="2165.748" as="targetPoint" />
            <Array as="points">
              <mxPoint x="2079" y="2150" />
            </Array>
          </mxGeometry>
        </mxCell>
        <mxCell id="tZtnKp5M03eyO23c1v6A-325" value="&lt;pre&gt;&lt;span style=&quot;font-size: 36px;&quot;&gt;&lt;b&gt;created_on&lt;/b&gt;&lt;/span&gt;&lt;/pre&gt;" style="ellipse;whiteSpace=wrap;html=1;align=center;rounded=1;labelBackgroundColor=none;endArrow=none;fontSize=11;strokeWidth=4;" parent="1" vertex="1">
          <mxGeometry x="1789.996" y="1370.076" width="240" height="60" as="geometry" />
        </mxCell>
        <mxCell id="tZtnKp5M03eyO23c1v6A-326" value="&lt;pre&gt;&lt;span style=&quot;font-size: 36px;&quot;&gt;&lt;b&gt;last_edit&lt;/b&gt;&lt;/span&gt;&lt;/pre&gt;" style="ellipse;whiteSpace=wrap;html=1;align=center;rounded=1;labelBackgroundColor=none;endArrow=none;fontSize=11;strokeWidth=4;" parent="1" vertex="1">
          <mxGeometry x="1905.514" y="1300.0040000000001" width="240" height="60" as="geometry" />
        </mxCell>
        <mxCell id="tZtnKp5M03eyO23c1v6A-327" value="&lt;pre&gt;&lt;span style=&quot;font-size: 36px;&quot;&gt;&lt;b&gt;Rating&lt;/b&gt;&lt;/span&gt;&lt;/pre&gt;" style="ellipse;whiteSpace=wrap;html=1;align=center;rounded=1;labelBackgroundColor=none;endArrow=none;fontSize=11;strokeWidth=4;" parent="1" vertex="1">
          <mxGeometry x="2190.0040000000004" y="1360.0040000000001" width="240" height="60" as="geometry" />
        </mxCell>
        <mxCell id="tZtnKp5M03eyO23c1v6A-328" value="&lt;pre&gt;&lt;span style=&quot;font-size: 36px;&quot;&gt;&lt;b&gt;review_txt&lt;/b&gt;&lt;/span&gt;&lt;/pre&gt;" style="ellipse;whiteSpace=wrap;html=1;align=center;rounded=1;labelBackgroundColor=none;endArrow=none;fontSize=11;strokeWidth=4;" parent="1" vertex="1">
          <mxGeometry x="2019.5220000000004" y="1420.002" width="240" height="60" as="geometry" />
        </mxCell>
        <mxCell id="tZtnKp5M03eyO23c1v6A-329" value="&lt;pre&gt;&lt;span style=&quot;font-size: 36px;&quot;&gt;&lt;b&gt;user_id&lt;/b&gt;&lt;/span&gt;&lt;/pre&gt;" style="ellipse;whiteSpace=wrap;html=1;align=center;rounded=1;labelBackgroundColor=none;endArrow=none;fontSize=11;strokeWidth=4;" parent="1" vertex="1">
          <mxGeometry x="2140.002" y="1272.6019999999999" width="240" height="60" as="geometry" />
        </mxCell>
        <mxCell id="tZtnKp5M03eyO23c1v6A-330" value="&lt;pre&gt;&lt;span style=&quot;font-size: 36px;&quot;&gt;&lt;b&gt;&lt;u&gt;review_id&lt;/u&gt;&lt;/b&gt;&lt;/span&gt;&lt;/pre&gt;" style="ellipse;whiteSpace=wrap;html=1;align=center;rounded=1;labelBackgroundColor=none;endArrow=none;fontSize=11;strokeWidth=4;" parent="1" vertex="1">
          <mxGeometry x="1779.5200000000002" y="1448.8200000000002" width="240" height="60" as="geometry" />
        </mxCell>
        <mxCell id="tZtnKp5M03eyO23c1v6A-331" value="&lt;pre&gt;&lt;span style=&quot;font-size: 36px;&quot;&gt;&lt;b&gt;product_id&lt;/b&gt;&lt;/span&gt;&lt;/pre&gt;" style="ellipse;whiteSpace=wrap;html=1;align=center;rounded=1;labelBackgroundColor=none;endArrow=none;fontSize=11;strokeWidth=4;" parent="1" vertex="1">
          <mxGeometry x="1952.75" y="1212.6" width="267.72" height="60" as="geometry" />
        </mxCell>
        <mxCell id="tZtnKp5M03eyO23c1v6A-339" value="" style="endArrow=none;html=1;rounded=1;entryX=0.5;entryY=1;entryDx=0;entryDy=0;exitX=0.5;exitY=0;exitDx=0;exitDy=0;fontStyle=0;labelBackgroundColor=none;fontColor=default;strokeWidth=4;" parent="1" source="tZtnKp5M03eyO23c1v6A-311" target="tZtnKp5M03eyO23c1v6A-327" edge="1">
          <mxGeometry relative="1" as="geometry">
            <mxPoint x="2010.74" y="1720.78" as="sourcePoint" />
            <mxPoint x="1695.74" y="1720.78" as="targetPoint" />
          </mxGeometry>
        </mxCell>
        <mxCell id="tZtnKp5M03eyO23c1v6A-341" value="" style="endArrow=none;html=1;rounded=1;entryX=0.5;entryY=1;entryDx=0;entryDy=0;exitX=0.5;exitY=0;exitDx=0;exitDy=0;fontStyle=0;labelBackgroundColor=none;fontColor=default;strokeWidth=4;" parent="1" source="tZtnKp5M03eyO23c1v6A-311" target="tZtnKp5M03eyO23c1v6A-330" edge="1">
          <mxGeometry relative="1" as="geometry">
            <mxPoint x="2042.236" y="1752.276" as="sourcePoint" />
            <mxPoint x="1727.236" y="1752.276" as="targetPoint" />
          </mxGeometry>
        </mxCell>
        <mxCell id="tZtnKp5M03eyO23c1v6A-346" value="" style="endArrow=none;html=1;rounded=1;exitX=1;exitY=0.25;exitDx=0;exitDy=0;fontStyle=0;entryX=0.5;entryY=1;entryDx=0;entryDy=0;labelBackgroundColor=none;fontColor=default;strokeWidth=4;" parent="1" source="tZtnKp5M03eyO23c1v6A-254" target="tZtnKp5M03eyO23c1v6A-347" edge="1">
          <mxGeometry relative="1" as="geometry">
            <mxPoint x="1050.748" y="2205.748" as="sourcePoint" />
            <mxPoint x="1465" y="1827" as="targetPoint" />
            <Array as="points">
              <mxPoint x="1197" y="2130" />
              <mxPoint x="1197" y="1953" />
              <mxPoint x="1386" y="1953" />
            </Array>
          </mxGeometry>
        </mxCell>
        <mxCell id="tZtnKp5M03eyO23c1v6A-347" value="&lt;pre&gt;&lt;b&gt;&lt;font style=&quot;font-size: 38px;&quot;&gt;containts&lt;/font&gt;&lt;/b&gt;&lt;/pre&gt;" style="shape=rhombus;perimeter=rhombusPerimeter;whiteSpace=wrap;html=1;align=center;verticalAlign=middle;fontFamily=Helvetica;fontSize=11;rounded=1;labelBackgroundColor=none;endArrow=none;strokeWidth=4;" parent="1" vertex="1">
          <mxGeometry x="1246.528" y="1683.148" width="283.47" height="107.24" as="geometry" />
        </mxCell>
        <mxCell id="tZtnKp5M03eyO23c1v6A-348" value="&lt;pre style=&quot;font-size: 36px;&quot;&gt;&lt;font style=&quot;font-size: 36px;&quot;&gt;&lt;b style=&quot;font-size: 36px;&quot;&gt;About&lt;/b&gt;&lt;/font&gt;&lt;/pre&gt;" style="whiteSpace=wrap;html=1;align=center;fontSize=11;rounded=1;labelBackgroundColor=none;endArrow=none;strokeWidth=4;" parent="1" vertex="1">
          <mxGeometry x="1308.36" y="1400" width="159.8" height="80" as="geometry" />
        </mxCell>
        <mxCell id="tZtnKp5M03eyO23c1v6A-349" value="" style="endArrow=none;html=1;rounded=1;entryX=0.5;entryY=1;entryDx=0;entryDy=0;exitX=0.5;exitY=0;exitDx=0;exitDy=0;labelBackgroundColor=none;fontColor=default;strokeWidth=4;" parent="1" source="tZtnKp5M03eyO23c1v6A-347" target="tZtnKp5M03eyO23c1v6A-348" edge="1">
          <mxGeometry relative="1" as="geometry">
            <mxPoint x="616.748" y="1625.748" as="sourcePoint" />
            <mxPoint x="416.748" y="1673.748" as="targetPoint" />
          </mxGeometry>
        </mxCell>
        <mxCell id="tZtnKp5M03eyO23c1v6A-350" value="" style="endArrow=none;html=1;rounded=1;exitX=0.5;exitY=0;exitDx=0;exitDy=0;entryX=0.5;entryY=1;entryDx=0;entryDy=0;labelBackgroundColor=none;fontColor=default;strokeWidth=4;" parent="1" source="tZtnKp5M03eyO23c1v6A-348" target="tZtnKp5M03eyO23c1v6A-351" edge="1">
          <mxGeometry relative="1" as="geometry">
            <mxPoint x="616.748" y="1625.748" as="sourcePoint" />
            <mxPoint x="1388" y="1181" as="targetPoint" />
          </mxGeometry>
        </mxCell>
        <mxCell id="tZtnKp5M03eyO23c1v6A-351" value="&lt;pre&gt;&lt;span style=&quot;font-size: 36px;&quot;&gt;&lt;b&gt;&lt;u&gt;about_id&lt;/u&gt;&lt;/b&gt;&lt;/span&gt;&lt;/pre&gt;" style="ellipse;whiteSpace=wrap;html=1;align=center;rounded=1;labelBackgroundColor=none;endArrow=none;fontSize=11;strokeWidth=4;" parent="1" vertex="1">
          <mxGeometry x="1268.258" y="1099.3680000000002" width="240" height="60" as="geometry" />
        </mxCell>
        <mxCell id="tZtnKp5M03eyO23c1v6A-352" value="&lt;pre&gt;&lt;span style=&quot;font-size: 36px;&quot;&gt;&lt;b&gt;creator&lt;/b&gt;&lt;/span&gt;&lt;/pre&gt;" style="ellipse;whiteSpace=wrap;html=1;align=center;rounded=1;labelBackgroundColor=none;endArrow=none;fontSize=11;strokeWidth=4;" parent="1" vertex="1">
          <mxGeometry x="1150" y="1196.85" width="202.38" height="60" as="geometry" />
        </mxCell>
        <mxCell id="tZtnKp5M03eyO23c1v6A-353" value="&lt;pre&gt;&lt;span style=&quot;font-size: 36px;&quot;&gt;&lt;b&gt;info&lt;/b&gt;&lt;/span&gt;&lt;/pre&gt;" style="ellipse;whiteSpace=wrap;html=1;align=center;rounded=1;labelBackgroundColor=none;endArrow=none;fontSize=11;strokeWidth=4;" parent="1" vertex="1">
          <mxGeometry x="1404.178" y="1196.848" width="202.38" height="60" as="geometry" />
        </mxCell>
        <mxCell id="tZtnKp5M03eyO23c1v6A-354" value="" style="endArrow=none;html=1;rounded=1;exitX=0.5;exitY=0;exitDx=0;exitDy=0;entryX=0.5;entryY=1;entryDx=0;entryDy=0;labelBackgroundColor=none;fontColor=default;strokeWidth=4;" parent="1" source="tZtnKp5M03eyO23c1v6A-348" target="tZtnKp5M03eyO23c1v6A-353" edge="1">
          <mxGeometry relative="1" as="geometry">
            <mxPoint x="1403.748" y="1415.748" as="sourcePoint" />
            <mxPoint x="1403.748" y="1174.748" as="targetPoint" />
          </mxGeometry>
        </mxCell>
        <mxCell id="tZtnKp5M03eyO23c1v6A-355" value="" style="endArrow=none;html=1;rounded=1;exitX=0.5;exitY=0;exitDx=0;exitDy=0;entryX=0.5;entryY=1;entryDx=0;entryDy=0;labelBackgroundColor=none;fontColor=default;strokeWidth=4;" parent="1" source="tZtnKp5M03eyO23c1v6A-348" target="tZtnKp5M03eyO23c1v6A-352" edge="1">
          <mxGeometry relative="1" as="geometry">
            <mxPoint x="1419.496" y="1431.496" as="sourcePoint" />
            <mxPoint x="1419.496" y="1190.496" as="targetPoint" />
          </mxGeometry>
        </mxCell>
        <mxCell id="tZtnKp5M03eyO23c1v6A-377" value="&lt;pre style=&quot;font-size: 36px;&quot;&gt;&lt;font style=&quot;font-size: 36px;&quot;&gt;&lt;b style=&quot;font-size: 36px;&quot;&gt;FAQ&lt;/b&gt;&lt;/font&gt;&lt;/pre&gt;" style="whiteSpace=wrap;html=1;align=center;fontSize=11;rounded=1;labelBackgroundColor=none;endArrow=none;strokeWidth=4;" parent="1" vertex="1">
          <mxGeometry x="1700.788" y="929.998" width="170" height="80" as="geometry" />
        </mxCell>
        <mxCell id="tZtnKp5M03eyO23c1v6A-378" value="&lt;pre&gt;&lt;span style=&quot;font-size: 36px;&quot;&gt;&lt;b&gt;question&lt;/b&gt;&lt;/span&gt;&lt;/pre&gt;" style="ellipse;whiteSpace=wrap;html=1;align=center;rounded=1;labelBackgroundColor=none;endArrow=none;fontSize=11;strokeWidth=4;" parent="1" vertex="1">
          <mxGeometry x="1570" y="717.5" width="204.72" height="60" as="geometry" />
        </mxCell>
        <mxCell id="tZtnKp5M03eyO23c1v6A-379" value="&lt;pre&gt;&lt;span style=&quot;font-size: 36px;&quot;&gt;&lt;b&gt;Answer&lt;/b&gt;&lt;/span&gt;&lt;/pre&gt;" style="ellipse;whiteSpace=wrap;html=1;align=center;rounded=1;labelBackgroundColor=none;endArrow=none;fontSize=11;strokeWidth=4;" parent="1" vertex="1">
          <mxGeometry x="1814.7979999999998" y="749.998" width="204.72" height="60" as="geometry" />
        </mxCell>
        <mxCell id="tZtnKp5M03eyO23c1v6A-380" value="&lt;pre&gt;&lt;span style=&quot;font-size: 36px;&quot;&gt;&lt;b&gt;faq_id&lt;/b&gt;&lt;/span&gt;&lt;/pre&gt;" style="ellipse;whiteSpace=wrap;html=1;align=center;rounded=1;labelBackgroundColor=none;endArrow=none;fontSize=11;strokeWidth=4;" parent="1" vertex="1">
          <mxGeometry x="1700.7959999999996" y="627.4960000000001" width="204.72" height="60" as="geometry" />
        </mxCell>
        <mxCell id="tZtnKp5M03eyO23c1v6A-381" value="" style="endArrow=none;html=1;rounded=1;entryX=0.5;entryY=1;entryDx=0;entryDy=0;exitX=0.5;exitY=0;exitDx=0;exitDy=0;labelBackgroundColor=none;fontColor=default;strokeWidth=4;" parent="1" source="tZtnKp5M03eyO23c1v6A-377" target="tZtnKp5M03eyO23c1v6A-380" edge="1">
          <mxGeometry relative="1" as="geometry">
            <mxPoint x="2310.748" y="510.748" as="sourcePoint" />
            <mxPoint x="2205.748" y="398.748" as="targetPoint" />
          </mxGeometry>
        </mxCell>
        <mxCell id="tZtnKp5M03eyO23c1v6A-384" value="" style="endArrow=none;html=1;rounded=1;entryX=0.5;entryY=1;entryDx=0;entryDy=0;exitX=0.5;exitY=0;exitDx=0;exitDy=0;labelBackgroundColor=none;fontColor=default;strokeWidth=4;" parent="1" source="tZtnKp5M03eyO23c1v6A-377" target="tZtnKp5M03eyO23c1v6A-378" edge="1">
          <mxGeometry relative="1" as="geometry">
            <mxPoint x="2357.992" y="557.992" as="sourcePoint" />
            <mxPoint x="2252.992" y="445.992" as="targetPoint" />
          </mxGeometry>
        </mxCell>
        <mxCell id="tZtnKp5M03eyO23c1v6A-385" value="" style="endArrow=none;html=1;rounded=1;exitX=1.001;exitY=0.337;exitDx=0;exitDy=0;exitPerimeter=0;entryX=0;entryY=0.5;entryDx=0;entryDy=0;labelBackgroundColor=none;fontColor=default;strokeWidth=4;" parent="1" source="58sUtSx7XFqsdHOxAqbO-2" target="tZtnKp5M03eyO23c1v6A-386" edge="1">
          <mxGeometry relative="1" as="geometry">
            <mxPoint x="450.748" y="505.748" as="sourcePoint" />
            <mxPoint x="1087" y="47" as="targetPoint" />
            <Array as="points">
              <mxPoint x="756" y="520" />
              <mxPoint x="756" y="47" />
            </Array>
          </mxGeometry>
        </mxCell>
        <mxCell id="tZtnKp5M03eyO23c1v6A-386" value="&lt;pre&gt;&lt;b&gt;&lt;font style=&quot;font-size: 38px;&quot;&gt;Has&lt;/font&gt;&lt;/b&gt;&lt;/pre&gt;" style="shape=rhombus;perimeter=rhombusPerimeter;whiteSpace=wrap;html=1;align=center;verticalAlign=middle;fontFamily=Helvetica;fontSize=11;rounded=1;labelBackgroundColor=none;endArrow=none;strokeWidth=4;" parent="1" vertex="1">
          <mxGeometry x="1099.996" y="-0.004000000000019099" width="170" height="95" as="geometry" />
        </mxCell>
        <mxCell id="tZtnKp5M03eyO23c1v6A-387" value="" style="endArrow=none;html=1;rounded=1;entryX=0.98;entryY=0.512;entryDx=0;entryDy=0;entryPerimeter=0;exitX=0;exitY=0.5;exitDx=0;exitDy=0;labelBackgroundColor=none;fontColor=default;strokeWidth=4;" parent="1" source="tZtnKp5M03eyO23c1v6A-388" target="tZtnKp5M03eyO23c1v6A-386" edge="1">
          <mxGeometry relative="1" as="geometry">
            <mxPoint x="1449" y="47" as="sourcePoint" />
            <mxPoint x="1262.278" y="25.74799999999999" as="targetPoint" />
          </mxGeometry>
        </mxCell>
        <mxCell id="tZtnKp5M03eyO23c1v6A-388" value="&lt;pre style=&quot;font-size: 36px;&quot;&gt;&lt;font style=&quot;font-size: 36px;&quot;&gt;&lt;b style=&quot;font-size: 36px;&quot;&gt;Wishlist&lt;/b&gt;&lt;/font&gt;&lt;/pre&gt;" style="whiteSpace=wrap;html=1;align=center;fontSize=11;rounded=1;labelBackgroundColor=none;endArrow=none;strokeWidth=4;" parent="1" vertex="1">
          <mxGeometry x="1489.518" y="7.4979999999999905" width="290" height="80" as="geometry" />
        </mxCell>
        <mxCell id="tZtnKp5M03eyO23c1v6A-389" value="&lt;pre&gt;&lt;span style=&quot;font-size: 36px;&quot;&gt;&lt;b&gt;user_id&lt;/b&gt;&lt;/span&gt;&lt;/pre&gt;" style="ellipse;whiteSpace=wrap;html=1;align=center;rounded=1;labelBackgroundColor=none;endArrow=none;fontSize=11;strokeWidth=4;" parent="1" vertex="1">
          <mxGeometry x="1716.528" y="-204.72200000000004" width="240" height="60" as="geometry" />
        </mxCell>
        <mxCell id="tZtnKp5M03eyO23c1v6A-390" value="&lt;pre&gt;&lt;span style=&quot;font-size: 36px;&quot;&gt;&lt;b&gt;wishlist_id&lt;/b&gt;&lt;/span&gt;&lt;/pre&gt;" style="ellipse;whiteSpace=wrap;html=1;align=center;rounded=1;labelBackgroundColor=none;endArrow=none;fontSize=11;strokeWidth=4;" parent="1" vertex="1">
          <mxGeometry x="1514.8799999999999" y="-327.71" width="314.96" height="60" as="geometry" />
        </mxCell>
        <mxCell id="tZtnKp5M03eyO23c1v6A-391" value="" style="endArrow=none;html=1;rounded=1;entryX=0.5;entryY=1;entryDx=0;entryDy=0;exitX=0.5;exitY=0;exitDx=0;exitDy=0;labelBackgroundColor=none;fontColor=default;strokeWidth=4;" parent="1" source="tZtnKp5M03eyO23c1v6A-388" target="tZtnKp5M03eyO23c1v6A-389" edge="1">
          <mxGeometry relative="1" as="geometry">
            <mxPoint x="1505.748" y="62.748" as="sourcePoint" />
            <mxPoint x="1282.748" y="64.748" as="targetPoint" />
          </mxGeometry>
        </mxCell>
        <mxCell id="tZtnKp5M03eyO23c1v6A-392" value="" style="endArrow=none;html=1;rounded=1;entryX=0.5;entryY=1;entryDx=0;entryDy=0;exitX=0.5;exitY=0;exitDx=0;exitDy=0;labelBackgroundColor=none;fontColor=default;strokeWidth=4;" parent="1" source="tZtnKp5M03eyO23c1v6A-388" target="tZtnKp5M03eyO23c1v6A-390" edge="1">
          <mxGeometry relative="1" as="geometry">
            <mxPoint x="1521.496" y="78.496" as="sourcePoint" />
            <mxPoint x="1298.496" y="80.496" as="targetPoint" />
          </mxGeometry>
        </mxCell>
        <mxCell id="tZtnKp5M03eyO23c1v6A-394" value="&lt;pre style=&quot;border-color: var(--border-color);&quot;&gt;&lt;b style=&quot;border-color: var(--border-color);&quot;&gt;&lt;font style=&quot;font-size: 35px;&quot;&gt;item_id&lt;/font&gt;&lt;/b&gt;&lt;/pre&gt;" style="ellipse;shape=doubleEllipse;margin=3;whiteSpace=wrap;html=1;align=center;strokeWidth=4;perimeterSpacing=14;rounded=1;labelBackgroundColor=none;endArrow=none;fontSize=11;" parent="1" vertex="1">
          <mxGeometry x="1368.39" y="-251.97" width="238.17" height="81.73" as="geometry" />
        </mxCell>
        <mxCell id="tZtnKp5M03eyO23c1v6A-395" value="" style="endArrow=none;html=1;rounded=1;entryX=0.511;entryY=0.893;entryDx=0;entryDy=0;exitX=0.5;exitY=0;exitDx=0;exitDy=0;entryPerimeter=0;labelBackgroundColor=none;fontColor=default;strokeWidth=4;" parent="1" source="tZtnKp5M03eyO23c1v6A-388" target="tZtnKp5M03eyO23c1v6A-394" edge="1">
          <mxGeometry relative="1" as="geometry">
            <mxPoint x="1650.748" y="22.747999999999998" as="sourcePoint" />
            <mxPoint x="1852.748" y="-129.252" as="targetPoint" />
          </mxGeometry>
        </mxCell>
        <mxCell id="tZtnKp5M03eyO23c1v6A-397" value="&lt;pre&gt;&lt;b&gt;&lt;font style=&quot;font-size: 38px;&quot;&gt;contains&lt;/font&gt;&lt;/b&gt;&lt;/pre&gt;" style="shape=rhombus;perimeter=rhombusPerimeter;whiteSpace=wrap;html=1;align=center;verticalAlign=middle;fontFamily=Helvetica;fontSize=11;rounded=1;labelBackgroundColor=none;endArrow=none;strokeWidth=4;" parent="1" vertex="1">
          <mxGeometry x="1929.7780000000002" y="-0.001999999999981128" width="260.23" height="95" as="geometry" />
        </mxCell>
        <mxCell id="tZtnKp5M03eyO23c1v6A-398" value="" style="endArrow=none;html=1;rounded=1;entryX=0;entryY=0.5;entryDx=0;entryDy=0;exitX=1;exitY=0.5;exitDx=0;exitDy=0;labelBackgroundColor=none;fontColor=default;strokeWidth=4;" parent="1" source="tZtnKp5M03eyO23c1v6A-388" target="tZtnKp5M03eyO23c1v6A-397" edge="1">
          <mxGeometry relative="1" as="geometry">
            <mxPoint x="1650.748" y="22.747999999999998" as="sourcePoint" />
            <mxPoint x="1505.748" y="-152.252" as="targetPoint" />
          </mxGeometry>
        </mxCell>
        <mxCell id="tZtnKp5M03eyO23c1v6A-399" value="" style="endArrow=none;html=1;rounded=1;entryX=1;entryY=0.5;entryDx=0;entryDy=0;exitX=0.25;exitY=0;exitDx=0;exitDy=0;labelBackgroundColor=none;fontColor=default;strokeWidth=4;" parent="1" source="tZtnKp5M03eyO23c1v6A-217" target="tZtnKp5M03eyO23c1v6A-397" edge="1">
          <mxGeometry relative="1" as="geometry">
            <mxPoint x="1795.748" y="62.748" as="sourcePoint" />
            <mxPoint x="1945.748" y="62.748" as="targetPoint" />
            <Array as="points">
              <mxPoint x="-1118" y="-520" />
              <mxPoint x="-425" y="-520" />
              <mxPoint x="693" y="-520" />
              <mxPoint x="2724" y="-520" />
              <mxPoint x="2724" y="47" />
            </Array>
          </mxGeometry>
        </mxCell>
        <mxCell id="tZtnKp5M03eyO23c1v6A-400" value="&lt;pre style=&quot;font-size: 36px;&quot;&gt;&lt;font style=&quot;font-size: 36px;&quot;&gt;&lt;b style=&quot;font-size: 36px;&quot;&gt;Admin&lt;/b&gt;&lt;/font&gt;&lt;/pre&gt;" style="whiteSpace=wrap;html=1;align=center;fontSize=11;rounded=1;labelBackgroundColor=none;endArrow=none;strokeWidth=4;" parent="1" vertex="1">
          <mxGeometry x="2944.878" y="919.998" width="170" height="80" as="geometry" />
        </mxCell>
        <mxCell id="tZtnKp5M03eyO23c1v6A-402" value="&lt;pre&gt;&lt;span style=&quot;font-size: 36px;&quot;&gt;&lt;b&gt;admin_id&lt;/b&gt;&lt;/span&gt;&lt;/pre&gt;" style="ellipse;whiteSpace=wrap;html=1;align=center;rounded=1;labelBackgroundColor=none;endArrow=none;fontSize=11;strokeWidth=4;" parent="1" vertex="1">
          <mxGeometry x="2960.626" y="619.9960000000001" width="202.38" height="60" as="geometry" />
        </mxCell>
        <mxCell id="tZtnKp5M03eyO23c1v6A-403" value="&lt;pre&gt;&lt;span style=&quot;font-size: 36px;&quot;&gt;&lt;b&gt;active&lt;/b&gt;&lt;/span&gt;&lt;/pre&gt;" style="ellipse;whiteSpace=wrap;html=1;align=center;rounded=1;labelBackgroundColor=none;endArrow=none;fontSize=11;strokeWidth=4;" parent="1" vertex="1">
          <mxGeometry x="2758.2440000000006" y="715.0040000000001" width="202.38" height="60" as="geometry" />
        </mxCell>
        <mxCell id="tZtnKp5M03eyO23c1v6A-405" value="" style="endArrow=none;html=1;rounded=1;exitX=0.5;exitY=0;exitDx=0;exitDy=0;entryX=0.5;entryY=1;entryDx=0;entryDy=0;labelBackgroundColor=none;fontColor=default;strokeWidth=4;" parent="1" source="tZtnKp5M03eyO23c1v6A-400" target="tZtnKp5M03eyO23c1v6A-402" edge="1">
          <mxGeometry relative="1" as="geometry">
            <mxPoint x="2314.748" y="507.748" as="sourcePoint" />
            <mxPoint x="2435.748" y="378.748" as="targetPoint" />
          </mxGeometry>
        </mxCell>
        <mxCell id="tZtnKp5M03eyO23c1v6A-406" value="" style="endArrow=none;html=1;rounded=1;entryX=0.5;entryY=1;entryDx=0;entryDy=0;exitX=0.5;exitY=0;exitDx=0;exitDy=0;labelBackgroundColor=none;fontColor=default;strokeWidth=4;" parent="1" source="tZtnKp5M03eyO23c1v6A-400" target="tZtnKp5M03eyO23c1v6A-403" edge="1">
          <mxGeometry relative="1" as="geometry">
            <mxPoint x="2819" y="913" as="sourcePoint" />
            <mxPoint x="3077.748" y="695.748" as="targetPoint" />
          </mxGeometry>
        </mxCell>
        <mxCell id="tZtnKp5M03eyO23c1v6A-407" value="&lt;pre&gt;&lt;span style=&quot;font-size: 34px;&quot;&gt;&lt;b&gt;updates&lt;/b&gt;&lt;/span&gt;&lt;/pre&gt;" style="shape=rhombus;perimeter=rhombusPerimeter;whiteSpace=wrap;html=1;align=center;verticalAlign=middle;fontFamily=Helvetica;fontSize=11;rounded=1;labelBackgroundColor=none;endArrow=none;strokeWidth=4;" parent="1" vertex="1">
          <mxGeometry x="2300" y="900" width="203.93" height="110" as="geometry" />
        </mxCell>
        <mxCell id="tZtnKp5M03eyO23c1v6A-408" value="" style="endArrow=none;html=1;rounded=1;entryX=1;entryY=0.5;entryDx=0;entryDy=0;exitX=0;exitY=0.5;exitDx=0;exitDy=0;labelBackgroundColor=none;fontColor=default;strokeWidth=4;" parent="1" source="tZtnKp5M03eyO23c1v6A-400" target="tZtnKp5M03eyO23c1v6A-407" edge="1">
          <mxGeometry relative="1" as="geometry">
            <mxPoint x="1932.748" y="825.748" as="sourcePoint" />
            <mxPoint x="1801.748" y="945.748" as="targetPoint" />
          </mxGeometry>
        </mxCell>
        <mxCell id="tZtnKp5M03eyO23c1v6A-409" value="" style="endArrow=none;html=1;rounded=1;exitX=0;exitY=0.5;exitDx=0;exitDy=0;labelBackgroundColor=none;fontColor=default;strokeWidth=4;" parent="1" source="tZtnKp5M03eyO23c1v6A-407" edge="1">
          <mxGeometry relative="1" as="geometry">
            <mxPoint x="1948.496" y="841.496" as="sourcePoint" />
            <mxPoint x="1874" y="955" as="targetPoint" />
          </mxGeometry>
        </mxCell>
        <mxCell id="tZtnKp5M03eyO23c1v6A-410" value="&lt;pre style=&quot;font-size: 36px;&quot;&gt;&lt;font style=&quot;font-size: 36px;&quot;&gt;&lt;b style=&quot;font-size: 36px;&quot;&gt;Report&lt;/b&gt;&lt;/font&gt;&lt;/pre&gt;" style="whiteSpace=wrap;html=1;align=center;fontSize=11;rounded=1;labelBackgroundColor=none;endArrow=none;strokeWidth=4;" parent="1" vertex="1">
          <mxGeometry x="3039.36" y="173.00000000000006" width="264.48" height="80" as="geometry" />
        </mxCell>
        <mxCell id="tZtnKp5M03eyO23c1v6A-411" value="&lt;pre&gt;&lt;span style=&quot;font-size: 36px;&quot;&gt;&lt;b&gt;created_on&lt;/b&gt;&lt;/span&gt;&lt;/pre&gt;" style="ellipse;whiteSpace=wrap;html=1;align=center;rounded=1;labelBackgroundColor=none;endArrow=none;fontSize=11;strokeWidth=4;" parent="1" vertex="1">
          <mxGeometry x="3102.358" y="-317.722" width="240" height="60" as="geometry" />
        </mxCell>
        <mxCell id="tZtnKp5M03eyO23c1v6A-412" value="" style="endArrow=none;html=1;rounded=1;entryX=0.5;entryY=1;entryDx=0;entryDy=0;exitX=0.5;exitY=0;exitDx=0;exitDy=0;labelBackgroundColor=none;fontColor=default;strokeWidth=4;" parent="1" source="tZtnKp5M03eyO23c1v6A-3" target="tZtnKp5M03eyO23c1v6A-22" edge="1">
          <mxGeometry relative="1" as="geometry">
            <mxPoint x="2310.748" y="510.748" as="sourcePoint" />
            <mxPoint x="2249.748" y="321.748" as="targetPoint" />
          </mxGeometry>
        </mxCell>
        <mxCell id="tZtnKp5M03eyO23c1v6A-413" value="&lt;pre&gt;&lt;span style=&quot;font-size: 36px;&quot;&gt;&lt;b&gt;last_edit&lt;/b&gt;&lt;/span&gt;&lt;/pre&gt;" style="ellipse;whiteSpace=wrap;html=1;align=center;rounded=1;labelBackgroundColor=none;endArrow=none;fontSize=11;strokeWidth=4;" parent="1" vertex="1">
          <mxGeometry x="2758.248" y="-232.72200000000004" width="240" height="60" as="geometry" />
        </mxCell>
        <mxCell id="tZtnKp5M03eyO23c1v6A-414" value="&lt;pre&gt;&lt;span style=&quot;font-size: 36px;&quot;&gt;&lt;b&gt;Description&lt;/b&gt;&lt;/span&gt;&lt;/pre&gt;" style="ellipse;whiteSpace=wrap;html=1;align=center;rounded=1;labelBackgroundColor=none;endArrow=none;fontSize=11;strokeWidth=4;" parent="1" vertex="1">
          <mxGeometry x="2838.8959999999997" y="-377.72399999999993" width="275.98" height="60" as="geometry" />
        </mxCell>
        <mxCell id="tZtnKp5M03eyO23c1v6A-415" value="&lt;pre&gt;&lt;span style=&quot;font-size: 36px;&quot;&gt;&lt;b&gt;&lt;u&gt;report_id&lt;/u&gt;&lt;/b&gt;&lt;/span&gt;&lt;/pre&gt;" style="ellipse;whiteSpace=wrap;html=1;align=center;rounded=1;labelBackgroundColor=none;endArrow=none;fontSize=11;strokeWidth=4;" parent="1" vertex="1">
          <mxGeometry x="3038.8160000000003" y="-204.72400000000005" width="240" height="60" as="geometry" />
        </mxCell>
        <mxCell id="tZtnKp5M03eyO23c1v6A-417" value="&lt;pre&gt;&lt;span style=&quot;font-size: 36px;&quot;&gt;&lt;b&gt;reviewr_id&lt;/b&gt;&lt;/span&gt;&lt;/pre&gt;" style="ellipse;whiteSpace=wrap;html=1;align=center;rounded=1;labelBackgroundColor=none;endArrow=none;fontSize=11;strokeWidth=4;" parent="1" vertex="1">
          <mxGeometry x="2960.6280000000006" y="-120.00200000000001" width="318.19" height="60" as="geometry" />
        </mxCell>
        <mxCell id="tZtnKp5M03eyO23c1v6A-418" value="&lt;pre style=&quot;border-color: var(--border-color);&quot;&gt;&lt;b style=&quot;border-color: var(--border-color);&quot;&gt;&lt;font style=&quot;font-size: 35px;&quot;&gt;status&lt;/font&gt;&lt;/b&gt;&lt;/pre&gt;" style="ellipse;shape=doubleEllipse;margin=3;whiteSpace=wrap;html=1;align=center;strokeWidth=4;perimeterSpacing=14;rounded=1;labelBackgroundColor=none;endArrow=none;fontSize=11;" parent="1" vertex="1">
          <mxGeometry x="3303.84" y="-231.2" width="154.25" height="58.48" as="geometry" />
        </mxCell>
        <mxCell id="tZtnKp5M03eyO23c1v6A-419" value="&lt;pre style=&quot;border-color: var(--border-color);&quot;&gt;&lt;b style=&quot;border-color: var(--border-color);&quot;&gt;&lt;font style=&quot;font-size: 35px;&quot;&gt;action&lt;/font&gt;&lt;/b&gt;&lt;/pre&gt;" style="ellipse;shape=doubleEllipse;margin=3;whiteSpace=wrap;html=1;align=center;strokeWidth=4;perimeterSpacing=14;rounded=1;labelBackgroundColor=none;endArrow=none;fontSize=11;" parent="1" vertex="1">
          <mxGeometry x="3322.828" y="-125.982" width="154.25" height="58.48" as="geometry" />
        </mxCell>
        <mxCell id="tZtnKp5M03eyO23c1v6A-421" value="" style="endArrow=none;html=1;rounded=1;entryX=0.5;entryY=1;entryDx=0;entryDy=0;exitX=0.5;exitY=0;exitDx=0;exitDy=0;labelBackgroundColor=none;fontColor=default;strokeWidth=4;" parent="1" source="tZtnKp5M03eyO23c1v6A-410" target="tZtnKp5M03eyO23c1v6A-413" edge="1">
          <mxGeometry relative="1" as="geometry">
            <mxPoint x="2954.748" y="122.748" as="sourcePoint" />
            <mxPoint x="2907.748" y="-34.252" as="targetPoint" />
          </mxGeometry>
        </mxCell>
        <mxCell id="tZtnKp5M03eyO23c1v6A-424" value="" style="endArrow=none;html=1;rounded=1;entryX=0.5;entryY=1;entryDx=0;entryDy=0;exitX=0.5;exitY=0;exitDx=0;exitDy=0;labelBackgroundColor=none;fontColor=default;strokeWidth=4;" parent="1" source="tZtnKp5M03eyO23c1v6A-410" target="tZtnKp5M03eyO23c1v6A-417" edge="1">
          <mxGeometry relative="1" as="geometry">
            <mxPoint x="3001.992" y="169.992" as="sourcePoint" />
            <mxPoint x="2954.992" y="12.991999999999997" as="targetPoint" />
          </mxGeometry>
        </mxCell>
        <mxCell id="tZtnKp5M03eyO23c1v6A-425" value="" style="endArrow=none;html=1;rounded=1;entryX=0;entryY=1;entryDx=0;entryDy=0;exitX=0.5;exitY=0;exitDx=0;exitDy=0;labelBackgroundColor=none;fontColor=default;strokeWidth=4;" parent="1" source="tZtnKp5M03eyO23c1v6A-410" target="tZtnKp5M03eyO23c1v6A-418" edge="1">
          <mxGeometry relative="1" as="geometry">
            <mxPoint x="3017.74" y="185.74" as="sourcePoint" />
            <mxPoint x="2970.74" y="28.739999999999995" as="targetPoint" />
          </mxGeometry>
        </mxCell>
        <mxCell id="tZtnKp5M03eyO23c1v6A-426" value="" style="endArrow=none;html=1;rounded=1;entryX=0.5;entryY=1;entryDx=0;entryDy=0;exitX=0.5;exitY=0;exitDx=0;exitDy=0;labelBackgroundColor=none;fontColor=default;strokeWidth=4;" parent="1" source="tZtnKp5M03eyO23c1v6A-410" target="tZtnKp5M03eyO23c1v6A-416" edge="1">
          <mxGeometry relative="1" as="geometry">
            <mxPoint x="2945" y="110" as="sourcePoint" />
            <mxPoint x="2986.488" y="44.488" as="targetPoint" />
          </mxGeometry>
        </mxCell>
        <mxCell id="tZtnKp5M03eyO23c1v6A-427" value="" style="endArrow=none;html=1;rounded=1;exitX=0.5;exitY=0;exitDx=0;exitDy=0;labelBackgroundColor=none;fontColor=default;strokeWidth=4;" parent="1" source="tZtnKp5M03eyO23c1v6A-410" target="tZtnKp5M03eyO23c1v6A-419" edge="1">
          <mxGeometry relative="1" as="geometry">
            <mxPoint x="3049.236" y="217.236" as="sourcePoint" />
            <mxPoint x="3002.236" y="60.23599999999999" as="targetPoint" />
          </mxGeometry>
        </mxCell>
        <mxCell id="tZtnKp5M03eyO23c1v6A-416" value="&lt;pre&gt;&lt;span style=&quot;font-size: 36px;&quot;&gt;&lt;b&gt;initiator_id&lt;/b&gt;&lt;/span&gt;&lt;/pre&gt;" style="ellipse;whiteSpace=wrap;html=1;align=center;rounded=1;labelBackgroundColor=none;endArrow=none;fontSize=11;strokeWidth=4;" parent="1" vertex="1">
          <mxGeometry x="2740.15" y="-67.5" width="318.19" height="60" as="geometry" />
        </mxCell>
        <mxCell id="tZtnKp5M03eyO23c1v6A-429" value="&lt;pre&gt;&lt;span style=&quot;font-size: 34px;&quot;&gt;&lt;b&gt;review&lt;/b&gt;&lt;/span&gt;&lt;/pre&gt;" style="shape=rhombus;perimeter=rhombusPerimeter;whiteSpace=wrap;html=1;align=center;verticalAlign=middle;fontFamily=Helvetica;fontSize=11;rounded=1;labelBackgroundColor=none;endArrow=none;strokeWidth=4;" parent="1" vertex="1">
          <mxGeometry x="3273.148" y="639.998" width="203.93" height="110" as="geometry" />
        </mxCell>
        <mxCell id="tZtnKp5M03eyO23c1v6A-430" value="" style="endArrow=none;html=1;rounded=1;entryX=0.5;entryY=1;entryDx=0;entryDy=0;exitX=1;exitY=0.5;exitDx=0;exitDy=0;labelBackgroundColor=none;fontColor=default;strokeWidth=4;" parent="1" source="tZtnKp5M03eyO23c1v6A-400" target="tZtnKp5M03eyO23c1v6A-429" edge="1">
          <mxGeometry relative="1" as="geometry">
            <mxPoint x="3045.748" y="935.748" as="sourcePoint" />
            <mxPoint x="2874.748" y="790.748" as="targetPoint" />
            <Array as="points">
              <mxPoint x="3370" y="960" />
            </Array>
          </mxGeometry>
        </mxCell>
        <mxCell id="tZtnKp5M03eyO23c1v6A-431" value="" style="endArrow=none;html=1;rounded=1;entryX=0.5;entryY=0;entryDx=0;entryDy=0;exitX=0.5;exitY=1;exitDx=0;exitDy=0;labelBackgroundColor=none;fontColor=default;strokeWidth=4;" parent="1" source="tZtnKp5M03eyO23c1v6A-410" target="tZtnKp5M03eyO23c1v6A-429" edge="1">
          <mxGeometry relative="1" as="geometry">
            <mxPoint x="3061.496" y="951.496" as="sourcePoint" />
            <mxPoint x="2890.496" y="806.496" as="targetPoint" />
            <Array as="points">
              <mxPoint x="3172" y="441" />
              <mxPoint x="3375" y="441" />
            </Array>
          </mxGeometry>
        </mxCell>
        <mxCell id="lqBJQqf9hlq6nbLFyA0Y-1" value="&lt;pre&gt;&lt;span style=&quot;font-size: 36px;&quot;&gt;&lt;span&gt;username&lt;/span&gt;&lt;/span&gt;&lt;/pre&gt;" style="ellipse;whiteSpace=wrap;html=1;align=center;rounded=1;labelBackgroundColor=none;endArrow=none;fontSize=11;strokeWidth=4;fontStyle=1" vertex="1" parent="1">
          <mxGeometry x="560.3499999999999" y="2349.44" width="233.35" height="60" as="geometry" />
        </mxCell>
        <mxCell id="lqBJQqf9hlq6nbLFyA0Y-2" value="&lt;pre&gt;&lt;span style=&quot;font-size: 36px;&quot;&gt;&lt;b&gt;Total_rating&lt;/b&gt;&lt;/span&gt;&lt;/pre&gt;" style="ellipse;whiteSpace=wrap;html=1;align=center;rounded=1;labelBackgroundColor=none;endArrow=none;fontSize=11;strokeWidth=4;" vertex="1" parent="1">
          <mxGeometry x="401.58000000000004" y="2500.94" width="296.68" height="60" as="geometry" />
        </mxCell>
      </root>
    </mxGraphModel>
  </diagram>
</mxfile>
